<?xml version="1.0" standalone="no"?>
<!DOCTYPE svg PUBLIC "-//W3C//DTD SVG 20010904//EN"
 "http://www.w3.org/TR/2001/REC-SVG-20010904/DTD/svg10.dtd">
<svg version="1.0" xmlns="http://www.w3.org/2000/svg"
 width="640.000000pt" height="1280.000000pt" viewBox="0 0 640.000000 1280.000000"
 preserveAspectRatio="xMidYMid meet">
<g transform="translate(0.000000,1280.000000) scale(0.100000,-0.100000)"
fill="#000000" stroke="none">
<path d="M3118 12775 c-61 -25 -106 -53 -150 -93 -22 -20 -28 -35 -28 -68 0
-56 18 -74 68 -67 70 9 96 -50 45 -100 -44 -41 -95 -57 -221 -69 -141 -13
-153 -20 -122 -75 l22 -39 -107 -215 c-59 -118 -114 -222 -123 -233 -9 -10
-59 -39 -109 -63 -51 -25 -93 -49 -93 -53 0 -4 31 -36 68 -71 l68 -64 143
-555 c82 -316 150 -563 160 -574 9 -10 44 -38 79 -61 55 -37 73 -58 138 -161
41 -66 81 -124 90 -130 10 -9 13 -22 9 -50 -4 -24 3 -87 19 -165 34 -169 46
-455 46 -1123 0 -460 2 -517 15 -506 12 10 18 10 30 0 20 -16 1 -53 -23 -46
-16 5 -17 -65 -15 -1087 1 -600 3 -1564 5 -2142 4 -914 2 -1056 -11 -1096 -15
-46 -15 -47 16 -95 44 -68 47 -90 24 -164 -25 -79 -26 -97 -5 -146 22 -53 14
-104 -31 -203 -53 -118 -55 -146 -15 -233 42 -91 37 -109 -50 -166 -36 -23
-81 -58 -100 -77 l-35 -35 41 -78 c79 -146 105 -285 111 -601 5 -233 -3 -386
-33 -641 -36 -303 -77 -482 -153 -676 -28 -71 -53 -143 -57 -160 -10 -51 17
-96 96 -159 39 -31 74 -63 77 -71 3 -7 -13 -34 -35 -59 -46 -52 -72 -102 -72
-137 0 -25 37 -66 80 -88 51 -27 169 -51 290 -61 69 -5 145 -12 169 -15 24 -4
60 -1 80 5 20 6 92 24 160 40 187 45 200 67 131 209 -28 58 -49 88 -70 100
-45 25 -40 55 17 94 72 51 123 104 123 127 0 11 -33 124 -74 250 -149 458
-173 617 -183 1211 -6 355 0 418 54 560 41 109 52 148 46 168 -2 11 -43 52
-89 92 -98 84 -103 103 -53 177 45 65 43 104 -13 211 -54 104 -63 149 -47 232
10 53 9 72 -6 142 -17 74 -18 85 -4 139 13 48 13 59 2 63 -10 4 -10 11 -2 30
9 18 8 42 -1 93 -10 51 -14 295 -15 965 -2 493 -6 902 -10 908 -4 6 -8 223
-10 483 -5 627 -20 1113 -44 1439 -38 501 -44 687 -37 1093 12 738 29 1072 61
1222 3 12 17 28 32 35 21 10 31 27 45 75 17 59 24 67 116 147 l97 85 105 513
c116 573 111 558 198 571 23 4 42 13 42 19 0 7 -52 65 -115 128 l-114 115 -83
175 c-46 96 -103 209 -126 251 -23 42 -42 84 -42 93 0 10 -4 26 -10 36 -11 20
3 40 41 61 13 6 19 18 17 32 -4 30 -67 45 -191 46 -102 1 -149 15 -161 46 -18
48 8 75 74 75 55 0 58 6 52 86 -4 49 -5 52 -55 82 -52 32 -159 72 -187 71 -8
0 -41 -11 -72 -24z m42 -9685 c0 -13 -37 -13 -45 0 -3 6 -3 15 0 20 7 12 45
-5 45 -20z m421 -215 c0 -5 -9 -11 -21 -13 -20 -3 -27 8 -13 22 10 9 34 3 34
-9z"/>
</g>
</svg>
