<?xml version="1.0" encoding="UTF-8" standalone="no"?>
<svg
   xmlns:dc="http://purl.org/dc/elements/1.1/"
   xmlns:cc="http://creativecommons.org/ns#"
   xmlns:rdf="http://www.w3.org/1999/02/22-rdf-syntax-ns#"
   xmlns:svg="http://www.w3.org/2000/svg"
   xmlns="http://www.w3.org/2000/svg"
   viewBox="0 0 847.15649 743.62152"
   height="743.62152"
   width="847.15649"
   xml:space="preserve"
   version="1.1"
   id="svg8442"><metadata
     id="metadata8448"><rdf:RDF><cc:Work
         rdf:about=""><dc:format>image/svg+xml</dc:format><dc:type
           rdf:resource="http://purl.org/dc/dcmitype/StillImage" /><dc:title></dc:title></cc:Work></rdf:RDF></metadata><defs
     id="defs8446" /><g
     transform="matrix(1.25,0,0,-1.25,0,743.62152)"
     id="g8450"><g
       id="g8452"><path
         id="path8454"
         style="fill:#ffffff;fill-opacity:1;fill-rule:nonzero;stroke:none"
         d="m 338.867,594.499 c -7.515,0 -15.027,-2.867 -20.758,-8.598 -1.879,-1.879 -3.445,-3.953 -4.707,-6.152 l -15.246,-26.156 -0.07,0 L 4.984,45.553 C 4.93,45.456 4.887,45.358 4.832,45.26 3.344,42.866 2.176,40.218 1.406,37.35 -2.789,21.694 6.504,5.596 22.164,1.401 c 2.586,-0.695 5.184,-1.012 7.738,-1 l 618.067,0 c 16.215,0 29.355,13.141 29.355,29.356 0,5.304 -1.414,10.281 -3.879,14.578 -0.019,0.031 -0.035,0.062 -0.054,0.097 L 369.027,572.843 c -3.863,6.664 -5.652,9.304 -9.406,13.058 -5.73,5.731 -13.242,8.598 -20.754,8.598 z" /><path
         id="path8456"
         style="fill:#c1121c;fill-opacity:1;fill-rule:nonzero;stroke:none"
         d="m 338.867,587.143 c -7.125,0.051 -14.949,-3.59 -18.781,-10.406 L 10.793,40.846 C 9.008,37.198 8.258,34.026 8.234,30.397 c 0,-6.496 2.875,-12.66 7.848,-16.84 4.383,-3.394 8.535,-5.16 14.121,-5.16 l 617.906,0 c 3.77,-0.035 7.547,0.871 10.977,3.133 6.453,3.898 10.402,10.883 10.41,18.426 -0.184,3.894 -1.144,8 -2.879,10.89 L 357.504,576.827 c -0.027,0.047 -0.063,0.094 -0.09,0.141 -0.031,0.046 -0.062,0.093 -0.094,0.144 -1.097,1.754 -2.472,3.305 -4.039,4.633 -3.59,3.109 -8.086,4.976 -12.824,5.316 -0.531,0.047 -1.062,0.078 -1.59,0.082 z M 30.203,8.397 l -1.523,0 1.554,0 -0.031,0 z M 338.547,480.932 574.25,72.397 l -471.738,0 236.035,408.535 z" /><path
         id="path8458"
         style="fill:#000000;fill-opacity:1;fill-rule:nonzero;stroke:none"
         d="m 338.867,594.897 c -7.617,0 -15.23,-2.906 -21.039,-8.715 -1.906,-1.902 -3.492,-4.007 -4.773,-6.234 l -15.129,-25.957 -0.071,0 L 4.641,45.753 C 4.574,45.635 4.527,45.534 4.48,45.452 2.977,43.03 1.797,40.35 1.02,37.456 -3.23,21.585 6.191,5.264 22.059,1.014 24.68,0.311 27.316,-0.009 29.902,-0.001 l 618.067,0 c 16.429,0 29.758,13.328 29.758,29.758 0,5.375 -1.438,10.418 -3.934,14.773 -0.012,0.023 -0.027,0.055 -0.055,0.102 L 369.375,573.046 c -3.871,6.664 -5.695,9.363 -9.469,13.136 -5.808,5.809 -13.426,8.715 -21.039,8.715 z m 0,-0.398 c 7.512,0 15.024,-2.867 20.754,-8.598 3.754,-3.754 5.543,-6.394 9.406,-13.058 L 673.391,44.432 c 0.019,-0.035 0.035,-0.066 0.054,-0.097 2.465,-4.297 3.879,-9.274 3.879,-14.578 0,-16.215 -13.14,-29.356 -29.355,-29.356 l -618.067,0 C 27.348,0.389 24.75,0.706 22.164,1.401 6.504,5.596 -2.789,21.694 1.406,37.35 c 0.77,2.868 1.938,5.516 3.426,7.91 0.055,0.098 0.098,0.196 0.152,0.293 l 293.102,508.04 0.07,0 15.246,26.156 c 1.262,2.199 2.828,4.273 4.707,6.152 5.731,5.731 13.243,8.598 20.758,8.598 z" /><path
         id="path8460"
         style="fill:#000000;fill-opacity:1;fill-rule:evenodd;stroke:none"
         d="m 382.867,140.698 c 0,33.871 -36.668,55.043 -66,38.105 -29.336,-16.933 -29.336,-59.273 0,-76.207 29.332,-16.937 66,4.231 66,38.102 z" /><path
         id="path8462"
         style="fill:#008754;fill-opacity:1;fill-rule:evenodd;stroke:none"
         d="m 378.867,140.698 c 0,30.793 -33.336,50.039 -60,34.645 -26.668,-15.399 -26.668,-53.887 0,-69.286 26.664,-15.394 60,3.852 60,34.641 z" /><path
         id="path8464"
         style="fill:#000000;fill-opacity:1;fill-rule:evenodd;stroke:none"
         d="m 382.867,241.128 c 0,33.871 -36.668,55.039 -66,38.105 -29.336,-16.937 -29.336,-59.277 0,-76.211 29.332,-16.937 66,4.235 66,38.106 z" /><path
         id="path8466"
         style="fill:#f0ca00;fill-opacity:1;fill-rule:evenodd;stroke:none"
         d="m 378.867,241.128 c 0,30.789 -33.336,50.035 -60,34.64 -26.668,-15.398 -26.668,-53.886 0,-69.281 26.664,-15.398 60,3.848 60,34.641 z" /><path
         id="path8468"
         style="fill:#000000;fill-opacity:1;fill-rule:evenodd;stroke:none"
         d="m 382.867,341.553 c 0,33.872 -36.668,55.04 -66,38.106 -29.336,-16.938 -29.336,-59.277 0,-76.211 29.332,-16.938 66,4.234 66,38.105 z" /><path
         id="path8470"
         style="fill:#c1121c;fill-opacity:1;fill-rule:evenodd;stroke:none"
         d="m 378.867,341.553 c 0,30.793 -33.336,50.036 -60,34.641 -26.668,-15.394 -26.668,-53.887 0,-69.281 26.664,-15.399 60,3.847 60,34.64 z" /></g></g></svg>