<?xml version="1.0" encoding="UTF-8" standalone="no"?>
<svg
   xmlns:dc="http://purl.org/dc/elements/1.1/"
   xmlns:cc="http://creativecommons.org/ns#"
   xmlns:rdf="http://www.w3.org/1999/02/22-rdf-syntax-ns#"
   xmlns:svg="http://www.w3.org/2000/svg"
   xmlns="http://www.w3.org/2000/svg"
   viewBox="0 0 900 600"
   height="600"
   width="900"
   xml:space="preserve"
   version="1.1"
   id="svg3713"><metadata
     id="metadata3719"><rdf:RDF><cc:Work
         rdf:about=""><dc:format>image/svg+xml</dc:format><dc:type
           rdf:resource="http://purl.org/dc/dcmitype/StillImage" /><dc:title></dc:title></cc:Work></rdf:RDF></metadata><defs
     id="defs3717" /><g
     transform="matrix(1.25,0,0,-1.25,0,600)"
     id="g3721"><g
       id="g3723"><path
         id="path3725"
         style="fill:#f0c900;fill-opacity:1;fill-rule:evenodd;stroke:none"
         d="m 30,480 c 0,0 -29.977,0.008 -30,-30 L 0,30 C 0,30 -0.082,0 30,0 l 660,0 c 30.082,0 30,30 30,30 l 0,420 c -0.023,30.008 -30,30 -30,30 l -660,0 z" /><path
         id="path3727"
         style="fill:#c1121c;fill-opacity:1;fill-rule:evenodd;stroke:none"
         d="m 14.969,40.855 602.871,196.692 89.515,0 -1.214,-31.664 L 126.41,16.496 28.367,15.887 14.969,26.238 l 0,14.617 z" /><path
         id="path3729"
         style="fill:#000000;fill-opacity:1;fill-rule:nonzero;stroke:none"
         d="m 243.785,290.137 13.414,26.832 7.992,0 -10.531,-21.137 0.137,0 c 1.121,0.438 2.391,0.652 3.808,0.652 3.157,0 5.938,-1.109 8.336,-3.328 2.403,-2.218 3.606,-5.75 3.606,-10.601 0,-5.739 -1.535,-9.84 -4.598,-12.297 -3.066,-2.461 -6.453,-3.692 -10.156,-3.692 -3.5,0 -6.695,1.356 -9.59,4.067 -2.894,2.711 -4.34,6.422 -4.34,11.133 0,3.019 0.641,5.812 1.922,8.371 z m 12.418,0 c -1.988,0 -3.68,-0.668 -5.078,-2.004 -1.395,-1.34 -2.09,-3.403 -2.09,-6.195 0,-5.489 2.387,-8.235 7.168,-8.235 1.649,0 3.254,0.625 4.82,1.871 1.567,1.246 2.352,3.367 2.352,6.364 0,2.792 -0.703,4.855 -2.109,6.195 -1.407,1.336 -3.094,2.004 -5.063,2.004 z" /><path
         id="path3731"
         style="fill:#000000;fill-opacity:1;fill-rule:nonzero;stroke:none"
         d="m 304.102,266.574 0,49.528 7.105,0 0,-30.832 0.137,0 13.562,16.589 8.5,0 -12.172,-13.8 13.836,-21.485 -8.906,0 -9.383,16.489 -5.574,-6.36 0,-10.129 -7.105,0 z m 36.578,0 0,35.285 7.105,0 0,-3.773 0.133,0 c 2.246,2.789 5.305,4.18 9.18,4.18 2.468,0 4.429,-0.442 5.879,-1.325 1.453,-0.882 2.812,-1.972 4.082,-3.261 2.785,3.058 6.504,4.586 11.148,4.586 2.742,0 5.387,-1.039 7.938,-3.125 2.55,-2.086 3.824,-5.121 3.824,-9.11 l 0,-23.457 -7.106,0 0,21.008 c 0,2.379 -0.668,4.238 -2.004,5.574 -1.339,1.34 -2.992,2.008 -4.964,2.008 -2.04,0 -3.723,-0.668 -5.047,-2.008 -1.325,-1.336 -1.989,-3.195 -1.989,-5.574 l 0,-21.008 -7.07,0 0,21.008 c 0,2.379 -0.668,4.238 -2.008,5.574 -1.336,1.34 -2.988,2.008 -4.961,2.008 -2.039,0 -3.722,-0.668 -5.047,-2.008 -1.328,-1.336 -1.988,-3.195 -1.988,-5.574 l 0,-21.008 -7.105,0 z" /><path
         id="path3733"
         style="fill:#000000;fill-opacity:1;fill-rule:evenodd;stroke:none"
         d="m 572.09,396.98 0.199,-25.753 33.805,33.437 0,-119.57 20.824,-0.199 0,119.57 33.82,-33.438 0.184,25.754 -44.371,43.719 -44.461,-43.52 z" /><path
         id="path3735"
         style="fill:#000000;fill-opacity:1;fill-rule:evenodd;stroke:none"
         d="m 16.164,246 0,-12 688.793,0 0,12 -688.793,0 z" /><path
         id="path3737"
         style="fill:#000000;fill-opacity:1;fill-rule:evenodd;stroke:none"
         d="M 30,472 C 30,472 8.012,471.961 8,450 L 8,30 C 8,30 7.992,7.98 30,8 l 660.074,0 c 22.008,-0.02 22,22 22,22 l 0,420 c -0.011,21.961 -22,22 -22,22 L 30,472 Z m 0,-12 660.074,0 c 0,0 9.942,-0.004 9.961,-10 0.891,-137.652 0.176,-420 0.176,-420 -0.035,-9.73 -10.137,-10 -10.137,-10 L 30,20 c 0,0 -10.102,0.27 -10.141,10 0,0 -0.711,282.348 0.18,420 0.016,9.996 9.961,10 9.961,10 z" /><path
         id="path3739"
         style="fill:#000000;fill-opacity:1;fill-rule:nonzero;stroke:none"
         d="m 104.266,62.828 -32,127.75 20.515,0 20.078,-90.836 0.352,0 24.812,90.836 13.942,0 24.812,-90.836 0.352,0 20.078,90.836 20.516,0 -32,-127.75 -16.133,0 -24.465,92.063 -0.352,0 -24.375,-92.063 -16.132,0 z" /><path
         id="path3741"
         style="fill:#000000;fill-opacity:1;fill-rule:nonzero;stroke:none"
         d="m 230.641,62.828 0,91.012 18.324,0 0,-91.012 -18.324,0 z m 0,109.422 0,18.328 18.324,0 0,-18.328 -18.324,0 z" /><path
         id="path3743"
         style="fill:#000000;fill-opacity:1;fill-rule:nonzero;stroke:none"
         d="m 277.883,84.836 0,105.742 18.324,0 0,-104.25 c 0,-4.211 2.281,-6.312 6.84,-6.312 l 6.223,0 0,-17.188 -8.067,0 c -6.66,0 -12.215,1.61 -16.656,4.824 -4.445,3.274 -6.664,9 -6.664,17.184 z" /><path
         id="path3745"
         style="fill:#000000;fill-opacity:1;fill-rule:nonzero;stroke:none"
         d="m 328.59,77.996 12.801,12.629 c 7.949,-7.777 17.504,-11.664 28.668,-11.664 5.203,0 9.5,0.965 12.89,2.894 3.391,1.989 5.086,4.911 5.086,8.77 0,5.316 -3.711,8.297 -11.137,8.941 l -16.132,1.493 c -7.539,0.582 -13.793,3.066 -18.762,7.449 -4.969,4.387 -7.453,10.492 -7.453,18.328 0,9.234 3.242,16.219 9.73,20.953 6.489,4.734 14.555,7.102 24.199,7.102 7.95,0 14.762,-1.141 20.43,-3.418 5.672,-2.223 10.758,-5.203 15.258,-8.946 l -11.313,-13.324 c -3.621,2.453 -7.363,4.469 -11.222,6.047 -3.856,1.578 -8.242,2.367 -13.153,2.367 -5.843,0 -9.906,-1.051 -12.187,-3.156 -2.277,-2.043 -3.418,-4.645 -3.418,-7.801 0,-1.988 0.848,-3.828 2.543,-5.523 1.695,-1.696 4.852,-2.719 9.469,-3.071 l 15.082,-1.05 c 9.41,-0.645 16.16,-3.567 20.254,-8.77 4.09,-5.144 6.136,-11.308 6.136,-18.5 0,-8.941 -3.652,-15.84 -10.961,-20.691 -7.304,-4.852 -16.218,-7.278 -26.742,-7.278 -15.136,0 -28.496,5.407 -40.066,16.219 z" /><path
         id="path3747"
         style="fill:#000000;fill-opacity:1;fill-rule:nonzero;stroke:none"
         d="m 433.195,153.84 0,27.617 18.325,0 0,-27.617 13.328,0 0,-14.027 -13.328,0 0,-52.961 c 0,-4.559 2.164,-6.836 6.488,-6.836 l 6.84,0 0,-17.188 -9.559,0 c -6.371,0 -11.66,1.93 -15.871,5.789 -4.148,3.856 -6.223,9.379 -6.223,16.571 l 0,54.625 -9.121,0 0,14.027 9.121,0 z" /><path
         id="path3749"
         style="fill:#000000;fill-opacity:1;fill-rule:nonzero;stroke:none"
         d="m 560.73,101.406 -56.64,0 c 0,-7.48 2.015,-13.093 6.047,-16.832 4.093,-3.742 9.297,-5.613 15.609,-5.613 7.539,0 14.203,2.922 19.988,8.769 l 13.243,-11.312 c -4.504,-5.258 -9.586,-9.031 -15.258,-11.309 -5.61,-2.222 -11.485,-3.332 -17.621,-3.332 -9.356,0 -18.414,3.008 -27.184,9.032 -8.766,6.078 -13.152,18.468 -13.152,37.175 0,17.711 4.035,29.957 12.101,36.739 8.125,6.777 16.602,10.168 25.426,10.168 9.996,0 18.734,-3.477 26.219,-10.434 7.48,-6.898 11.222,-16.219 11.222,-27.969 l 0,-15.082 z m -56.64,15.082 38.402,0 c -0.293,6.84 -2.222,12.071 -5.789,15.696 -3.562,3.625 -8.035,5.433 -13.414,5.433 -5.434,0 -9.965,-1.808 -13.59,-5.433 -3.566,-3.625 -5.433,-8.856 -5.609,-15.696 z" /><path
         id="path3751"
         style="fill:#000000;fill-opacity:1;fill-rule:nonzero;stroke:none"
         d="m 586.445,62.828 0,91.012 18.325,0 0,-9.735 0.351,0 c 5.672,7.192 13.563,10.786 23.672,10.786 6.664,0 13.008,-2.336 19.027,-7.012 l -13.238,-15.785 c -3.977,2.984 -8.008,4.472 -12.102,4.472 -4.5,0 -8.589,-1.519 -12.273,-4.558 -3.625,-2.981 -5.437,-7.805 -5.437,-14.469 l 0,-54.711 -18.325,0 z" /><path
         id="path3753"
         style="fill:#000000;fill-opacity:1;fill-rule:nonzero;stroke:none"
         d="m 58.867,351.293 8.828,10.039 c 3.305,-2.66 7.114,-4.797 11.426,-6.41 4.313,-1.613 8.828,-2.418 13.543,-2.418 5.441,0 9.715,1.129 12.816,3.387 3.106,2.254 4.657,5.218 4.657,8.886 0,6.934 -3.828,10.903 -11.489,11.911 -2.015,0.242 -3.886,0.484 -5.621,0.726 -1.734,0.238 -3.75,0.524 -6.047,0.844 -7.617,1.051 -13.421,3.828 -17.41,8.344 -3.992,4.554 -5.988,10.035 -5.988,16.445 0,7.496 2.5,13.664 7.5,18.5 5.035,4.836 12.109,7.254 21.219,7.254 5.441,0 10.562,-0.863 15.359,-2.598 4.793,-1.734 9.207,-3.93 13.238,-6.59 l -7.437,-11.004 c -3.223,2.016 -6.688,3.649 -10.398,4.899 -3.708,1.246 -7.497,1.871 -11.368,1.871 -4.109,0 -7.597,-1.047 -10.457,-3.141 -2.863,-2.097 -4.293,-5.242 -4.293,-9.433 0,-2.5 0.969,-4.836 2.903,-7.012 1.933,-2.176 5.136,-3.609 9.613,-4.293 1.168,-0.203 2.578,-0.426 4.23,-0.664 1.653,-0.203 3.547,-0.426 5.684,-0.668 8.223,-1.008 14.289,-3.988 18.199,-8.945 3.949,-4.961 5.926,-10.442 5.926,-16.446 0,-8.101 -2.805,-14.39 -8.406,-18.863 -5.602,-4.476 -13.117,-6.711 -22.551,-6.711 -13.262,0 -24.484,4.031 -33.676,12.09 z" /><path
         id="path3755"
         style="fill:#000000;fill-opacity:1;fill-rule:nonzero;stroke:none"
         d="m 177.383,358.367 9.308,-8.344 c -2.742,-3.144 -6.003,-5.742 -9.793,-7.796 -3.75,-2.016 -8,-3.024 -12.757,-3.024 -7.254,0 -13.825,2.457 -19.711,7.375 -5.844,4.957 -8.766,13.18 -8.766,24.668 0,11.488 2.922,19.711 8.766,24.668 5.886,4.996 12.457,7.496 19.711,7.496 4.757,0 9.007,-1.027 12.757,-3.082 3.79,-2.058 7.051,-4.656 9.793,-7.801 l -9.308,-8.281 c -3.547,4.352 -7.801,6.527 -12.758,6.527 -10.883,0 -16.324,-6.507 -16.324,-19.527 0,-12.98 5.441,-19.469 16.324,-19.469 4.996,0 9.25,2.196 12.758,6.59 z" /><path
         id="path3757"
         style="fill:#000000;fill-opacity:1;fill-rule:nonzero;stroke:none"
         d="m 200.457,339.93 0,88.086 12.637,0 0,-32.043 0.242,0 c 3.91,4.957 9.352,7.437 16.324,7.437 4.875,0 9.57,-1.855 14.086,-5.562 4.555,-3.707 6.832,-9.11 6.832,-16.203 l 0,-41.715 -12.637,0 0,37.363 c 0,4.23 -1.187,7.535 -3.566,9.914 -2.34,2.379 -5.262,3.566 -8.766,3.566 -3.629,0 -6.632,-1.187 -9.007,-3.566 -2.34,-2.379 -3.508,-5.684 -3.508,-9.914 l 0,-37.363 -12.637,0 z" /><path
         id="path3759"
         style="fill:#000000;fill-opacity:1;fill-rule:nonzero;stroke:none"
         d="m 269.145,371.367 c 0,6.731 0.523,11.75 1.57,15.055 1.047,3.305 2.781,6.285 5.199,8.945 1.734,1.895 4.113,3.711 7.137,5.442 3.062,1.734 7.051,2.601 11.969,2.601 4.835,0 8.785,-0.867 11.851,-2.601 3.063,-1.731 5.461,-3.547 7.195,-5.442 2.418,-2.66 4.149,-5.64 5.2,-8.945 1.047,-3.305 1.57,-8.324 1.57,-15.055 0,-6.851 -0.523,-11.929 -1.57,-15.234 -1.051,-3.309 -2.782,-6.289 -5.2,-8.949 -1.734,-1.934 -4.132,-3.75 -7.195,-5.442 -3.066,-1.695 -7.016,-2.539 -11.851,-2.539 -4.918,0 -8.907,0.844 -11.969,2.539 -3.024,1.692 -5.403,3.508 -7.137,5.442 -2.418,2.66 -4.152,5.64 -5.199,8.949 -1.047,3.305 -1.57,8.383 -1.57,15.234 z m 39.117,-0.121 c 0,4.555 -0.242,7.758 -0.727,9.613 -0.445,1.852 -1.23,3.625 -2.359,5.321 -2.215,3.062 -5.602,4.593 -10.156,4.593 -4.637,0 -8.02,-1.531 -10.157,-4.593 -1.211,-1.696 -2.035,-3.469 -2.48,-5.321 -0.403,-1.855 -0.602,-5.019 -0.602,-9.492 0,-4.594 0.199,-7.84 0.602,-9.734 0.445,-1.856 1.269,-3.61 2.48,-5.262 2.137,-3.062 5.52,-4.594 10.157,-4.594 4.554,0 7.941,1.532 10.156,4.594 1.129,1.652 1.914,3.406 2.359,5.262 0.485,1.855 0.727,5.058 0.727,9.613 z" /><path
         id="path3761"
         style="fill:#000000;fill-opacity:1;fill-rule:nonzero;stroke:none"
         d="m 342.488,402.684 0,19.046 12.637,0 0,-19.046 9.191,0 0,-9.672 -9.191,0 0,-36.52 c 0,-3.14 1.492,-4.715 4.473,-4.715 l 4.718,0 0,-11.847 -6.589,0 c -4.395,0 -8.043,1.328 -10.946,3.988 -2.859,2.66 -4.293,6.469 -4.293,11.426 l 0,37.668 -6.285,0 0,9.672 6.285,0 z" /><path
         id="path3763"
         style="fill:#000000;fill-opacity:1;fill-rule:nonzero;stroke:none"
         d="m 382.77,402.684 0,19.046 12.636,0 0,-19.046 9.188,0 0,-9.672 -9.188,0 0,-36.52 c 0,-3.14 1.489,-4.715 4.473,-4.715 l 4.715,0 0,-11.847 -6.59,0 c -4.395,0 -8.039,1.328 -10.941,3.988 -2.864,2.66 -4.293,6.469 -4.293,11.426 l 0,37.668 -6.29,0 0,9.672 6.29,0 z" /><path
         id="path3765"
         style="fill:#000000;fill-opacity:1;fill-rule:nonzero;stroke:none"
         d="m 471.652,366.531 -39.054,0 c 0,-5.16 1.39,-9.031 4.168,-11.609 2.824,-2.578 6.41,-3.871 10.761,-3.871 5.203,0 9.797,2.015 13.786,6.047 l 9.128,-7.797 c -3.101,-3.629 -6.609,-6.231 -10.519,-7.801 -3.867,-1.531 -7.918,-2.297 -12.152,-2.297 -6.45,0 -12.696,2.074 -18.743,6.227 -6.043,4.191 -9.066,12.738 -9.066,25.633 0,12.214 2.781,20.66 8.344,25.332 5.601,4.675 11.445,7.015 17.531,7.015 6.894,0 12.918,-2.398 18.078,-7.195 5.16,-4.758 7.738,-11.184 7.738,-19.285 l 0,-10.399 z m -39.054,10.399 26.48,0 c -0.203,4.715 -1.531,8.32 -3.992,10.82 -2.457,2.5 -5.543,3.75 -9.25,3.75 -3.746,0 -6.871,-1.25 -9.371,-3.75 -2.457,-2.5 -3.746,-6.105 -3.867,-10.82 z" /><path
         id="path3767"
         style="fill:#000000;fill-opacity:1;fill-rule:nonzero;stroke:none"
         d="m 491.816,339.93 0,62.754 12.637,0 0,-6.711 0.242,0 c 3.91,4.957 9.352,7.437 16.325,7.437 4.878,0 9.574,-1.855 14.085,-5.562 4.555,-3.707 6.833,-9.11 6.833,-16.203 l 0,-41.715 -12.637,0 0,37.363 c 0,4.23 -1.188,7.535 -3.567,9.914 -2.336,2.379 -5.257,3.566 -8.765,3.566 -3.629,0 -6.629,-1.187 -9.008,-3.566 -2.34,-2.379 -3.508,-5.684 -3.508,-9.914 l 0,-37.363 -12.637,0 z" /></g></g></svg>