<?xml version="1.0" encoding="UTF-8" standalone="no"?>
<svg
   xmlns:dc="http://purl.org/dc/elements/1.1/"
   xmlns:cc="http://creativecommons.org/ns#"
   xmlns:rdf="http://www.w3.org/1999/02/22-rdf-syntax-ns#"
   xmlns:svg="http://www.w3.org/2000/svg"
   xmlns="http://www.w3.org/2000/svg"
   viewBox="0 0 900 600"
   height="600"
   width="900"
   xml:space="preserve"
   version="1.1"
   id="svg3650"><metadata
     id="metadata3656"><rdf:RDF><cc:Work
         rdf:about=""><dc:format>image/svg+xml</dc:format><dc:type
           rdf:resource="http://purl.org/dc/dcmitype/StillImage" /><dc:title></dc:title></cc:Work></rdf:RDF></metadata><defs
     id="defs3654" /><g
     transform="matrix(1.25,0,0,-1.25,0,600)"
     id="g3658"><g
       id="g3660"><path
         id="path3662"
         style="fill:#f0c900;fill-opacity:1;fill-rule:evenodd;stroke:none"
         d="m 30,480 c 0,0 -29.977,0.008 -30,-30 L 0,30 C 0,30 -0.082,0 30,0 l 660,0 c 30.082,0 30,30 30,30 l 0,420 c -0.023,30.008 -30,30 -30,30 l -660,0 z" /><path
         id="path3664"
         style="fill:#000000;fill-opacity:1;fill-rule:evenodd;stroke:none"
         d="M 30,472 C 30,472 8.012,471.961 8,450 L 8,30 C 8,30 7.992,7.98 30,8 l 660.074,0 c 22.008,-0.02 22,22 22,22 l 0,420 c -0.011,21.961 -22,22 -22,22 L 30,472 Z m 0,-12 660.074,0 c 0,0 9.942,-0.004 9.961,-10 0.891,-137.652 0.176,-420 0.176,-420 -0.035,-9.73 -10.137,-10 -10.137,-10 L 30,20 c 0,0 -10.102,0.27 -10.141,10 0,0 -0.711,282.348 0.18,420 0.016,9.996 9.961,10 9.961,10 z" /><path
         id="path3666"
         style="fill:#000000;fill-opacity:1;fill-rule:nonzero;stroke:none"
         d="m 82.246,122.133 0,56.601 8.586,0 0,-29.175 0.195,0 23.27,29.175 10.215,0 -18.141,-22.336 20.047,-34.265 -10.18,0 -15.461,27.66 -9.945,-10.41 0,-17.25 -8.586,0 z m 51.817,0 0,40.324 8.117,0 0,-4.312 0.156,0 c 2.512,3.187 6.008,4.781 10.488,4.781 2.953,0 5.762,-1.039 8.43,-3.11 l -5.867,-6.992 c -1.758,1.321 -3.547,1.981 -5.36,1.981 -1.996,0 -3.8,-0.668 -5.418,-2 -1.621,-1.336 -2.429,-3.477 -2.429,-6.43 l 0,-24.242 -8.117,0 z m 64.476,17.094 -25.094,0 c 0,-3.317 0.899,-5.801 2.7,-7.461 1.8,-1.657 4.097,-2.485 6.894,-2.485 3.34,0 6.293,1.293 8.859,3.883 l 5.864,-5.008 c -1.992,-2.332 -4.239,-3.996 -6.739,-4.992 -2.5,-1 -5.109,-1.496 -7.828,-1.496 -4.144,0 -8.16,1.34 -12.043,4.02 -3.886,2.679 -5.828,8.164 -5.828,16.453 0,7.847 1.793,13.273 5.379,16.277 3.59,3.004 7.336,4.508 11.25,4.508 4.426,0 8.297,-1.535 11.613,-4.606 3.317,-3.07 4.973,-7.207 4.973,-12.41 l 0,-6.683 z m -25.094,6.683 17.016,0 c -0.133,3.028 -0.984,5.348 -2.566,6.953 -1.579,1.606 -3.559,2.407 -5.942,2.407 -2.41,0 -4.41,-0.801 -6.004,-2.407 -1.594,-1.605 -2.429,-3.925 -2.504,-6.953 z m 36.196,-23.777 0,40.324 8.121,0 0,-40.324 -8.121,0 z m 0,48.484 0,8.117 8.121,0 0,-8.117 -8.121,0 z m 16.734,-41.762 5.672,5.594 c 3.523,-3.445 7.758,-5.168 12.703,-5.168 2.305,0 4.207,0.434 5.711,1.301 1.504,0.867 2.254,2.156 2.254,3.867 0,2.356 -1.645,3.676 -4.934,3.961 l -7.148,0.66 c -3.34,0.258 -6.113,1.36 -8.313,3.301 -2.203,1.945 -3.304,4.652 -3.304,8.121 0,4.094 1.437,7.188 4.312,9.285 2.875,2.098 6.449,3.149 10.723,3.149 3.523,0 6.539,-0.5 9.051,-1.496 2.511,-1 4.765,-2.325 6.761,-3.985 l -5.011,-5.902 c -1.606,1.086 -3.266,1.98 -4.973,2.68 -1.711,0.699 -3.652,1.047 -5.828,1.047 -2.59,0 -4.391,-0.457 -5.399,-1.379 -1.011,-0.918 -1.515,-2.078 -1.515,-3.477 0,-0.879 0.375,-1.695 1.125,-2.445 0.75,-0.754 2.148,-1.207 4.195,-1.36 l 6.684,-0.468 c 4.168,-0.286 7.16,-1.575 8.972,-3.864 1.813,-2.293 2.719,-5.031 2.719,-8.218 0,-3.961 -1.617,-7.02 -4.855,-9.168 -3.239,-2.149 -7.188,-3.223 -11.848,-3.223 -6.707,0 -12.625,2.395 -17.754,7.187 z" /><path
         id="path3668"
         style="fill:#000000;fill-opacity:1;fill-rule:nonzero;stroke:none"
         d="m 299.816,128.934 5.672,6.449 c 2.125,-1.707 4.575,-3.082 7.344,-4.117 2.77,-1.036 5.672,-1.555 8.703,-1.555 3.496,0 6.238,0.727 8.235,2.176 1.996,1.453 2.992,3.355 2.992,5.711 0,4.457 -2.461,7.007 -7.383,7.652 -1.293,0.156 -2.5,0.313 -3.613,0.469 -1.114,0.156 -2.407,0.336 -3.883,0.543 -4.895,0.672 -8.625,2.465 -11.188,5.379 -2.566,2.914 -3.847,6.429 -3.847,10.547 0,4.82 1.613,8.781 4.836,11.89 3.226,3.106 7.765,4.66 13.617,4.66 3.496,0 6.785,-0.558 9.867,-1.672 3.082,-1.113 5.918,-2.523 8.508,-4.234 l -4.778,-7.07 c -2.074,1.297 -4.3,2.343 -6.683,3.148 -2.383,0.801 -4.817,1.203 -7.301,1.203 -2.644,0 -4.883,-0.672 -6.723,-2.019 -1.839,-1.348 -2.757,-3.367 -2.757,-6.059 0,-1.605 0.621,-3.109 1.863,-4.508 1.246,-1.398 3.305,-2.316 6.18,-2.757 0.75,-0.129 1.656,-0.266 2.718,-0.411 1.063,-0.14 2.278,-0.289 3.653,-0.445 5.281,-0.648 9.187,-2.562 11.711,-5.75 2.523,-3.184 3.789,-6.707 3.789,-10.566 0,-5.203 -1.801,-9.246 -5.403,-12.121 -3.597,-2.875 -8.429,-4.313 -14.488,-4.313 -8.519,0 -15.734,2.59 -21.641,7.77 z m 52.707,33.023 0,12.234 8.122,0 0,-12.234 5.902,0 0,-6.215 -5.902,0 0,-23.465 c 0,-2.019 0.957,-3.031 2.875,-3.031 l 3.027,0 0,-7.613 -4.234,0 c -2.821,0 -5.161,0.855 -7.012,2.562 -1.852,1.711 -2.778,4.157 -2.778,7.344 l 0,24.203 -4.039,0 0,6.215 4.039,0 z m 55.157,-23.23 -25.098,0 c 0,-3.317 0.902,-5.801 2.699,-7.461 1.801,-1.657 4.102,-2.485 6.899,-2.485 3.34,0 6.293,1.293 8.855,3.883 l 5.867,-5.012 c -1.996,-2.328 -4.242,-3.992 -6.742,-4.992 -2.496,-0.996 -5.105,-1.496 -7.828,-1.496 -4.141,0 -8.156,1.344 -12.043,4.024 -3.883,2.679 -5.824,8.164 -5.824,16.453 0,7.843 1.793,13.269 5.379,16.273 3.586,3.008 7.336,4.508 11.246,4.508 4.43,0 8.301,-1.535 11.617,-4.602 3.313,-3.07 4.973,-7.207 4.973,-12.414 l 0,-6.679 z m -25.098,6.679 17.016,0 c -0.129,3.032 -0.985,5.348 -2.563,6.953 -1.582,1.606 -3.562,2.411 -5.945,2.411 -2.406,0 -4.41,-0.805 -6,-2.411 -1.594,-1.605 -2.43,-3.921 -2.508,-6.953 z m 36.199,-23.773 0,40.324 8.117,0 0,-40.324 -8.117,0 z m 0,48.48 0,8.121 8.117,0 0,-8.121 -8.117,0 z m 21.199,-48.48 0,40.324 8.122,0 0,-4.312 0.152,0 c 2.512,3.183 6.008,4.777 10.488,4.777 3.137,0 6.16,-1.192 9.074,-3.574 2.911,-2.383 4.368,-5.852 4.368,-10.41 l 0,-26.805 -8.118,0 0,24.008 c 0,2.718 -0.757,4.843 -2.273,6.371 -1.516,1.527 -3.398,2.293 -5.652,2.293 -2.332,0 -4.254,-0.766 -5.77,-2.293 -1.516,-1.528 -2.269,-3.653 -2.269,-6.371 l 0,-24.008 -8.122,0 z m 45.055,0 0,56.601 8.117,0 0,-20.589 c 1.504,1.421 3.09,2.578 4.758,3.457 1.672,0.878 3.555,1.32 5.653,1.32 2.46,0 4.585,-0.5 6.371,-1.496 1.789,-0.996 3.265,-2.246 4.429,-3.75 1.114,-1.449 1.871,-3.137 2.274,-5.067 0.402,-1.929 0.601,-5.355 0.601,-10.277 0,-4.973 -0.199,-8.434 -0.601,-10.391 -0.403,-1.957 -1.16,-3.644 -2.274,-5.07 -1.164,-1.527 -2.64,-2.777 -4.429,-3.75 -1.786,-0.969 -3.911,-1.457 -6.371,-1.457 -4.141,0 -7.614,1.555 -10.411,4.664 l 0,-4.195 -8.117,0 z m 16.082,32.672 c -3.808,0 -6.086,-1.364 -6.836,-4.082 -0.754,-2.719 -1.129,-5.516 -1.129,-8.391 0,-2.953 0.375,-5.789 1.129,-8.508 0.75,-2.719 3.028,-4.078 6.836,-4.078 3.809,0 6.094,1.309 6.856,3.922 0.765,2.617 1.148,5.504 1.148,8.664 0,3.082 -0.383,5.93 -1.148,8.547 -0.762,2.617 -3.047,3.926 -6.856,3.926 z m 27.571,-19.153 0,26.805 8.121,0 0,-24.047 c 0,-2.746 0.757,-4.875 2.273,-6.39 1.516,-1.516 3.438,-2.274 5.77,-2.274 2.25,0 4.136,0.758 5.652,2.274 1.512,1.515 2.269,3.644 2.269,6.39 l 0,24.047 8.122,0 0,-40.324 -8.122,0 0,4.273 -0.152,0 c -2.516,-3.16 -5.984,-4.742 -10.414,-4.742 -3.184,0 -6.234,1.188 -9.148,3.555 -2.914,2.371 -4.371,5.847 -4.371,10.433 z m 45.054,-13.519 0,40.324 8.121,0 0,-4.312 0.153,0 c 2.515,3.183 6.011,4.777 10.492,4.777 2.949,0 5.762,-1.035 8.43,-3.109 l -5.868,-6.993 c -1.761,1.321 -3.547,1.985 -5.359,1.985 -1.996,0 -3.801,-0.668 -5.422,-2.004 -1.617,-1.332 -2.426,-3.477 -2.426,-6.426 l 0,-24.242 -8.121,0 z m 55.891,0.039 0,4.156 c -2.82,-3.109 -6.293,-4.664 -10.41,-4.664 -2.641,0 -4.848,0.527 -6.621,1.574 -1.778,1.051 -3.118,2.157 -4.024,3.325 -1.164,1.5 -1.961,3.093 -2.387,4.777 -0.429,1.683 -0.64,5.32 -0.64,10.914 0,5.594 0.211,9.234 0.64,10.918 0.426,1.683 1.223,3.289 2.387,4.816 0.906,1.141 2.246,2.246 4.024,3.321 1.773,1.074 3.98,1.613 6.621,1.613 3.937,0 7.406,-1.594 10.41,-4.777 l 0,4.312 8.121,0 0,-39.391 c 0,-6.062 -1.77,-10.531 -5.305,-13.406 -3.535,-2.871 -7.594,-4.308 -12.176,-4.308 -2.589,0 -5.128,0.621 -7.613,1.863 -2.488,1.242 -4.625,2.875 -6.41,4.894 l 6.293,5.012 c 0.984,-0.984 2.156,-1.84 3.516,-2.562 1.359,-0.727 2.816,-1.09 4.371,-1.09 2.691,0 4.898,0.75 6.621,2.254 1.722,1.5 2.582,3.652 2.582,6.449 z m -15.965,20.082 c 0,-3.234 0.086,-5.387 0.254,-6.449 0.168,-1.059 0.613,-2.043 1.34,-2.95 0.543,-0.726 1.347,-1.425 2.406,-2.097 1.062,-0.676 2.41,-1.012 4.043,-1.012 1.578,0 2.894,0.336 3.941,1.012 1.051,0.672 1.86,1.371 2.43,2.097 0.699,0.907 1.133,1.891 1.301,2.95 0.168,1.062 0.25,3.215 0.25,6.449 0,3.238 -0.082,5.387 -0.25,6.449 -0.168,1.063 -0.602,2.059 -1.301,2.992 -0.57,0.7 -1.379,1.391 -2.43,2.078 -1.047,0.688 -2.363,1.032 -3.941,1.032 -1.633,0 -2.981,-0.344 -4.043,-1.032 -1.059,-0.687 -1.863,-1.378 -2.406,-2.078 -0.727,-0.933 -1.172,-1.929 -1.34,-2.992 -0.168,-1.062 -0.254,-3.211 -0.254,-6.449 z" /><path
         id="path3670"
         style="fill:#000000;fill-opacity:1;fill-rule:nonzero;stroke:none"
         d="m 103.754,243.09 -32.059,127.984 20.551,0 20.117,-91.004 0.352,0 24.855,91.004 13.969,0 24.859,-91.004 0.352,0 20.113,91.004 20.555,0 -32.059,-127.984 -16.164,0 -24.507,92.23 -0.352,0 -24.422,-92.23 -16.16,0 z" /><path
         id="path3672"
         style="fill:#000000;fill-opacity:1;fill-rule:nonzero;stroke:none"
         d="m 230.359,243.09 0,91.18 18.36,0 0,-91.18 -18.36,0 z m 0,109.625 0,18.359 18.36,0 0,-18.359 -18.36,0 z" /><path
         id="path3674"
         style="fill:#000000;fill-opacity:1;fill-rule:nonzero;stroke:none"
         d="m 277.688,265.137 0,105.937 18.359,0 0,-104.441 c 0,-4.219 2.285,-6.324 6.851,-6.324 l 6.235,0 0,-17.219 -8.082,0 c -6.672,0 -12.238,1.613 -16.688,4.832 -4.453,3.281 -6.675,9.016 -6.675,17.215 z" /><path
         id="path3676"
         style="fill:#000000;fill-opacity:1;fill-rule:nonzero;stroke:none"
         d="m 328.488,258.285 12.825,12.653 c 7.964,-7.79 17.539,-11.684 28.722,-11.684 5.211,0 9.516,0.965 12.914,2.898 3.395,1.993 5.094,4.918 5.094,8.786 0,5.324 -3.719,8.312 -11.156,8.957 l -16.164,1.496 c -7.551,0.582 -13.817,3.07 -18.793,7.464 -4.981,4.395 -7.469,10.508 -7.469,18.36 0,9.25 3.25,16.25 9.75,20.992 6.5,4.742 14.578,7.113 24.242,7.113 7.965,0 14.789,-1.14 20.469,-3.422 5.68,-2.226 10.777,-5.214 15.285,-8.964 l -11.336,-13.348 c -3.625,2.457 -7.375,4.477 -11.242,6.059 -3.863,1.582 -8.258,2.371 -13.176,2.371 -5.855,0 -9.926,-1.051 -12.211,-3.161 -2.281,-2.046 -3.422,-4.656 -3.422,-7.816 0,-1.992 0.848,-3.836 2.547,-5.531 1.699,-1.699 4.86,-2.727 9.485,-3.078 l 15.109,-1.051 c 9.43,-0.649 16.191,-3.574 20.293,-8.789 4.098,-5.152 6.148,-11.328 6.148,-18.531 0,-8.957 -3.66,-15.871 -10.98,-20.731 -7.32,-4.859 -16.25,-7.293 -26.793,-7.293 -15.164,0 -28.547,5.418 -40.141,16.25 z" /><path
         id="path3678"
         style="fill:#000000;fill-opacity:1;fill-rule:nonzero;stroke:none"
         d="m 433.285,334.27 0,27.668 18.36,0 0,-27.668 13.351,0 0,-14.055 -13.351,0 0,-53.059 c 0,-4.566 2.168,-6.847 6.5,-6.847 l 6.851,0 0,-17.219 -9.574,0 c -6.383,0 -11.684,1.933 -15.902,5.801 -4.153,3.863 -6.235,9.394 -6.235,16.601 l 0,54.723 -9.137,0 0,14.055 9.137,0 z" /><path
         id="path3680"
         style="fill:#000000;fill-opacity:1;fill-rule:nonzero;stroke:none"
         d="m 561.055,281.738 -56.742,0 c 0,-7.492 2.019,-13.117 6.058,-16.863 4.098,-3.75 9.313,-5.621 15.637,-5.621 7.551,0 14.23,2.926 20.023,8.785 l 13.27,-11.336 c -4.512,-5.265 -9.606,-9.047 -15.285,-11.328 -5.621,-2.227 -11.508,-3.34 -17.657,-3.34 -9.371,0 -18.445,3.016 -27.234,9.051 -8.781,6.09 -13.176,18.5 -13.176,37.242 0,17.746 4.043,30.012 12.125,36.809 8.141,6.789 16.633,10.183 25.473,10.183 10.012,0 18.769,-3.48 26.266,-10.453 7.496,-6.91 11.242,-16.246 11.242,-28.019 l 0,-15.11 z m -56.742,15.11 38.472,0 c -0.293,6.851 -2.226,12.093 -5.801,15.726 -3.566,3.629 -8.05,5.442 -13.437,5.442 -5.445,0 -9.984,-1.813 -13.617,-5.442 -3.571,-3.633 -5.442,-8.875 -5.617,-15.726 z" /><path
         id="path3682"
         style="fill:#000000;fill-opacity:1;fill-rule:nonzero;stroke:none"
         d="m 586.816,243.09 0,91.18 18.36,0 0,-9.754 0.351,0 c 5.684,7.207 13.59,10.804 23.715,10.804 6.68,0 13.035,-2.34 19.063,-7.023 l -13.262,-15.813 c -3.984,2.989 -8.023,4.481 -12.125,4.481 -4.508,0 -8.602,-1.524 -12.293,-4.567 -3.633,-2.988 -5.449,-7.82 -5.449,-14.496 l 0,-54.812 -18.36,0 z" /></g></g></svg>