<?xml version="1.0" encoding="UTF-8" standalone="no"?>
<svg
   xmlns:dc="http://purl.org/dc/elements/1.1/"
   xmlns:cc="http://creativecommons.org/ns#"
   xmlns:rdf="http://www.w3.org/1999/02/22-rdf-syntax-ns#"
   xmlns:svg="http://www.w3.org/2000/svg"
   xmlns="http://www.w3.org/2000/svg"
   viewBox="0 0 847.15863 743.62268"
   height="743.62268"
   width="847.15863"
   xml:space="preserve"
   version="1.1"
   id="svg7417"><metadata
     id="metadata7423"><rdf:RDF><cc:Work
         rdf:about=""><dc:format>image/svg+xml</dc:format><dc:type
           rdf:resource="http://purl.org/dc/dcmitype/StillImage" /><dc:title></dc:title></cc:Work></rdf:RDF></metadata><defs
     id="defs7421" /><g
     transform="matrix(1.25,0,0,-1.25,0,743.62267)"
     id="g7425"><g
       id="g7427"><path
         id="path7429"
         style="fill:#ffffff;fill-opacity:1;fill-rule:nonzero;stroke:none"
         d="m 338.867,594.5 c -7.512,0 -15.027,-2.867 -20.758,-8.598 -1.879,-1.879 -3.445,-3.953 -4.707,-6.152 l -15.246,-26.157 -0.07,0 L 4.984,45.554 C 4.93,45.457 4.887,45.359 4.832,45.261 3.344,42.867 2.176,40.218 1.406,37.351 -2.789,21.695 6.504,5.597 22.164,1.402 c 2.586,-0.695 5.184,-1.012 7.738,-1 l 618.067,0 c 16.215,0 29.355,13.141 29.355,29.356 0,5.304 -1.414,10.281 -3.879,14.578 -0.019,0.031 -0.035,0.062 -0.05,0.097 l -304.368,528.41 c -3.863,6.665 -5.652,9.305 -9.406,13.059 -5.73,5.731 -13.242,8.598 -20.754,8.598 z" /><path
         id="path7431"
         style="fill:#c1121c;fill-opacity:1;fill-rule:nonzero;stroke:none"
         d="m 338.867,587.144 c -7.125,0.051 -14.949,-3.59 -18.781,-10.406 L 10.793,40.847 C 9.008,37.199 8.258,34.027 8.234,30.398 c 0,-6.496 2.875,-12.66 7.848,-16.84 4.383,-3.394 8.535,-5.16 14.121,-5.16 l 617.906,0 c 3.77,-0.035 7.547,0.871 10.977,3.133 6.453,3.898 10.402,10.883 10.41,18.426 -0.183,3.894 -1.144,8 -2.879,10.89 L 357.504,576.828 c -0.027,0.047 -0.059,0.094 -0.09,0.14 -0.031,0.047 -0.062,0.094 -0.094,0.145 -1.097,1.754 -2.472,3.305 -4.039,4.633 -3.59,3.109 -8.086,4.976 -12.824,5.316 -0.531,0.047 -1.062,0.078 -1.59,0.082 z M 30.203,8.398 l -1.523,0 1.554,0 -0.031,0 z M 338.547,480.933 574.25,72.398 l -471.738,0 236.035,408.535 z" /><path
         id="path7433"
         style="fill:#000000;fill-opacity:1;fill-rule:nonzero;stroke:none"
         d="m 338.867,594.898 c -7.617,0 -15.23,-2.906 -21.039,-8.715 -1.906,-1.902 -3.492,-4.008 -4.773,-6.234 l -15.129,-25.957 -0.071,0 L 4.641,45.754 C 4.574,45.636 4.527,45.535 4.48,45.453 2.977,43.031 1.797,40.351 1.02,37.457 -3.23,21.586 6.191,5.269 22.059,1.015 24.68,0.312 27.316,-0.008 29.902,0 l 618.067,0 c 16.429,0 29.758,13.328 29.758,29.758 0,5.375 -1.438,10.417 -3.934,14.773 -0.012,0.019 -0.027,0.051 -0.051,0.098 L 369.379,573.043 c -3.871,6.668 -5.695,9.363 -9.469,13.14 -5.808,5.809 -13.426,8.715 -21.039,8.715 l -0.004,0 z m 0,-0.398 c 7.512,0 15.024,-2.867 20.754,-8.598 3.754,-3.754 5.543,-6.394 9.406,-13.059 L 673.391,44.433 c 0.019,-0.035 0.035,-0.066 0.054,-0.097 2.465,-4.297 3.879,-9.274 3.879,-14.578 0,-16.215 -13.14,-29.356 -29.355,-29.356 l -618.067,0 C 27.348,0.39 24.75,0.707 22.164,1.402 6.504,5.597 -2.789,21.695 1.406,37.351 c 0.766,2.867 1.938,5.516 3.426,7.91 0.055,0.098 0.098,0.196 0.152,0.293 l 293.102,508.039 0.07,0 15.246,26.157 c 1.262,2.199 2.828,4.273 4.707,6.152 5.731,5.731 13.243,8.598 20.758,8.598 z" /><path
         id="path7435"
         style="fill:#000000;fill-opacity:1;fill-rule:nonzero;stroke:none"
         d="m 446.473,105.968 c -25.481,-6.589 -51.481,8.75 -58.055,34.227 l 49.117,0 c 0.848,0 1.668,0.152 2.438,0.508 2.996,1.344 4.351,4.879 2.996,7.871 l -21.977,49.211 c 0.543,0.156 1.098,0.308 1.653,0.449 25.476,6.602 51.48,-8.734 58.054,-34.23 6.59,-25.477 -8.75,-51.461 -34.226,-58.036 z m -36.391,87.016 18.273,-40.891 -41.449,0 c 0,16.774 8.813,32.282 23.176,40.891 z m -35.09,-40.891 -11.914,0 29.785,79.442 12.344,-27.61 c -18.672,-10.57 -30.215,-30.367 -30.215,-51.832 z m -24.398,0.633 -74.594,82.758 105.629,0 -31.035,-82.758 z m -63.239,-20.308 c -10.863,-23.95 -39.101,-34.598 -63.082,-23.735 -23.964,10.879 -34.597,39.106 -23.718,63.086 8.98,19.828 30.261,31.047 51.679,27.266 l -13.98,-45.184 c -0.973,-3.133 0.785,-6.465 3.934,-7.437 3.148,-0.973 6.484,0.785 7.457,3.918 l 13.98,45.168 c 23.98,-10.864 34.598,-39.102 23.73,-63.082 z m 203.836,38.144 c -10.183,31.281 -43.808,48.363 -75.089,38.164 l -17.282,38.672 4.457,11.926 13.411,0 0,11.914 -50.629,0 c -1.375,0 -2.563,-0.957 -2.887,-2.281 -0.402,-1.59 0.601,-3.211 2.191,-3.614 l 25.2,-6.019 -4.461,-11.926 -106.414,0 4.785,15.445 c 1.543,4.985 6.156,8.395 11.371,8.395 l 19.582,0 0,11.898 -19.582,0 c -10.446,0 -19.66,-6.804 -22.762,-16.757 l -17.297,-55.895 c -27.762,5.617 -55.648,-9.074 -66.695,-35.168 -12.824,-30.293 1.344,-65.258 31.633,-78.066 30.308,-12.825 65.261,1.328 78.086,31.617 12.824,30.324 -1.344,65.262 -31.637,78.101 l 4.723,15.278 70.429,-78.117 c 2.254,-2.5 5.477,-3.934 8.86,-3.934 l 25.011,0 c 0.465,-2.223 1.035,-4.414 1.731,-6.559 10.199,-31.281 43.808,-48.378 75.09,-38.16 31.277,10.184 48.359,43.809 38.175,75.086" /></g></g></svg>