<?xml version="1.0" encoding="UTF-8" standalone="no"?>
<svg
   xmlns:dc="http://purl.org/dc/elements/1.1/"
   xmlns:cc="http://creativecommons.org/ns#"
   xmlns:rdf="http://www.w3.org/1999/02/22-rdf-syntax-ns#"
   xmlns:svg="http://www.w3.org/2000/svg"
   xmlns="http://www.w3.org/2000/svg"
   id="svg3461"
   version="1.1"
   xml:space="preserve"
   width="600.995"
   height="600.995"
   viewBox="0 0 600.995 600.995"><metadata
     id="metadata3467"><rdf:RDF><cc:Work
         rdf:about=""><dc:format>image/svg+xml</dc:format><dc:type
           rdf:resource="http://purl.org/dc/dcmitype/StillImage" /><dc:title></dc:title></cc:Work></rdf:RDF></metadata><defs
     id="defs3465" /><g
     id="g3469"
     transform="matrix(1.25,0,0,-1.25,0,600.99499)"><g
       id="g3471"><path
         d="m 480.398,240.398 c 0,-132.551 -107.449,-240 -240,-240 -132.55,0 -240,107.449 -240,240 0,132.55 107.45,240 240,240 132.551,0 240,-107.45 240,-240 z"
         style="fill:#ffffff;fill-opacity:1;fill-rule:nonzero;stroke:none"
         id="path3473" /><path
         d="M 240.398,480.796 C 107.633,480.796 0,373.163 0,240.398 0,107.632 107.633,-0.001 240.398,-0.001 c 132.766,0 240.399,107.633 240.399,240.399 0,132.765 -107.633,240.398 -240.399,240.398 z m 0,-0.398 c 132.551,0 240,-107.45 240,-240 0,-132.551 -107.449,-240 -240,-240 -132.55,0 -240,107.449 -240,240 0,132.55 107.45,240 240,240 z"
         style="fill:#000000;fill-opacity:1;fill-rule:nonzero;stroke:none"
         id="path3475" /><path
         d="m 240.398,472.398 c -127.746,0 -232,-104.254 -232,-232 0,-127.747 104.254,-232 232,-232 127.747,0 232,104.253 232,232 0,127.746 -104.253,232 -232,232 z m 0,-64.321 c 92.989,0 167.68,-74.691 167.68,-167.679 0,-92.989 -74.691,-167.68 -167.68,-167.68 -92.988,0 -167.679,74.691 -167.679,167.68 0,92.988 74.691,167.679 167.679,167.679 z"
         style="fill:#c1121c;fill-opacity:1;fill-rule:nonzero;stroke:none"
         id="path3477" /><path
         d="m 23.832,456.511 0,-0.024 -0.023,0 0.023,0.024 z"
         style="fill:#000000;fill-opacity:1;fill-rule:nonzero;stroke:none"
         id="path3479" /><path
         d="m 23.809,456.511 0.023,0 0,-0.023 -0.023,0 0,0.023 z"
         style="fill:#000000;fill-opacity:1;fill-rule:nonzero;stroke:none"
         id="path3481" /><path
         d="m 23.809,456.487 0,0.024 0.023,-0.024 -0.023,0 z m 0.023,0 -0.023,0.024 0,-0.024 0.023,0 z"
         style="fill:#000000;fill-opacity:1;fill-rule:nonzero;stroke:none"
         id="path3483" /><path
         d="m 23.859,456.487 -0.05,0 0.023,0 0,0.024 0.027,-0.024 z"
         style="fill:#000000;fill-opacity:1;fill-rule:nonzero;stroke:none"
         id="path3485" /><path
         d="m 23.809,456.487 0,0.024 0,-0.024 0.023,0.024 -0.023,-0.024 z"
         style="fill:#000000;fill-opacity:1;fill-rule:nonzero;stroke:none"
         id="path3487" /><path
         d="m 23.809,456.511 0.023,0 0,-0.023 -0.023,0 0,0.023 z"
         style="fill:#000000;fill-opacity:1;fill-rule:nonzero;stroke:none"
         id="path3489" /><path
         d="m 23.859,456.511 0,-0.047 -0.05,0 0.05,0.047 z"
         style="fill:#000000;fill-opacity:1;fill-rule:nonzero;stroke:none"
         id="path3491" /><path
         d="m 23.809,456.511 0.051,0 0,-0.047 -0.051,0 0,0.047 z"
         style="fill:#000000;fill-opacity:1;fill-rule:nonzero;stroke:none"
         id="path3493" /><path
         d="m 23.809,456.464 0,0.047 0.05,-0.047 -0.05,0 z m 0.05,0 -0.05,0.047 0,-0.047 0.05,0 z"
         style="fill:#000000;fill-opacity:1;fill-rule:nonzero;stroke:none"
         id="path3495" /><path
         d="m 23.859,456.464 -0.05,0 0.023,0 0,0.047 0.027,-0.047 z"
         style="fill:#000000;fill-opacity:1;fill-rule:nonzero;stroke:none"
         id="path3497" /><path
         d="m 23.809,456.464 0,0.047 0,-0.047 0.05,0.047 -0.05,-0.047 z"
         style="fill:#000000;fill-opacity:1;fill-rule:nonzero;stroke:none"
         id="path3499" /><path
         d="m 23.809,456.511 0.051,0 0,-0.047 -0.051,0 0,0.047 z"
         style="fill:#000000;fill-opacity:1;fill-rule:nonzero;stroke:none"
         id="path3501" /><path
         d="m 23.859,456.511 0,-0.047 -0.05,0 0.05,0.047 z"
         style="fill:#000000;fill-opacity:1;fill-rule:nonzero;stroke:none"
         id="path3503" /><path
         d="m 23.809,456.511 0.051,0 0,-0.047 -0.051,0 0,0.047 z"
         style="fill:#000000;fill-opacity:1;fill-rule:nonzero;stroke:none"
         id="path3505" /><path
         d="m 23.809,456.464 0,0.047 0.05,-0.047 -0.05,0 z m 0.05,0 -0.05,0.047 0,-0.047 0.05,0 z"
         style="fill:#000000;fill-opacity:1;fill-rule:nonzero;stroke:none"
         id="path3507" /><path
         d="m 23.859,456.464 -0.05,0 0.023,0 0,0.047 0.027,-0.047 z"
         style="fill:#000000;fill-opacity:1;fill-rule:nonzero;stroke:none"
         id="path3509" /><path
         d="m 23.809,456.464 0,0.047 0,-0.047 0.05,0.047 -0.05,-0.047 z"
         style="fill:#000000;fill-opacity:1;fill-rule:nonzero;stroke:none"
         id="path3511" /><path
         d="m 23.809,456.511 0.051,0 0,-0.047 -0.051,0 0,0.047 z"
         style="fill:#000000;fill-opacity:1;fill-rule:nonzero;stroke:none"
         id="path3513" /><path
         d="m 23.859,456.511 0,-0.047 -0.05,0 0.05,0.047 z"
         style="fill:#000000;fill-opacity:1;fill-rule:nonzero;stroke:none"
         id="path3515" /><path
         d="m 23.809,456.511 0.051,0 0,-0.047 -0.051,0 0,0.047 z"
         style="fill:#000000;fill-opacity:1;fill-rule:nonzero;stroke:none"
         id="path3517" /><path
         d="m 23.809,456.464 0,0.047 0.05,-0.047 -0.05,0 z m 0.05,0 -0.05,0.047 0,-0.047 0.05,0 z"
         style="fill:#000000;fill-opacity:1;fill-rule:nonzero;stroke:none"
         id="path3519" /><path
         d="m 23.859,456.464 -0.05,0 0.023,0 0,0.047 0.027,-0.047 z"
         style="fill:#000000;fill-opacity:1;fill-rule:nonzero;stroke:none"
         id="path3521" /><path
         d="m 23.809,456.464 0,0.047 0,-0.047 0.05,0.047 -0.05,-0.047 z"
         style="fill:#000000;fill-opacity:1;fill-rule:nonzero;stroke:none"
         id="path3523" /><path
         d="m 23.809,456.511 0.051,0 0,-0.047 -0.051,0 0,0.047 z"
         style="fill:#000000;fill-opacity:1;fill-rule:nonzero;stroke:none"
         id="path3525" /></g></g><g
     transform="matrix(0.85551032,0,0,0.85551032,-9.62424,-14.28532)"
     id="g1875" /><g
     transform="translate(0.545735,0)"
     id="g3532"><path
       d="m 256.70784,379.1926 26.7086,-0.12448 0,27.34164 -26.68015,19.68115 -0.0285,-46.89831 z"
       style="fill:#000000;fill-opacity:1;fill-rule:evenodd;stroke:none;stroke-width:1px;stroke-linecap:butt;stroke-linejoin:miter;stroke-opacity:1"
       id="path1910" /><g
       style="font-style:normal;font-weight:normal;font-size:320.33425903px;line-height:125%;font-family:sans-serif;letter-spacing:0px;word-spacing:0px;fill:#000000;fill-opacity:1;stroke:none;stroke-width:1px;stroke-linecap:butt;stroke-linejoin:miter;stroke-opacity:1"
       id="text3506"><path
         d="m 240.16098,177.11735 -93.5376,0 0,123.00836 28.83008,0 c 1.92201,-3.84402 5.44568,-12.49304 16.65738,-12.49304 8.96936,0 15.37605,7.36769 15.37605,16.33705 l 0,53.49582 c 0,10.57103 -5.76602,16.97771 -15.37605,16.97771 -9.61003,0 -16.65738,-6.40668 -16.65738,-17.61838 l 0,-8.32869 -32.67409,0 0,9.61003 c 0,30.43175 22.74373,49.01114 48.6908,49.01114 25.94708,0 48.69081,-18.57939 48.69081,-49.01114 l 0,-58.94151 c 0,-26.26741 -15.37604,-40.36211 -37.47911,-40.36211 -11.53203,0 -21.14206,4.80501 -27.22841,10.57103 l 0,-61.50418 64.70752,0 0,-30.75209 z"
         style="font-style:normal;font-variant:normal;font-weight:normal;font-stretch:normal;font-family:'DIN 1451 Std';-inkscape-font-specification:'DIN 1451 Std';fill:#000000"
         id="path3524" /></g><g
       style="font-style:normal;font-weight:normal;font-size:250.69638062px;line-height:125%;font-family:sans-serif;letter-spacing:0px;word-spacing:0px;fill:#000000;fill-opacity:1;stroke:none;stroke-width:1px;stroke-linecap:butt;stroke-linejoin:miter;stroke-opacity:1"
       id="text3515"><path
         d="m 379.96664,227.11737 -73.20334,0 0,96.26741 22.56267,0 c 1.50418,-3.00836 4.26184,-9.77716 13.03621,-9.77716 7.0195,0 12.03343,5.76601 12.03343,12.78551 l 0,41.8663 c 0,8.27298 -4.51254,13.28691 -12.03343,13.28691 -7.52089,0 -13.03621,-5.01393 -13.03621,-13.7883 l 0,-6.51811 -25.57103,0 0,7.52089 c 0,23.81616 17.79944,38.35655 38.10585,38.35655 20.30641,0 38.10585,-14.54039 38.10585,-38.35655 l 0,-46.12813 c 0,-20.55711 -12.03343,-31.58775 -29.33148,-31.58775 -9.02507,0 -16.54596,3.76045 -21.30919,8.27298 l 0,-48.1337 50.64067,0 0,-24.06685 z"
         style="font-style:normal;font-variant:normal;font-weight:normal;font-stretch:normal;font-family:'DIN 1451 Std';-inkscape-font-specification:'DIN 1451 Std';fill:#000000"
         id="path3527" /></g><g
       style="font-style:normal;font-weight:normal;font-size:250.69638062px;line-height:125%;font-family:sans-serif;letter-spacing:0px;word-spacing:0px;fill:#000000;fill-opacity:1;stroke:none;stroke-width:1px;stroke-linecap:butt;stroke-linejoin:miter;stroke-opacity:1"
       id="text3519"><path
         d="m 415.76051,278.51012 -12.78552,0 0,20.05572 12.78552,0 0,77.21448 c 0,13.5376 7.77159,29.83287 30.83566,29.83287 l 10.52924,0 0,-24.06685 c -11.28133,0 -15.79387,-0.75209 -15.79387,-12.53482 l 0,-70.44568 15.79387,0 0,-20.05572 -15.79387,0 0,-38.60724 -25.57103,0 0,38.60724 z"
         style="font-style:normal;font-variant:normal;font-weight:normal;font-stretch:normal;font-family:'DIN 1451 Std';-inkscape-font-specification:'DIN 1451 Std';fill:#000000"
         id="path3530" /></g></g></svg>