<?xml version="1.0" encoding="UTF-8" standalone="no"?>
<svg
   xmlns:dc="http://purl.org/dc/elements/1.1/"
   xmlns:cc="http://creativecommons.org/ns#"
   xmlns:rdf="http://www.w3.org/1999/02/22-rdf-syntax-ns#"
   xmlns:svg="http://www.w3.org/2000/svg"
   xmlns="http://www.w3.org/2000/svg"
   viewBox="0 0 1752 452"
   height="452"
   width="1752"
   xml:space="preserve"
   version="1.1"
   id="svg9784"><metadata
     id="metadata9790"><rdf:RDF><cc:Work
         rdf:about=""><dc:format>image/svg+xml</dc:format><dc:type
           rdf:resource="http://purl.org/dc/dcmitype/StillImage" /><dc:title></dc:title></cc:Work></rdf:RDF></metadata><defs
     id="defs9788" /><g
     transform="matrix(1.25,0,0,-1.25,0,452.00001)"
     id="g9792"><g
       id="g9794"><path
         id="path9796"
         style="fill:#ffffff;fill-opacity:1;fill-rule:nonzero;stroke:none"
         d="m 40.398,360.401 c -22.089,0 -40,-17.91 -40,-40 l 0,-280 c 0,-22.094 17.911,-40 40,-40 l 1058.7,0 c 28.386,0 56.351,7.515 80.89,21.691 l 193.676,111.938 c 16.504,9.55 26.734,27.3 26.734,46.359 0,19.07 -10.23,36.828 -26.734,46.332 l -193.676,111.957 c -24.566,14.203 -52.531,21.723 -80.89,21.723 l -1058.7,0 z" /><path
         id="path9798"
         style="fill:#154889;fill-opacity:1;fill-rule:evenodd;stroke:none"
         d="m 48.398,336.401 c -13.253,0 -24,-10.746 -24,-24 l 0,-264 c 0,-13.254 10.747,-24 24,-24 l 1053.258,0 c 23.758,0 45.164,6.269 65.703,18.168 l 198.121,114.355 c 8.372,4.852 10.922,13.789 10.922,23.465 0,9.691 -2.55,18.633 -10.922,23.477 l -198.121,114.367 c -20.539,11.926 -44.504,18.168 -68.261,18.168 l -1050.7,0 z" /><path
         id="path9800"
         style="fill:#ffffff;fill-opacity:1;fill-rule:evenodd;stroke:none"
         d="m 880.664,236.401 170.09,0 c 4.93,0 8.941,-4.012 8.941,-8.957 l 0,-94.102 c 0,-4.933 -4.011,-8.941 -8.941,-8.941 l -170.09,0 c -4.93,0 -8.945,4.008 -8.945,8.941 l 0,94.102 c 0,4.945 4.015,8.957 8.945,8.957 z m 85.039,-4.477 c -0.918,0 -1.836,-0.074 -2.754,-0.234 l -80.715,-12.633 c -2.195,-0.34 -3.8,-2.211 -3.8,-4.426 l 0,-68.496 c 0,-2.195 1.605,-4.07 3.8,-4.41 l 80.715,-12.633 c 0.918,-0.14 1.836,-0.215 2.754,-0.215 0.93,0 1.852,0.075 2.785,0.215 l 80.719,12.633 c 2.172,0.34 3.777,2.215 3.777,4.41 l 0,68.496 c 0,2.215 -1.605,4.086 -3.777,4.426 l -80.719,12.633 c -0.933,0.16 -1.855,0.234 -2.785,0.234 z m 0,-19.613 c 9.895,0 17.899,-8.027 17.899,-17.922 0,-4.07 -1.383,-8.008 -3.899,-11.191 l -20.137,-25.207 24.036,0 0,-8.961 -35.805,0 0,8.402 24.922,31.398 c 1.258,1.579 1.941,3.543 1.941,5.559 0,4.965 -4.012,8.957 -8.957,8.957 -4.933,0 -8.945,-3.992 -8.945,-8.957 l -8.961,0 c 0,9.895 8.023,17.922 17.906,17.922 z" /><path
         id="path9802"
         style="fill:#ffffff;fill-opacity:1;fill-rule:evenodd;stroke:none"
         d="m 745.641,269.819 -10.289,0 2.253,-58.473 28.254,0 -20.218,58.473 z m -17.172,0 -10.309,0 -20.207,-58.473 28.285,0 2.231,58.473 z m 92.785,-65.356 -178.688,0 0,-6.886 18.875,0 0,-10.309 17.219,0 0,10.309 106.5,0 0,-10.309 17.192,0 0,10.309 18.902,0 0,6.886 z m -47.043,-17.195 -35.699,0 3.695,-96.313 65.309,0 -33.305,96.313 z m -48.93,0 -35.648,0 -33.305,-96.313 65.285,0 3.668,96.313 z" /><path
         id="path9804"
         style="fill:#ffffff;fill-opacity:1;fill-rule:nonzero;stroke:none"
         d="m 277.066,136.795 36.403,0 c 3.234,0 6.308,0.567 9.222,1.7 2.911,1.132 5.461,2.789 7.645,4.976 2.266,2.184 4.004,4.77 5.215,7.766 1.297,3.074 1.941,6.429 1.941,10.07 0,4.691 -1.211,8.898 -3.637,12.621 -2.429,3.801 -5.906,6.227 -10.437,7.277 l 0,0.247 c 4.691,2.101 7.969,4.73 9.828,7.886 1.942,3.153 2.914,6.715 2.914,10.676 0,7.039 -2.226,12.66 -6.676,16.867 -4.449,4.207 -10.757,6.313 -18.929,6.313 l -33.489,0 0,-86.399 z m 33.247,38.344 c 4.613,0 8.089,-1.254 10.437,-3.762 2.426,-2.425 3.641,-5.5 3.641,-9.222 0,-3.641 -1.215,-6.715 -3.641,-9.219 -2.348,-2.508 -5.824,-3.762 -10.437,-3.762 l -20.141,0 0,25.965 20.141,0 z m -1.211,36.402 c 4.527,0 7.964,-1.171 10.312,-3.515 2.426,-2.348 3.641,-5.301 3.641,-8.86 0,-3.558 -1.215,-6.511 -3.641,-8.859 -2.348,-2.344 -5.785,-3.519 -10.312,-3.519 l -18.93,0 0,24.753 18.93,0 z" /><path
         id="path9806"
         style="fill:#ffffff;fill-opacity:1;fill-rule:nonzero;stroke:none"
         d="m 404.805,162.885 0,10.192 c 0,3.882 -0.688,7.402 -2.063,10.558 -1.293,3.235 -3.113,5.985 -5.461,8.25 -2.343,2.348 -5.054,4.125 -8.129,5.34 -3.074,1.211 -6.312,1.82 -9.707,1.82 -3.156,0 -6.23,-0.566 -9.222,-1.699 -2.993,-1.133 -5.703,-2.953 -8.129,-5.461 -2.43,-2.426 -4.371,-5.703 -5.828,-9.828 -1.453,-4.125 -2.184,-9.019 -2.184,-14.684 0,-6.066 0.77,-11.164 2.309,-15.289 1.617,-4.043 3.718,-7.238 6.308,-9.586 2.668,-2.347 5.582,-4.003 8.735,-4.976 3.238,-0.969 6.554,-1.453 9.953,-1.453 4.285,0 8.332,0.808 12.133,2.426 3.8,1.617 7.16,4.125 10.07,7.523 l -8.977,7.645 c -1.781,-1.86 -3.883,-3.317 -6.312,-4.368 -2.344,-1.054 -4.731,-1.578 -7.156,-1.578 -4.372,0 -7.93,1.293 -10.68,3.883 -2.668,2.668 -4.004,6.43 -4.004,11.285 l 38.344,0 z m -38.344,10.192 c 0.16,4.531 1.414,8.05 3.762,10.558 2.425,2.508 5.5,3.762 9.222,3.762 3.719,0 6.754,-1.254 9.098,-3.762 2.43,-2.508 3.723,-6.027 3.887,-10.558 l -25.969,0 z" /><path
         id="path9808"
         style="fill:#ffffff;fill-opacity:1;fill-rule:nonzero;stroke:none"
         d="m 422.59,136.795 12.375,0 0,37.012 c 0,4.203 1.176,7.398 3.519,9.586 2.348,2.184 5.18,3.273 8.496,3.273 1.536,0 2.911,-0.242 4.125,-0.726 1.211,-0.406 2.547,-1.172 4.004,-2.305 l 8.981,10.676 c -4.047,3.156 -8.332,4.734 -12.863,4.734 -6.797,0 -12.137,-2.425 -16.02,-7.281 l -0.242,0 0,6.551 -12.375,0 0,-61.52 z" /><path
         id="path9810"
         style="fill:#ffffff;fill-opacity:1;fill-rule:nonzero;stroke:none"
         d="m 474.953,151.721 c 0,-5.18 1.414,-8.98 4.246,-11.406 2.832,-2.348 6.672,-3.52 11.528,-3.52 l 5.461,0 0,11.649 -4.247,0 c -3.074,0 -4.613,1.418 -4.613,4.246 l 0,70.504 -12.375,0 0,-71.473 z" /><path
         id="path9812"
         style="fill:#ffffff;fill-opacity:1;fill-rule:nonzero;stroke:none"
         d="m 512.039,136.795 12.379,0 0,61.52 -12.379,0 0,-61.52 z m 0,74.02 12.379,0 0,12.379 -12.379,0 0,-12.379 z" /><path
         id="path9814"
         style="fill:#ffffff;fill-opacity:1;fill-rule:nonzero;stroke:none"
         d="m 543.707,136.795 12.379,0 0,36.645 c 0,4.125 1.133,7.363 3.394,9.707 2.348,2.348 5.301,3.519 8.86,3.519 3.558,0 6.473,-1.171 8.738,-3.519 2.266,-2.344 3.395,-5.582 3.395,-9.707 l 0,-36.645 12.379,0 0,40.895 c 0,3.394 -0.606,6.43 -1.821,9.098 -1.133,2.671 -2.711,4.894 -4.73,6.675 -2.024,1.86 -4.25,3.235 -6.676,4.125 -2.426,0.973 -4.855,1.457 -7.281,1.457 -6.793,0 -12.133,-2.425 -16.016,-7.281 l -0.242,0 0,6.551 -12.379,0 0,-61.52 z" /><path
         id="path9816"
         style="fill:#000000;fill-opacity:1;fill-rule:nonzero;stroke:none"
         d="M 40.398,360.799 C 18.094,360.799 0,342.709 0,320.401 l 0,-280 C 0,18.092 18.094,-0.002 40.398,-0.002 l 1058.7,0 c 28.457,0 56.492,7.54 81.09,21.75 l 193.679,111.938 c 16.625,9.621 26.934,27.504 26.934,46.703 0,19.215 -10.309,37.106 -26.934,46.68 l -193.679,111.957 c -24.625,14.238 -52.661,21.773 -81.09,21.773 l -1058.7,0 z m 0,-0.398 1058.7,0 c 28.359,0 56.324,-7.52 80.89,-21.723 l 193.676,-111.957 c 16.504,-9.504 26.734,-27.262 26.734,-46.332 0,-19.059 -10.23,-36.809 -26.734,-46.359 L 1179.988,22.092 C 1155.449,7.916 1127.484,0.401 1099.098,0.401 l -1058.7,0 c -22.089,0 -40,17.906 -40,40 l 0,280 c 0,22.09 17.911,40 40,40 z" /></g></g></svg>