<?xml version="1.0" encoding="UTF-8" standalone="no"?>
<svg
   xmlns:dc="http://purl.org/dc/elements/1.1/"
   xmlns:cc="http://creativecommons.org/ns#"
   xmlns:rdf="http://www.w3.org/1999/02/22-rdf-syntax-ns#"
   xmlns:svg="http://www.w3.org/2000/svg"
   xmlns="http://www.w3.org/2000/svg"
   viewBox="0 0 600.99628 600.99628"
   height="600.99628"
   width="600.99628"
   xml:space="preserve"
   version="1.1"
   id="svg3486"><metadata
     id="metadata3492"><rdf:RDF><cc:Work
         rdf:about=""><dc:format>image/svg+xml</dc:format><dc:type
           rdf:resource="http://purl.org/dc/dcmitype/StillImage" /><dc:title></dc:title></cc:Work></rdf:RDF></metadata><defs
     id="defs3490" /><g
     transform="matrix(1.25,0,0,-1.25,0,600.99628)"
     id="g3494"><g
       id="g3496"><path
         id="path3498"
         style="fill:#ffffff;fill-opacity:1;fill-rule:nonzero;stroke:none"
         d="m 480.398,240.399 c 0,-132.551 -107.449,-240 -240,-240 -132.55,0 -240,107.449 -240,240 0,132.55 107.45,240 240,240 132.551,0 240,-107.45 240,-240 z" /><path
         id="path3500"
         style="fill:#000000;fill-opacity:1;fill-rule:nonzero;stroke:none"
         d="M 240.398,480.797 C 107.633,480.797 0,373.164 0,240.399 0,107.633 107.633,0 240.398,0 c 132.766,0 240.399,107.633 240.399,240.399 0,132.765 -107.633,240.398 -240.399,240.398 z m 0,-0.398 c 132.551,0 240,-107.45 240,-240 0,-132.551 -107.449,-240 -240,-240 -132.55,0 -240,107.449 -240,240 0,132.55 107.45,240 240,240 z" /><path
         id="path3502"
         style="fill:#c1121c;fill-opacity:1;fill-rule:nonzero;stroke:none"
         d="m 240.398,472.399 c -127.746,0 -232,-104.254 -232,-232 0,-127.747 104.254,-232 232,-232 127.747,0 232,104.253 232,232 0,127.746 -104.253,232 -232,232 z m 0,-64.321 c 92.989,0 167.68,-74.691 167.68,-167.679 0,-92.989 -74.691,-167.68 -167.68,-167.68 -92.988,0 -167.679,74.691 -167.679,167.68 0,92.988 74.691,167.679 167.679,167.679 z" /><path
         id="path3504"
         style="fill:#000000;fill-opacity:1;fill-rule:nonzero;stroke:none"
         d="m 23.832,456.512 0,-0.024 -0.023,0 0.023,0.024 z" /><path
         id="path3506"
         style="fill:#000000;fill-opacity:1;fill-rule:nonzero;stroke:none"
         d="m 23.809,456.512 0.023,0 0,-0.023 -0.023,0 0,0.023 z" /><path
         id="path3508"
         style="fill:#000000;fill-opacity:1;fill-rule:nonzero;stroke:none"
         d="m 23.809,456.488 0,0.024 0.023,-0.024 -0.023,0 z m 0.023,0 -0.023,0.024 0,-0.024 0.023,0 z" /><path
         id="path3510"
         style="fill:#000000;fill-opacity:1;fill-rule:nonzero;stroke:none"
         d="m 23.859,456.488 -0.05,0 0.023,0 0,0.024 0.027,-0.024 z" /><path
         id="path3512"
         style="fill:#000000;fill-opacity:1;fill-rule:nonzero;stroke:none"
         d="m 23.809,456.488 0,0.024 0,-0.024 0.023,0.024 -0.023,-0.024 z" /><path
         id="path3514"
         style="fill:#000000;fill-opacity:1;fill-rule:nonzero;stroke:none"
         d="m 23.809,456.512 0.023,0 0,-0.023 -0.023,0 0,0.023 z" /><path
         id="path3516"
         style="fill:#000000;fill-opacity:1;fill-rule:nonzero;stroke:none"
         d="m 23.859,456.512 0,-0.047 -0.05,0 0.05,0.047 z" /><path
         id="path3518"
         style="fill:#000000;fill-opacity:1;fill-rule:nonzero;stroke:none"
         d="m 23.809,456.512 0.051,0 0,-0.047 -0.051,0 0,0.047 z" /><path
         id="path3520"
         style="fill:#000000;fill-opacity:1;fill-rule:nonzero;stroke:none"
         d="m 23.809,456.465 0,0.047 0.05,-0.047 -0.05,0 z m 0.05,0 -0.05,0.047 0,-0.047 0.05,0 z" /><path
         id="path3522"
         style="fill:#000000;fill-opacity:1;fill-rule:nonzero;stroke:none"
         d="m 23.859,456.465 -0.05,0 0.023,0 0,0.047 0.027,-0.047 z" /><path
         id="path3524"
         style="fill:#000000;fill-opacity:1;fill-rule:nonzero;stroke:none"
         d="m 23.809,456.465 0,0.047 0,-0.047 0.05,0.047 -0.05,-0.047 z" /><path
         id="path3526"
         style="fill:#000000;fill-opacity:1;fill-rule:nonzero;stroke:none"
         d="m 23.809,456.512 0.051,0 0,-0.047 -0.051,0 0,0.047 z" /><path
         id="path3528"
         style="fill:#000000;fill-opacity:1;fill-rule:nonzero;stroke:none"
         d="m 23.859,456.512 0,-0.047 -0.05,0 0.05,0.047 z" /><path
         id="path3530"
         style="fill:#000000;fill-opacity:1;fill-rule:nonzero;stroke:none"
         d="m 23.809,456.512 0.051,0 0,-0.047 -0.051,0 0,0.047 z" /><path
         id="path3532"
         style="fill:#000000;fill-opacity:1;fill-rule:nonzero;stroke:none"
         d="m 23.809,456.465 0,0.047 0.05,-0.047 -0.05,0 z m 0.05,0 -0.05,0.047 0,-0.047 0.05,0 z" /><path
         id="path3534"
         style="fill:#000000;fill-opacity:1;fill-rule:nonzero;stroke:none"
         d="m 23.859,456.465 -0.05,0 0.023,0 0,0.047 0.027,-0.047 z" /><path
         id="path3536"
         style="fill:#000000;fill-opacity:1;fill-rule:nonzero;stroke:none"
         d="m 23.809,456.465 0,0.047 0,-0.047 0.05,0.047 -0.05,-0.047 z" /><path
         id="path3538"
         style="fill:#000000;fill-opacity:1;fill-rule:nonzero;stroke:none"
         d="m 23.809,456.512 0.051,0 0,-0.047 -0.051,0 0,0.047 z" /><path
         id="path3540"
         style="fill:#000000;fill-opacity:1;fill-rule:nonzero;stroke:none"
         d="m 23.859,456.512 0,-0.047 -0.05,0 0.05,0.047 z" /><path
         id="path3542"
         style="fill:#000000;fill-opacity:1;fill-rule:nonzero;stroke:none"
         d="m 23.809,456.512 0.051,0 0,-0.047 -0.051,0 0,0.047 z" /><path
         id="path3544"
         style="fill:#000000;fill-opacity:1;fill-rule:nonzero;stroke:none"
         d="m 23.809,456.465 0,0.047 0.05,-0.047 -0.05,0 z m 0.05,0 -0.05,0.047 0,-0.047 0.05,0 z" /><path
         id="path3546"
         style="fill:#000000;fill-opacity:1;fill-rule:nonzero;stroke:none"
         d="m 23.859,456.465 -0.05,0 0.023,0 0,0.047 0.027,-0.047 z" /><path
         id="path3548"
         style="fill:#000000;fill-opacity:1;fill-rule:nonzero;stroke:none"
         d="m 23.809,456.465 0,0.047 0,-0.047 0.05,0.047 -0.05,-0.047 z" /><path
         id="path3550"
         style="fill:#000000;fill-opacity:1;fill-rule:nonzero;stroke:none"
         d="m 23.809,456.512 0.051,0 0,-0.047 -0.051,0 0,0.047 z" /><path
         id="path3552"
         style="fill:#000000;fill-opacity:1;fill-rule:nonzero;stroke:none"
         d="M 119.535,240.395 85.848,181.07 c -14.668,38.188 -14.668,80.461 0,118.657" /><path
         id="path3554"
         style="fill:#000000;fill-opacity:1;fill-rule:nonzero;stroke:none"
         d="m 361.262,240.395 33.687,59.332 c 14.668,-38.196 14.668,-80.469 0,-118.657" /><path
         id="path3556"
         style="fill:#000000;fill-opacity:1;fill-rule:nonzero;stroke:none"
         d="m 270.355,125.57 0,69.891 13.977,0 0,-6.992 c 3.859,7.246 12.856,9.988 20.098,6.121 2.308,-1.234 4.269,-3.059 5.648,-5.297 5.285,7.496 15.621,9.297 23.117,4.027 4.426,-3.109 7.051,-8.187 7.051,-13.582 l 0,-54.168 -13.976,0 0,49.793 c 0,3.868 -3.133,7 -6.993,7 -3.855,0 -6.988,-3.132 -6.988,-7 l 0,-49.793 -13.977,0 0,49.793 c 0,3.868 -3.121,7 -6.988,7 -3.859,0 -6.992,-3.132 -6.992,-7 l 0,-49.793 -13.977,0 z m -120.605,0 0,30.762 61.863,118.051 c 2.465,4.691 3.75,9.914 3.75,15.223 l 0,18.453 c 0,9.058 -7.34,16.41 -16.41,16.41 -9.058,0 -16.398,-7.352 -16.398,-16.41 l 0,-18.453 -32.805,0 0,18.453 c 0,27.183 22.031,49.215 49.203,49.215 27.184,0 49.215,-22.032 49.215,-49.215 l 0,-18.453 c 0,-10.457 -2.504,-20.774 -7.293,-30.071 l -52.164,-101.148 59.457,0 0,-32.817" /></g></g></svg>