<?xml version="1.0" encoding="UTF-8" standalone="no"?>
<svg
   xmlns:dc="http://purl.org/dc/elements/1.1/"
   xmlns:cc="http://creativecommons.org/ns#"
   xmlns:rdf="http://www.w3.org/1999/02/22-rdf-syntax-ns#"
   xmlns:svg="http://www.w3.org/2000/svg"
   xmlns="http://www.w3.org/2000/svg"
   viewBox="0 0 600 600"
   height="600"
   width="600"
   xml:space="preserve"
   version="1.1"
   id="svg7047"><metadata
     id="metadata7053"><rdf:RDF><cc:Work
         rdf:about=""><dc:format>image/svg+xml</dc:format><dc:type
           rdf:resource="http://purl.org/dc/dcmitype/StillImage" /><dc:title></dc:title></cc:Work></rdf:RDF></metadata><defs
     id="defs7051" /><g
     transform="matrix(1.25,0,0,-1.25,0,600)"
     id="g7055"><g
       id="g7057"><path
         id="path7059"
         style="fill:#ffffff;fill-opacity:1;fill-rule:nonzero;stroke:none"
         d="m 32.414,0.473 c -17.633,0 -31.93,14.297 -31.93,31.941 l 0,415.172 c 0,17.633 14.297,31.93 31.93,31.93 l 415.172,0 c 17.644,0 31.941,-14.297 31.941,-31.93 l 0,-415.172 C 479.527,14.77 465.23,0.473 447.586,0.473" /><path
         id="path7061"
         style="fill:#8a8a8a;fill-opacity:1;fill-rule:nonzero;stroke:none"
         d="m 153.391,252.793 18.941,0 c 2.574,-10.641 13.305,-17.184 23.945,-14.598 8.903,2.153 15.168,10.114 15.168,19.27 l 0,2.332 c 0,10.961 -8.875,19.836 -19.836,19.836 l -8.164,0 0,16.328 8.164,0 c 10.305,0 18.664,8.359 18.664,18.676 0,10.304 -8.359,18.664 -18.664,18.664 -8.961,0 -16.656,-6.375 -18.336,-15.168 l -18.832,0 c 1.934,20.527 20.137,35.597 40.664,33.672 19.184,-1.813 33.844,-17.91 33.844,-37.168 0,-10.629 -5.179,-20.598 -13.863,-26.719 9.387,-6.277 15.023,-16.824 15.023,-28.121 l 0,-2.332 c 0,-21.254 -17.234,-38.5 -38.5,-38.5 -19.461,0 -35.863,14.515 -38.218,33.828" /><path
         id="path7063"
         style="fill:#8a8a8a;fill-opacity:1;fill-rule:nonzero;stroke:none"
         d="m 267.434,256.301 c 0,-10.317 8.359,-18.66 18.675,-18.66 10.305,0 18.664,8.343 18.664,18.66 l 0,58.336 c 0,10.304 -8.359,18.664 -18.664,18.664 -10.316,0 -18.675,-8.36 -18.675,-18.664 l 0,-58.336 z m -18.661,0 0,58.336 c 0,20.613 16.715,37.328 37.336,37.328 20.625,0 37.34,-16.715 37.34,-37.328 l 0,-58.336 c 0,-20.621 -16.715,-37.336 -37.34,-37.336 -20.621,0 -37.336,16.715 -37.336,37.336" /><path
         id="path7065"
         style="fill:#000000;fill-opacity:1;fill-rule:nonzero;stroke:none"
         d="M 32.414,480 C 14.539,480 0,465.461 0,447.586 L 0,32.414 C 0,14.539 14.539,0 32.414,0 L 447.586,0 C 465.461,0 480,14.539 480,32.414 l 0,415.172 C 480,465.461 465.461,480 447.586,480 l -415.172,0 z m 0,-0.484 415.172,0 c 17.644,0 31.941,-14.293 31.941,-31.93 l 0,-415.172 c 0,-17.648 -14.297,-31.941 -31.941,-31.941 l -415.172,0 c -17.633,0 -31.93,14.293 -31.93,31.941 l 0,415.172 c 0,17.637 14.297,31.93 31.93,31.93 z" /><path
         id="path7067"
         style="fill:#000000;fill-opacity:1;fill-rule:nonzero;stroke:none"
         d="m 32.004,471.992 c -13.258,0 -23.996,-10.738 -23.996,-23.996 l 0,-415.992 c 0,-13.27 10.738,-24.012 23.996,-24.012 l 415.992,0 c 13.266,0 24.008,10.742 24.008,24.012 l 0,415.992 c 0,13.258 -10.742,23.996 -24.008,23.996 l -415.992,0 z m 0,-11.996 374.543,0 -386.543,-386.543 0,374.543 c 0,6.629 5.371,12 12,12 z m 386.418,-0.004 11.879,0 -410.297,-410.293 0,11.863 398.418,398.43 z m 23.769,0 5.805,0 c 1.715,0 3.422,-0.371 4.984,-1.074 L 21.082,27.008 c -0.715,1.574 -1.078,3.277 -1.078,4.996 l 0,5.805 422.187,422.183 z m 16.727,-7.015 c 0.715,-1.571 1.09,-3.266 1.09,-4.981 l 0,-5.82 L 37.82,19.992 l -5.816,0 c -1.715,0 -3.422,0.363 -4.984,1.09 l 431.898,431.895 z m 1.09,-22.676 0,-11.891 -398.43,-398.418 -11.879,0 410.309,410.309 z m 0,-23.754 0,-374.543 c 0,-6.641 -5.383,-12.012 -12.012,-12.012 l -374.543,0 386.555,386.555 z" /><path
         id="path7069"
         style="fill:#8a8a8a;fill-opacity:1;fill-rule:nonzero;stroke:none"
         d="m 308.395,42.527 0,67.2 43.214,0 0,-9.59 -33.007,0 0,-19.207 28.207,0 0,-9 -28.207,0 0,-19.801 33.007,0 0,-9.602 -43.214,0 z m -65.993,0 0,67.2 9.602,0 30.601,-47.993 0,47.993 10.196,0 0,-67.2 -9.602,0 -30.59,48.004 0,-48.004 -10.207,0 z M 191.406,65.93 c 0,-7.618 6.168,-13.801 13.789,-13.801 7.633,0 13.801,6.183 13.801,13.801 l 0,20.406 c 0,7.605 -6.168,13.801 -13.801,13.801 -7.621,0 -13.789,-6.196 -13.789,-13.801 l 0,-20.406 z m -10.207,0 0,20.406 c 0,13.242 10.754,23.996 23.996,23.996 13.258,0 24.008,-10.754 24.008,-23.996 l 0,-20.406 c 0,-13.254 -10.75,-23.996 -24.008,-23.996 -13.242,0 -23.996,10.742 -23.996,23.996 z m -38.887,34.8 9,8.997 -11.878,0 -9,-8.997 11.878,0 z m -13.91,-58.203 0,8.407 30.602,49.796 -4.813,0 8.997,8.997 8.417,0 0,-7.789 -30.597,-49.809 30.597,0 0,-9.602" /><path
         id="path7071"
         style="fill:#8a8a8a;fill-opacity:1;fill-rule:nonzero;stroke:none"
         d="m 140.691,170.387 c -2.117,1.836 -4.183,3.722 -6.203,5.66 l 28.289,28.301 c 2.032,-1.934 4.137,-3.786 6.313,-5.575 l -28.399,-28.386 z m 214.391,214.386 -28.391,-28.386 c -1.777,2.164 -3.64,4.269 -5.574,6.301 l 28.289,28.289 c 1.949,-2.008 3.836,-4.086 5.676,-6.204 z M 154.117,160.055 c -2.332,1.597 -4.633,3.265 -6.883,4.996 l 28.606,28.605 c 2.359,-1.644 4.765,-3.179 7.234,-4.644 L 154.117,160.055 Z M 365.41,371.348 336.465,342.391 c -1.461,2.468 -3.012,4.875 -4.656,7.222 l 28.605,28.617 c 1.731,-2.25 3.398,-4.546 4.996,-6.882 z M 168.934,151.105 c -2.575,1.356 -5.102,2.782 -7.594,4.293 l 29.461,29.454 c 2.699,-1.332 5.445,-2.54 8.238,-3.629 l -30.105,-30.118 z m 205.425,205.438 -30.117,-30.129 c -1.101,2.805 -2.308,5.551 -3.629,8.25 l 29.453,29.449 c 1.5,-2.476 2.938,-5.008 4.293,-7.57 z M 185.25,143.668 c -2.816,1.086 -5.613,2.262 -8.355,3.52 l 30.988,30.976 c 3.117,-0.934 6.273,-1.73 9.48,-2.383 L 185.25,143.668 Z m 196.547,196.547 -32.109,-32.113 c -0.649,3.191 -1.454,6.363 -2.399,9.484 l 30.988,30.984 c 1.258,-2.742 2.434,-5.539 3.52,-8.355 z m -38.391,56.64 c -61.515,57.125 -157.695,53.547 -214.808,-7.98 -54.125,-58.313 -54.125,-148.508 0,-206.816 l 28.312,28.3 c -41.472,45.891 -37.894,116.719 7.996,158.196 42.649,38.547 107.551,38.547 150.199,0 l 28.301,28.3 z m 41.477,-65.433 c 25.387,-80.012 -18.906,-165.465 -98.914,-190.84 -29.914,-9.496 -62.024,-9.496 -91.926,0 l 33.566,33.566 c 61.481,-6.847 116.864,37.446 123.696,98.926 0.929,8.235 0.929,16.547 0,24.77" /></g></g></svg>