<?xml version="1.0" encoding="UTF-8" standalone="no"?>
<svg
   xmlns:dc="http://purl.org/dc/elements/1.1/"
   xmlns:cc="http://creativecommons.org/ns#"
   xmlns:rdf="http://www.w3.org/1999/02/22-rdf-syntax-ns#"
   xmlns:svg="http://www.w3.org/2000/svg"
   xmlns="http://www.w3.org/2000/svg"
   viewBox="0 0 600 600"
   height="600"
   width="600"
   xml:space="preserve"
   version="1.1"
   id="svg5667"><metadata
     id="metadata5673"><rdf:RDF><cc:Work
         rdf:about=""><dc:format>image/svg+xml</dc:format><dc:type
           rdf:resource="http://purl.org/dc/dcmitype/StillImage" /><dc:title></dc:title></cc:Work></rdf:RDF></metadata><defs
     id="defs5671" /><g
     transform="matrix(1.25,0,0,-1.25,0,600)"
     id="g5675"><g
       id="g5677"><path
         id="path5679"
         style="fill:#ffffff;fill-opacity:1;fill-rule:nonzero;stroke:none"
         d="m 30.445,479.762 c -30.273,0 -30.207,-30.141 -30.207,-30.141 l 0,-419.242 c 0,0 -0.066,-30.137 30.207,-30.137 l 419.11,0 c 30.273,0 30.203,30.137 30.203,30.137 l 0,419.242 c 0,0 0.07,30.141 -30.203,30.141 l -419.11,0 z" /><path
         id="path5681"
         style="fill:#000000;fill-opacity:1;fill-rule:nonzero;stroke:none"
         d="M 29.809,471.852 C 8.148,471.887 8.23,450.262 8.23,450.262 l 0,-420.524 c 0,0 -0.082,-21.625 21.579,-21.586 l 420.386,0 c 21.66,-0.039 21.575,21.586 21.575,21.586 l 0,420.524 c 0,0 0.085,21.625 -21.575,21.59 l -420.386,0 z m 0,-11.989 420.386,0 c 0,0 9.563,-0.383 9.586,-9.601 l 0,-420.524 c -0.023,-9.218 -9.586,-9.597 -9.586,-9.597 l -420.386,0 c 0,0 -9.567,0.379 -9.59,9.597 l 0,420.524 c 0.023,9.218 9.59,9.601 9.59,9.601 z" /><path
         id="path5683"
         style="fill:#000000;fill-opacity:1;fill-rule:nonzero;stroke:none"
         d="M 30.445,480 C 15.23,480 7.57,472.391 3.777,464.797 -0.02,457.203 0,449.617 0,449.617 L 0,30.379 c 0,0 -0.02,-7.582 3.777,-15.176 C 7.57,7.613 15.23,0 30.445,0 l 419.11,0 c 15.215,0 22.875,7.613 26.668,15.203 3.797,7.594 3.777,15.18 3.777,15.18 l 0,419.234 c 0,0.004 0.02,7.586 -3.777,15.18 C 472.43,472.387 464.77,480 449.555,480 l -419.11,0 z m 0,-0.238 419.11,0 c 30.273,0 30.203,-30.141 30.203,-30.141 l 0,-419.242 c 0,0 0.07,-30.137 -30.203,-30.137 l -419.11,0 C 0.172,0.242 0.238,30.379 0.238,30.379 l 0,419.242 c 0,0 -0.066,30.141 30.207,30.141 z" /><path
         id="path5685"
         style="fill:#000000;fill-opacity:1;fill-rule:nonzero;stroke:none"
         d="m 307.93,48.859 0,67.27 43.261,0 0,-9.602 -33.039,0 0,-19.226 28.235,0 0,-9.008 -28.235,0 0,-19.82 33.039,0 0,-9.614 -43.261,0 z m -66.059,0 0,67.27 9.613,0 30.637,-48.043 0,48.043 10.203,0 0,-67.27 -9.613,0 -30.621,48.055 0,-48.055 -10.219,0 z m -51.039,23.43 c 0,-7.625 6.172,-13.816 13.801,-13.816 7.637,0 13.812,6.191 13.812,13.816 l 0,20.426 c 0,7.613 -6.175,13.812 -13.812,13.812 -7.629,0 -13.801,-6.199 -13.801,-13.812 l 0,-20.426 z m -10.219,0 0,20.426 c 0,13.269 10.762,24.019 24.02,24.019 13.269,0 24.031,-10.75 24.031,-24.019 l 0,-20.426 c 0,-13.269 -10.762,-24.019 -24.031,-24.019 -13.258,0 -24.02,10.75 -24.02,24.019 z m -52.851,-23.43 0,8.418 30.633,49.844 -29.434,0 0,9.008 42.047,0 0,-7.797 -30.629,-49.859 30.629,0 0,-9.614" /><path
         id="path5687"
         style="fill:#000000;fill-opacity:1;fill-rule:nonzero;stroke:none"
         d="m 105.191,422.004 0,-0.016 -0.015,0 0.015,0.016 z" /><path
         id="path5689"
         style="fill:#000000;fill-opacity:1;fill-rule:nonzero;stroke:none"
         d="m 105.176,422.004 0.016,0 0,-0.016 -0.016,0 0,0.016 z" /><path
         id="path5691"
         style="fill:#000000;fill-opacity:1;fill-rule:nonzero;stroke:none"
         d="m 105.176,421.988 0,0.016 0.015,-0.016 -0.015,0 z m 0.015,0 -0.015,0.016 0,-0.016 0.015,0 z" /><path
         id="path5693"
         style="fill:#000000;fill-opacity:1;fill-rule:nonzero;stroke:none"
         d="m 105.207,421.988 -0.031,0 0.015,0 0,0.016 0.016,-0.016 z" /><path
         id="path5695"
         style="fill:#000000;fill-opacity:1;fill-rule:nonzero;stroke:none"
         d="m 105.176,421.988 0,0.016 0,-0.016 0.015,0.016 -0.015,-0.016 z" /><path
         id="path5697"
         style="fill:#000000;fill-opacity:1;fill-rule:nonzero;stroke:none"
         d="m 105.176,422.004 0.016,0 0,-0.016 -0.016,0 0,0.016 z" /><path
         id="path5699"
         style="fill:#000000;fill-opacity:1;fill-rule:nonzero;stroke:none"
         d="m 105.207,422.004 0,-0.027 -0.031,0 0.031,0.027 z" /><path
         id="path5701"
         style="fill:#000000;fill-opacity:1;fill-rule:nonzero;stroke:none"
         d="m 105.176,422.004 0.031,0 0,-0.027 -0.031,0 0,0.027 z" /><path
         id="path5703"
         style="fill:#000000;fill-opacity:1;fill-rule:nonzero;stroke:none"
         d="m 105.176,421.977 0,0.027 0.031,-0.027 -0.031,0 z m 0.031,0 -0.031,0.027 0,-0.027 0.031,0 z" /><path
         id="path5705"
         style="fill:#000000;fill-opacity:1;fill-rule:nonzero;stroke:none"
         d="m 105.207,421.977 -0.031,0 0.015,0 0,0.027 0.016,-0.027 z" /><path
         id="path5707"
         style="fill:#000000;fill-opacity:1;fill-rule:nonzero;stroke:none"
         d="m 105.176,421.977 0,0.027 0,-0.027 0.031,0.027 -0.031,-0.027 z" /><path
         id="path5709"
         style="fill:#000000;fill-opacity:1;fill-rule:nonzero;stroke:none"
         d="m 105.176,422.004 0.031,0 0,-0.027 -0.031,0 0,0.027 z" /><path
         id="path5711"
         style="fill:#000000;fill-opacity:1;fill-rule:nonzero;stroke:none"
         d="m 105.207,422.004 0,-0.027 -0.031,0 0.031,0.027 z" /><path
         id="path5713"
         style="fill:#000000;fill-opacity:1;fill-rule:nonzero;stroke:none"
         d="m 105.176,422.004 0.031,0 0,-0.027 -0.031,0 0,0.027 z" /><path
         id="path5715"
         style="fill:#000000;fill-opacity:1;fill-rule:nonzero;stroke:none"
         d="m 105.176,421.977 0,0.027 0.031,-0.027 -0.031,0 z m 0.031,0 -0.031,0.027 0,-0.027 0.031,0 z" /><path
         id="path5717"
         style="fill:#000000;fill-opacity:1;fill-rule:nonzero;stroke:none"
         d="m 105.207,421.977 -0.031,0 0.015,0 0,0.027 0.016,-0.027 z" /><path
         id="path5719"
         style="fill:#000000;fill-opacity:1;fill-rule:nonzero;stroke:none"
         d="m 105.176,421.977 0,0.027 0,-0.027 0.031,0.027 -0.031,-0.027 z" /><path
         id="path5721"
         style="fill:#000000;fill-opacity:1;fill-rule:nonzero;stroke:none"
         d="m 105.176,422.004 0.031,0 0,-0.027 -0.031,0 0,0.027 z" /><path
         id="path5723"
         style="fill:#000000;fill-opacity:1;fill-rule:nonzero;stroke:none"
         d="m 105.207,422.004 0,-0.027 -0.031,0 0.031,0.027 z" /><path
         id="path5725"
         style="fill:#000000;fill-opacity:1;fill-rule:nonzero;stroke:none"
         d="m 105.176,422.004 0.031,0 0,-0.027 -0.031,0 0,0.027 z" /><path
         id="path5727"
         style="fill:#000000;fill-opacity:1;fill-rule:nonzero;stroke:none"
         d="m 105.176,421.977 0,0.027 0.031,-0.027 -0.031,0 z m 0.031,0 -0.031,0.027 0,-0.027 0.031,0 z" /><path
         id="path5729"
         style="fill:#000000;fill-opacity:1;fill-rule:nonzero;stroke:none"
         d="m 105.207,421.977 -0.031,0 0.015,0 0,0.027 0.016,-0.027 z" /><path
         id="path5731"
         style="fill:#000000;fill-opacity:1;fill-rule:nonzero;stroke:none"
         d="m 105.176,421.977 0,0.027 0,-0.027 0.031,0.027 -0.031,-0.027 z" /><path
         id="path5733"
         style="fill:#000000;fill-opacity:1;fill-rule:nonzero;stroke:none"
         d="m 105.176,422.004 0.031,0 0,-0.027 -0.031,0 0,0.027 z" /><path
         id="path5735"
         style="fill:#154889;fill-opacity:1;fill-rule:nonzero;stroke:none"
         d="m 383.621,287.852 c 0,-79.528 -64.473,-144 -144,-144 -79.531,0 -144,64.472 -144,144 0,79.527 64.469,144 144,144 79.527,0 144,-64.473 144,-144 z" /><path
         id="path5737"
         style="fill:#000000;fill-opacity:1;fill-rule:nonzero;stroke:none"
         d="m 105.199,420.527 0,-0.015 -0.015,0 0.015,0.015 z" /><path
         id="path5739"
         style="fill:#000000;fill-opacity:1;fill-rule:nonzero;stroke:none"
         d="m 105.184,420.527 0.02,0 0,-0.016 -0.02,0 0,0.016 z" /><path
         id="path5741"
         style="fill:#000000;fill-opacity:1;fill-rule:nonzero;stroke:none"
         d="m 105.184,420.512 0,0.015 0.015,-0.015 -0.015,0 z m 0.015,0 -0.015,0.015 0,-0.015 0.015,0 z" /><path
         id="path5743"
         style="fill:#000000;fill-opacity:1;fill-rule:nonzero;stroke:none"
         d="m 105.215,420.512 -0.031,0 0.015,0 0,0.015 0.016,-0.015 z" /><path
         id="path5745"
         style="fill:#000000;fill-opacity:1;fill-rule:nonzero;stroke:none"
         d="m 105.184,420.512 0,0.015 0,-0.015 0.015,0.015 -0.015,-0.015 z" /><path
         id="path5747"
         style="fill:#000000;fill-opacity:1;fill-rule:nonzero;stroke:none"
         d="m 105.184,420.527 0.02,0 0,-0.016 -0.02,0 0,0.016 z" /><path
         id="path5749"
         style="fill:#000000;fill-opacity:1;fill-rule:nonzero;stroke:none"
         d="m 105.215,420.527 0,-0.023 -0.031,0 0.031,0.023 z" /><path
         id="path5751"
         style="fill:#000000;fill-opacity:1;fill-rule:nonzero;stroke:none"
         d="m 105.184,420.527 0.031,0 0,-0.023 -0.031,0 0,0.023 z" /><path
         id="path5753"
         style="fill:#000000;fill-opacity:1;fill-rule:nonzero;stroke:none"
         d="m 105.184,420.504 0,0.023 0.031,-0.023 -0.031,0 z m 0.031,0 -0.031,0.023 0,-0.023 0.031,0 z" /><path
         id="path5755"
         style="fill:#000000;fill-opacity:1;fill-rule:nonzero;stroke:none"
         d="m 105.215,420.504 -0.031,0 0.015,0 0,0.023 0.016,-0.023 z" /><path
         id="path5757"
         style="fill:#000000;fill-opacity:1;fill-rule:nonzero;stroke:none"
         d="m 105.184,420.504 0,0.023 0,-0.023 0.031,0.023 -0.031,-0.023 z" /><path
         id="path5759"
         style="fill:#000000;fill-opacity:1;fill-rule:nonzero;stroke:none"
         d="m 105.184,420.527 0.031,0 0,-0.023 -0.031,0 0,0.023 z" /><path
         id="path5761"
         style="fill:#000000;fill-opacity:1;fill-rule:nonzero;stroke:none"
         d="m 105.215,420.527 0,-0.023 -0.031,0 0.031,0.023 z" /><path
         id="path5763"
         style="fill:#000000;fill-opacity:1;fill-rule:nonzero;stroke:none"
         d="m 105.184,420.527 0.031,0 0,-0.023 -0.031,0 0,0.023 z" /><path
         id="path5765"
         style="fill:#000000;fill-opacity:1;fill-rule:nonzero;stroke:none"
         d="m 105.184,420.504 0,0.023 0.031,-0.023 -0.031,0 z m 0.031,0 -0.031,0.023 0,-0.023 0.031,0 z" /><path
         id="path5767"
         style="fill:#000000;fill-opacity:1;fill-rule:nonzero;stroke:none"
         d="m 105.215,420.504 -0.031,0 0.015,0 0,0.023 0.016,-0.023 z" /><path
         id="path5769"
         style="fill:#000000;fill-opacity:1;fill-rule:nonzero;stroke:none"
         d="m 105.184,420.504 0,0.023 0,-0.023 0.031,0.023 -0.031,-0.023 z" /><path
         id="path5771"
         style="fill:#000000;fill-opacity:1;fill-rule:nonzero;stroke:none"
         d="m 105.184,420.527 0.031,0 0,-0.023 -0.031,0 0,0.023 z" /><path
         id="path5773"
         style="fill:#000000;fill-opacity:1;fill-rule:nonzero;stroke:none"
         d="m 105.215,420.527 0,-0.023 -0.031,0 0.031,0.023 z" /><path
         id="path5775"
         style="fill:#000000;fill-opacity:1;fill-rule:nonzero;stroke:none"
         d="m 105.184,420.527 0.031,0 0,-0.023 -0.031,0 0,0.023 z" /><path
         id="path5777"
         style="fill:#000000;fill-opacity:1;fill-rule:nonzero;stroke:none"
         d="m 105.184,420.504 0,0.023 0.031,-0.023 -0.031,0 z m 0.031,0 -0.031,0.023 0,-0.023 0.031,0 z" /><path
         id="path5779"
         style="fill:#000000;fill-opacity:1;fill-rule:nonzero;stroke:none"
         d="m 105.215,420.504 -0.031,0 0.015,0 0,0.023 0.016,-0.023 z" /><path
         id="path5781"
         style="fill:#000000;fill-opacity:1;fill-rule:nonzero;stroke:none"
         d="m 105.184,420.504 0,0.023 0,-0.023 0.031,0.023 -0.031,-0.023 z" /><path
         id="path5783"
         style="fill:#000000;fill-opacity:1;fill-rule:nonzero;stroke:none"
         d="m 105.184,420.527 0.031,0 0,-0.023 -0.031,0 0,0.023 z" /><path
         id="path5785"
         style="fill:#ffffff;fill-opacity:1;fill-rule:nonzero;stroke:none"
         d="m 292.887,294.379 c 0,8.398 -6.813,15.219 -15.219,15.219 -8.406,0 -15.219,-6.821 -15.219,-15.219 0,-8.406 6.813,-15.227 15.219,-15.227 8.406,0 15.219,6.821 15.219,15.227 z m -73.914,89.137 c 0,-9.602 -7.793,-17.395 -17.399,-17.395 -9.601,0 -17.394,7.793 -17.394,17.395 0,9.601 7.793,17.386 17.394,17.386 9.606,0 17.399,-7.785 17.399,-17.386 z m -34.793,-88.719 3.054,3 c 0.832,0.824 1.297,1.933 1.297,3.101 l 0,32.614 c 0,1.195 -0.972,2.168 -2.176,2.168 -1.195,0 -2.175,-0.973 -2.175,-2.168 l 0,-38.715 z m -26.09,-50.422 c 2.504,16.648 9.726,32.234 20.824,44.898 -5.004,5.586 -7.777,12.821 -7.777,20.325 l 0,17.386 c 0,16.813 13.625,30.442 30.437,30.442 11.352,0 21.754,-6.317 27,-16.387 l 18.071,-34.703 c 2.609,-5.035 1.687,-11.18 -2.309,-15.203 l 17.957,-15.067 c 6.082,-5.113 14.301,-6.867 21.945,-4.683 l 3.219,0.922 c 3.324,0.941 6.898,-0.168 9.098,-2.844 l 22.117,-26.879 c 3.762,-4.57 3.18,-11.312 -1.32,-15.16 l -20.114,23.473 6.52,-32.618 -8.336,-1.226 5.008,-31.613 c 0.476,-2.969 -1.559,-5.75 -4.52,-6.223 -2.89,-0.449 -5.625,1.461 -6.183,4.328 l -6.172,31.746 -7.047,-1.043 -3.215,-34.512 c -0.273,-2.988 -2.922,-5.187 -5.914,-4.91 -2.91,0.274 -5.086,2.805 -4.914,5.727 l 4.332,74.695 -30.961,29.274 c -2.879,4.039 -2.664,9.515 0.523,13.316 l -19.277,37.035 c -0.332,0.629 -1.117,0.887 -1.754,0.551 -0.437,-0.223 -0.707,-0.676 -0.707,-1.156 l 0,-33.368 c 0,-1.168 0.465,-2.277 1.297,-3.101 l 3.859,-3.801 c 13.582,-13.363 22.453,-30.781 25.282,-49.621 l -86.969,0 z m 45.66,-4.352 13.047,0 0,-58.695 c 0,-3.605 -2.922,-6.527 -6.527,-6.527 -3.598,0 -6.52,2.922 -6.52,6.527 l 0,58.695 z m -17.395,0 13.043,0 0,-45.652 c 0,-3.601 -2.918,-6.523 -6.515,-6.523 -3.606,0 -6.528,2.922 -6.528,6.523" /></g></g></svg>