<?xml version="1.0" encoding="UTF-8" standalone="no"?>
<svg
   xmlns:dc="http://purl.org/dc/elements/1.1/"
   xmlns:cc="http://creativecommons.org/ns#"
   xmlns:rdf="http://www.w3.org/1999/02/22-rdf-syntax-ns#"
   xmlns:svg="http://www.w3.org/2000/svg"
   xmlns="http://www.w3.org/2000/svg"
   viewBox="0 0 489.5358 739.41339"
   height="739.41339"
   width="489.5358"
   xml:space="preserve"
   version="1.1"
   id="svg5743"><metadata
     id="metadata5749"><rdf:RDF><cc:Work
         rdf:about=""><dc:format>image/svg+xml</dc:format><dc:type
           rdf:resource="http://purl.org/dc/dcmitype/StillImage" /><dc:title></dc:title></cc:Work></rdf:RDF></metadata><defs
     id="defs5747" /><g
     transform="matrix(1.25,0,0,-1.25,0,739.41338)"
     id="g5751"><g
       id="g5753"><g
         transform="matrix(1,0,0,-1,0,591.5307)"
         id="g5755"><path
           id="path5757"
           style="fill:#ffffff;fill-opacity:1;fill-rule:evenodd;stroke:#000000;stroke-width:0.80000001;stroke-linecap:butt;stroke-linejoin:miter;stroke-miterlimit:4;stroke-dasharray:none;stroke-opacity:1"
           d="m 71.02,163.434 75.925,132.523 -75.324,131.188 71.699,42.91 51.864,-88.938 53.007,88.754 72.508,-41.777 -76.785,-132.235 76.953,-132.914 -72.328,-41.726 -52.605,90.672 -51.954,-89.457 -72.96,41 z" /></g><path
         id="path5759"
         style="fill:#c1121c;fill-opacity:1;fill-rule:evenodd;stroke:none"
         d="M 71.262,425.949 145.48,468.117 74.309,591.531 0.434,548.664 71.262,425.949 Z" /><path
         id="path5761"
         style="fill:#c1121c;fill-opacity:1;fill-rule:evenodd;stroke:none"
         d="M 317.41,-0.001 391.629,42.167 320.457,165.581 246.582,122.714 317.41,-0.001 Z" /><path
         id="path5763"
         style="fill:#c1121c;fill-opacity:1;fill-rule:evenodd;stroke:none"
         d="M 74.219,-0.001 0,42.167 71.172,165.581 145.047,122.714 74.219,-0.001 Z" /><path
         id="path5765"
         style="fill:#c1121c;fill-opacity:1;fill-rule:evenodd;stroke:none"
         d="m 320.195,425.71 -74.222,42.168 71.172,123.414 73.878,-42.871 -70.828,-122.711 z" /><path
         id="path5767"
         style="fill:#c1121c;fill-opacity:1;fill-rule:evenodd;stroke:none"
         d="m 188.496,303.3 24.359,7.098 -13.867,-40.422 7.867,-1.035 -18.476,-20.43 -4.719,26.649 6.203,-2.157 6.727,21.661 -18.422,-1.692 6.855,49.527 17.973,-1.726" /></g></g></svg>