<?xml version="1.0" encoding="UTF-8" standalone="no"?>
<svg
   xmlns:dc="http://purl.org/dc/elements/1.1/"
   xmlns:cc="http://creativecommons.org/ns#"
   xmlns:rdf="http://www.w3.org/1999/02/22-rdf-syntax-ns#"
   xmlns:svg="http://www.w3.org/2000/svg"
   xmlns="http://www.w3.org/2000/svg"
   viewBox="0 0 600.995 600.995"
   height="600.995"
   width="600.995"
   xml:space="preserve"
   version="1.1"
   id="svg4282"><metadata
     id="metadata4288"><rdf:RDF><cc:Work
         rdf:about=""><dc:format>image/svg+xml</dc:format><dc:type
           rdf:resource="http://purl.org/dc/dcmitype/StillImage" /><dc:title></dc:title></cc:Work></rdf:RDF></metadata><defs
     id="defs4286" /><g
     transform="matrix(1.25,0,0,-1.25,0,600.99499)"
     id="g4290"><g
       id="g4292"><path
         id="path4294"
         style="fill:#ffffff;fill-opacity:1;fill-rule:nonzero;stroke:none"
         d="m 480.398,240.398 c 0,-132.551 -107.449,-240 -240,-240 -132.55,0 -240,107.449 -240,240 0,132.55 107.45,240 240,240 132.551,0 240,-107.45 240,-240 z" /><path
         id="path4296"
         style="fill:#000000;fill-opacity:1;fill-rule:nonzero;stroke:none"
         d="M 240.398,480.796 C 107.633,480.796 0,373.163 0,240.398 0,107.632 107.633,-0.001 240.398,-0.001 c 132.766,0 240.399,107.633 240.399,240.399 0,132.765 -107.633,240.398 -240.399,240.398 z m 0,-0.398 c 132.551,0 240,-107.45 240,-240 0,-132.551 -107.449,-240 -240,-240 -132.55,0 -240,107.449 -240,240 0,132.55 107.45,240 240,240 z" /><path
         id="path4298"
         style="fill:#c1121c;fill-opacity:1;fill-rule:nonzero;stroke:none"
         d="m 240.398,472.394 c -127.746,0 -232,-104.25 -232,-231.996 0,-127.747 104.254,-231.997 232,-231.997 127.747,0 231.997,104.25 231.997,231.997 0,127.746 -104.25,231.996 -231.997,231.996 z m 0,-64.317 c 92.989,0 167.684,-74.691 167.684,-167.679 0,-92.989 -74.695,-167.684 -167.684,-167.684 -92.988,0 -167.679,74.695 -167.679,167.684 0,92.988 74.691,167.679 167.679,167.679 z" /><path
         id="path4300"
         style="fill:#000000;fill-opacity:1;fill-rule:nonzero;stroke:none"
         d="m 23.832,456.511 0,-0.024 -0.023,0 0.023,0.024 z" /><path
         id="path4302"
         style="fill:#000000;fill-opacity:1;fill-rule:nonzero;stroke:none"
         d="m 23.809,456.511 0.023,0 0,-0.023 -0.023,0 0,0.023 z" /><path
         id="path4304"
         style="fill:#000000;fill-opacity:1;fill-rule:nonzero;stroke:none"
         d="m 23.809,456.487 0,0.024 0.023,-0.024 -0.023,0 z m 0.023,0 -0.023,0.024 0,-0.024 0.023,0 z" /><path
         id="path4306"
         style="fill:#000000;fill-opacity:1;fill-rule:nonzero;stroke:none"
         d="m 23.859,456.487 -0.05,0 0.023,0 0,0.024 0.027,-0.024 z" /><path
         id="path4308"
         style="fill:#000000;fill-opacity:1;fill-rule:nonzero;stroke:none"
         d="m 23.809,456.487 0,0.024 0,-0.024 0.023,0.024 -0.023,-0.024 z" /><path
         id="path4310"
         style="fill:#000000;fill-opacity:1;fill-rule:nonzero;stroke:none"
         d="m 23.809,456.511 0.023,0 0,-0.023 -0.023,0 0,0.023 z" /><path
         id="path4312"
         style="fill:#000000;fill-opacity:1;fill-rule:nonzero;stroke:none"
         d="m 23.859,456.511 0,-0.047 -0.05,0 0.05,0.047 z" /><path
         id="path4314"
         style="fill:#000000;fill-opacity:1;fill-rule:nonzero;stroke:none"
         d="m 23.809,456.511 0.051,0 0,-0.047 -0.051,0 0,0.047 z" /><path
         id="path4316"
         style="fill:#000000;fill-opacity:1;fill-rule:nonzero;stroke:none"
         d="m 23.809,456.464 0,0.047 0.05,-0.047 -0.05,0 z m 0.05,0 -0.05,0.047 0,-0.047 0.05,0 z" /><path
         id="path4318"
         style="fill:#000000;fill-opacity:1;fill-rule:nonzero;stroke:none"
         d="m 23.859,456.464 -0.05,0 0.023,0 0,0.047 0.027,-0.047 z" /><path
         id="path4320"
         style="fill:#000000;fill-opacity:1;fill-rule:nonzero;stroke:none"
         d="m 23.809,456.464 0,0.047 0,-0.047 0.05,0.047 -0.05,-0.047 z" /><path
         id="path4322"
         style="fill:#000000;fill-opacity:1;fill-rule:nonzero;stroke:none"
         d="m 23.809,456.511 0.051,0 0,-0.047 -0.051,0 0,0.047 z" /><path
         id="path4324"
         style="fill:#000000;fill-opacity:1;fill-rule:nonzero;stroke:none"
         d="m 23.859,456.511 0,-0.047 -0.05,0 0.05,0.047 z" /><path
         id="path4326"
         style="fill:#000000;fill-opacity:1;fill-rule:nonzero;stroke:none"
         d="m 23.809,456.511 0.051,0 0,-0.047 -0.051,0 0,0.047 z" /><path
         id="path4328"
         style="fill:#000000;fill-opacity:1;fill-rule:nonzero;stroke:none"
         d="m 23.809,456.464 0,0.047 0.05,-0.047 -0.05,0 z m 0.05,0 -0.05,0.047 0,-0.047 0.05,0 z" /><path
         id="path4330"
         style="fill:#000000;fill-opacity:1;fill-rule:nonzero;stroke:none"
         d="m 23.859,456.464 -0.05,0 0.023,0 0,0.047 0.027,-0.047 z" /><path
         id="path4332"
         style="fill:#000000;fill-opacity:1;fill-rule:nonzero;stroke:none"
         d="m 23.809,456.464 0,0.047 0,-0.047 0.05,0.047 -0.05,-0.047 z" /><path
         id="path4334"
         style="fill:#000000;fill-opacity:1;fill-rule:nonzero;stroke:none"
         d="m 23.809,456.511 0.051,0 0,-0.047 -0.051,0 0,0.047 z" /><path
         id="path4336"
         style="fill:#000000;fill-opacity:1;fill-rule:nonzero;stroke:none"
         d="m 23.859,456.511 0,-0.047 -0.05,0 0.05,0.047 z" /><path
         id="path4338"
         style="fill:#000000;fill-opacity:1;fill-rule:nonzero;stroke:none"
         d="m 23.809,456.511 0.051,0 0,-0.047 -0.051,0 0,0.047 z" /><path
         id="path4340"
         style="fill:#000000;fill-opacity:1;fill-rule:nonzero;stroke:none"
         d="m 23.809,456.464 0,0.047 0.05,-0.047 -0.05,0 z m 0.05,0 -0.05,0.047 0,-0.047 0.05,0 z" /><path
         id="path4342"
         style="fill:#000000;fill-opacity:1;fill-rule:nonzero;stroke:none"
         d="m 23.859,456.464 -0.05,0 0.023,0 0,0.047 0.027,-0.047 z" /><path
         id="path4344"
         style="fill:#000000;fill-opacity:1;fill-rule:nonzero;stroke:none"
         d="m 23.809,456.464 0,0.047 0,-0.047 0.05,0.047 -0.05,-0.047 z" /><path
         id="path4346"
         style="fill:#000000;fill-opacity:1;fill-rule:nonzero;stroke:none"
         d="m 23.809,456.511 0.051,0 0,-0.047 -0.051,0 0,0.047 z" /><path
         id="path4348"
         style="fill:#000000;fill-opacity:1;fill-rule:nonzero;stroke:none"
         d="m 82.125,244.398 0,8.023 316.539,0 0,-8.023 -316.539,0 z" /><path
         id="path4350"
         style="fill:#000000;fill-opacity:1;fill-rule:nonzero;stroke:none"
         d="m 252.41,371.226 c -5.523,3.488 -12.625,3.211 -17.844,-0.715 l -4.64,-3.504 -5.852,-0.836 0,9.16 10.696,1.527 0,7.633 -10.805,-1.539 c 1.672,8.504 9.922,14.031 18.426,12.36 8.492,-1.688 14.031,-9.938 12.347,-18.442 -0.402,-2.012 -1.187,-3.937 -2.328,-5.644 z m 15.594,-92.828 c -33.316,0.98 -50.641,-1.637 -53.988,14.73 l -0.676,3.113 c -3.914,14.262 -17.52,23.641 -32.25,22.211 -5.223,10.586 -10.457,21.707 24.836,32.36 -0.449,-1.844 -0.668,-3.746 -0.645,-5.661 l 30.86,23.262 c 5.765,4.352 13.968,3.199 18.304,-2.566 l 16.309,-21.653 -17.336,-13.058 -17.922,23.769 -27.355,-20.621 c 3.199,-5.742 8.699,-9.847 15.121,-11.254 0.277,3.403 3.113,6.008 6.519,6.008 l 25.199,0 17.348,13.074 6.387,-8.468 c 1.027,-1.371 1.793,-2.934 2.215,-4.606 l 25.648,0 c 1.805,0 3.258,-2.336 3.258,-5.219 0,-2.898 -1.453,-5.234 -3.258,-5.234 l -9.812,0 c -16.782,0 -30.399,-13.594 -30.399,-30.387 0,-3.332 0.559,-6.64 1.637,-9.8 z m 46.742,9.8 c 0,9.922 -8.058,17.969 -17.98,17.969 -9.922,0 -17.969,-8.047 -17.969,-17.969 0,-9.922 8.047,-17.968 17.969,-17.968 9.922,0 17.98,8.046 17.98,17.968 z m 9.801,0 c 0,-15.336 -12.445,-27.769 -27.781,-27.769 -15.34,0 -27.782,12.433 -27.782,27.769 0,15.34 12.442,27.782 27.782,27.782 15.336,0 27.781,-12.442 27.781,-27.782 z m -122.535,0 c 0,9.922 -8.059,17.969 -17.981,17.969 -9.922,0 -17.965,-8.047 -17.965,-17.969 0,-9.922 8.043,-17.968 17.965,-17.968 9.922,0 17.981,8.046 17.981,17.968 z m 9.801,0 c 0,-15.336 -12.442,-27.769 -27.782,-27.769 -15.336,0 -27.765,12.433 -27.765,27.769 0,15.34 12.429,27.782 27.765,27.782 15.34,0 27.782,-12.442 27.782,-27.782" /><path
         id="path4352"
         style="fill:#000000;fill-opacity:1;fill-rule:nonzero;stroke:none"
         d="m 192.707,224.355 c -3.805,0 -7.23,-2.227 -8.746,-5.715 l -15.106,-34.699 c -1.066,-2.45 -2.394,-4.758 -3.996,-6.891 l -2.289,-3.047 c -1.492,-1.988 -2.308,-4.391 -2.308,-6.871 l 0,-24.801 c 0,-5.269 4.269,-9.539 9.539,-9.539 l 141.199,0 c 5.258,0 9.543,4.27 9.543,9.539 l 0,24.801 c 0,2.48 -0.813,4.883 -2.293,6.871 l -2.309,3.047 c -1.586,2.133 -2.945,4.441 -4.011,6.891 l -15.09,34.699 c -1.524,3.488 -4.953,5.715 -8.742,5.715 l -95.391,0 z m 2.309,-9.52 90.769,0 c 1.528,0 2.906,-0.91 3.524,-2.293 l 13.097,-30.156 -124.011,0 13.121,30.156 c 0.605,1.383 1.984,2.293 3.5,2.293 z m -13.762,-41.969 c 6.324,0 11.453,-5.148 11.453,-11.472 0,-6.313 -5.129,-11.453 -11.453,-11.453 -6.324,0 -11.453,5.14 -11.453,11.453 0,6.324 5.129,11.472 11.453,11.472 z m 118.293,0 c 6.324,0 11.453,-5.148 11.453,-11.472 0,-6.313 -5.129,-11.453 -11.453,-11.453 -6.324,0 -11.449,5.14 -11.449,11.453 0,6.324 5.125,11.472 11.449,11.472 z m -129.746,-43.898 0,-20.977 c 0,-3.16 2.554,-5.734 5.719,-5.734 l 11.453,0 c 3.16,0 5.734,2.574 5.734,5.734 l 0,20.977 -22.906,0 z m 118.297,0 0,-20.977 c 0,-3.16 2.554,-5.734 5.715,-5.734 l 11.453,0 c 3.16,0 5.734,2.574 5.734,5.734 l 0,20.977 -22.902,0 z" /></g></g></svg>