<?xml version="1.0" encoding="UTF-8" standalone="no"?>
<svg
   xmlns:dc="http://purl.org/dc/elements/1.1/"
   xmlns:cc="http://creativecommons.org/ns#"
   xmlns:rdf="http://www.w3.org/1999/02/22-rdf-syntax-ns#"
   xmlns:svg="http://www.w3.org/2000/svg"
   xmlns="http://www.w3.org/2000/svg"
   xmlns:sodipodi="http://sodipodi.sourceforge.net/DTD/sodipodi-0.dtd"
   xmlns:inkscape="http://www.inkscape.org/namespaces/inkscape"
   width="200.000000"
   height="120.000000"
   version="1.1"
   id="svg2"
   inkscape:version="0.48.1 r9760"
   sodipodi:docname="Bundesautobahn_48_number.svg">
  <metadata
     id="metadata14">
    <rdf:RDF>
      <cc:Work
         rdf:about="">
        <dc:format>image/svg+xml</dc:format>
        <dc:type
           rdf:resource="http://purl.org/dc/dcmitype/StillImage" />
        <dc:title></dc:title>
      </cc:Work>
    </rdf:RDF>
  </metadata>
  <defs
     id="defs12" />
  <sodipodi:namedview
     pagecolor="#ffffff"
     bordercolor="#666666"
     borderopacity="1"
     objecttolerance="10"
     gridtolerance="10"
     guidetolerance="10"
     inkscape:pageopacity="0"
     inkscape:pageshadow="2"
     inkscape:window-width="640"
     inkscape:window-height="484"
     id="namedview10"
     showgrid="false"
     inkscape:zoom="1.9666667"
     inkscape:cx="100"
     inkscape:cy="60"
     inkscape:window-x="0"
     inkscape:window-y="0"
     inkscape:window-maximized="0"
     inkscape:current-layer="svg2" />
  <rect
     x=".25"
     y=".25"
     width="199.5"
     height="119.5"
     rx="10"
     ry="10"
     stroke="black"
     stroke-width=".25"
     fill="white"
     id="rect4" />
  <path
     fill="#003399"
     stroke="none"
     d="M7 60 L7 22 Q7 20 10 19 L98 5.1 Q98 5 100 5Q102 5 102 5.1 L190 19 Q193 20 193 22 L193 98       Q193 100 190 101 L102 114.9 Q102 115 100 115       Q98 115 98 114.9 L10 101 Q7 100 7 98"
     id="path6"
     style="fill:#154889;fill-opacity:1" />
  <path
     fill="white"
     fill-rule="evenodd"
     stroke="none"
     d="M55.8104755341144 84.0723638869745 V74.9758787043418 L78.3439007580979 26.7691247415575 H89.1026878015162 L66.3383873190903 74.9758787043418 H83.8849069607167 V55.5823569951757 H93.5354927636113 V74.9758787043418 H98.9379738111647 V84.0723638869745 H93.5354927636113 V94.0461750516885 H83.8849069607167 V84.0723638869745 H55.8104755341144 ZM113.113714679531 45.4700206753963 Q113.113714679531 50.2260509993108 116.068917987595 52.6733287388008 T122.764300482426 55.1206064782908 Q126.458304617505 55.1206064782908 129.413507925569 52.6733287388008 T132.41488628532 45.4700206753963 Q132.41488628532 40.7601654031702 129.459682977257 38.3128876636802 T122.764300482426 35.8194348725017 Q119.070296347347 35.8194348725017 116.115093039283 38.2667126119917 T113.113714679531 45.4700206753963 ZM102.262577532736 74.4217780840799 Q102.262577532736 64.5864920744314 110.204686423156 59.276361130255 Q107.203308063405 56.5982081323225 105.356305995865 53.3659545141282 T103.463128876637 45.6547208821502 Q103.463128876637 37.5279117849759 109.004135079256 31.8483804272915 T122.764300482426 26.1688490696072 Q130.937284631289 26.1688490696072 136.478290833908 31.8483804272915 T142.065472088215 45.6547208821502 Q142.065472088215 50.0875258442453 140.172294968987 53.3197794624397 T135.370089593384 59.276361130255 Q143.266023432116 64.6326671261199 143.266023432116 74.4217780840799 Q143.266023432116 83.3797381116471 137.217091660924 88.9669193659545 T122.764300482426 94.6002756719504 Q114.360441075121 94.6002756719504 108.311509303928 89.013094417643 T102.262577532736 74.4217780840799 ZM111.913163335631 74.329427980703 Q111.913163335631 78.946933149552 115.145416953825 81.9483115093039 T122.764300482426 84.9958649207443 Q127.058580289456 84.9958649207443 130.337008959338 81.9944865609924 T133.66161268091 74.329427980703 Q133.66161268091 69.7119228118539 130.383184011027 66.6643694004135 T122.764300482426 63.6168159889731 Q118.423845623708 63.6168159889731 115.191592005513 66.6643694004135 T111.913163335631 74.329427980703 Z"
     id="path8" />
</svg>
