<?xml version="1.0" encoding="UTF-8" standalone="no"?>
<svg
   xmlns:dc="http://purl.org/dc/elements/1.1/"
   xmlns:cc="http://creativecommons.org/ns#"
   xmlns:rdf="http://www.w3.org/1999/02/22-rdf-syntax-ns#"
   xmlns:svg="http://www.w3.org/2000/svg"
   xmlns="http://www.w3.org/2000/svg"
   viewBox="0 0 600 330"
   height="330"
   width="600"
   xml:space="preserve"
   version="1.1"
   id="svg14825"><metadata
     id="metadata14831"><rdf:RDF><cc:Work
         rdf:about=""><dc:format>image/svg+xml</dc:format><dc:type
           rdf:resource="http://purl.org/dc/dcmitype/StillImage" /><dc:title></dc:title></cc:Work></rdf:RDF></metadata><defs
     id="defs14829"><clipPath
       id="clipPath14843"
       clipPathUnits="userSpaceOnUse"><path
         id="path14845"
         d="M 0,0 480,0 480,264 0,264 0,0 Z" /></clipPath><clipPath
       id="clipPath14861"
       clipPathUnits="userSpaceOnUse"><path
         id="path14863"
         d="m 108,86 264,0 0,92 -264,0 0,-92 z" /></clipPath></defs><g
     transform="matrix(1.25,0,0,-1.25,0,330)"
     id="g14833"><g
       id="g14835"><g
         id="g14837"><g
           id="g14839"><g
             clip-path="url(#clipPath14843)"
             id="g14841"><g
               id="g14847"><path
                 id="path14849"
                 style="fill:#ffffff;fill-opacity:1;fill-rule:nonzero;stroke:none"
                 d="m 31.996,263.758 c -17.512,0 -31.754,-14.254 -31.754,-31.766 l 0,-199.996 C 0.242,14.484 14.484,0.242 31.996,0.242 l 416.008,0 c 17.512,0 31.754,14.242 31.754,31.754 l 0,199.996 c 0,17.512 -14.242,31.766 -31.754,31.766" /><path
                 id="path14851"
                 style="fill:#000000;fill-opacity:1;fill-rule:nonzero;stroke:none"
                 d="M 31.996,0.484 C 14.613,0.484 0.484,14.613 0.484,31.996 l 0,199.996 c 0,17.383 14.129,31.524 31.512,31.524 l 416.008,0 c 17.383,0 31.512,-14.141 31.512,-31.524 l 0,-199.996 c 0,-17.383 -14.129,-31.512 -31.512,-31.512 l -416.008,0 z M 448.004,264 31.996,264 C 14.32,264 0,249.672 0,231.992 L 0,31.996 C 0,14.328 14.32,0 31.996,0 L 448.004,0 C 465.672,0 480,14.328 480,31.996 l 0,199.996 C 480,249.672 465.672,264 448.004,264" /></g></g></g></g><path
         id="path14853"
         style="fill:#000000;fill-opacity:1;fill-rule:nonzero;stroke:none"
         d="m 31.996,19.996 416.008,0 c 6.629,0 12,5.371 12,12 l 0,199.996 c 0,6.629 -5.371,12 -12,12 l -416.008,0 c -6.629,0 -12,-5.371 -12,-12 l 0,-199.996 c 0,-6.629 5.371,-12 12,-12 z m 0,-12 c -13.258,0 -24,10.742 -24,24 l 0,199.996 c 0,13.258 10.742,24 24,24 l 416.008,0 c 13.258,0 24,-10.742 24,-24 l 0,-199.996 c 0,-13.258 -10.742,-24 -24,-24" /><g
         id="g14855"><g
           id="g14857"><g
             clip-path="url(#clipPath14861)"
             id="g14859"><g
               id="g14865"><path
                 id="path14867"
                 style="fill:#000000;fill-opacity:1;fill-rule:nonzero;stroke:none"
                 d="m 108.844,87.613 0,89.887 57.578,0 0,-12.844 -43.973,0 0,-25.676 37.578,0 0,-12.039 -37.578,0 0,-26.48 43.973,0 0,-12.848 -57.578,0 z m 71.984,0 0,64.211 12.785,0 0,-7.25 c 7.5,9.313 21.09,10.754 30.371,3.227 5.071,-4.106 8.016,-10.305 8.016,-16.852 l 0,-43.336 -12.785,0 0,39.328 c 0,7.094 -5.735,12.832 -12.801,12.832 -7.066,0 -12.801,-5.738 -12.801,-12.832 l 0,-39.328 -12.785,0 z m 119.953,0 -12.801,0 0,7.254 c -7.484,-9.312 -21.089,-10.769 -30.355,-3.246 -5.086,4.125 -8.027,10.309 -8.027,16.856 l 0,22.472 c 0,11.965 9.668,21.668 21.59,21.668 6.519,0 12.699,-2.957 16.792,-8.043 l 0,32.926 12.801,0 0,-89.887 z m -12.801,24.883 0,14.445 c 0,7.094 -5.718,12.832 -12.785,12.832 -7.066,0 -12.8,-5.738 -12.8,-12.832 l 0,-14.445 c 0,-7.094 5.734,-12.844 12.8,-12.844 7.067,0 12.785,5.75 12.785,12.844 m 83.176,2.41 -39.98,0 0,-1.617 c 0,-5.562 3.375,-10.594 8.547,-12.656 7.113,-2.856 15.242,-0.852 20.226,4.972 l 9.711,-8.359 c -8.547,-10.008 -22.496,-13.437 -34.691,-8.535 -10.028,4.019 -16.59,13.754 -16.59,24.578 l 0,12.844 c 0,14.633 11.82,26.484 26.387,26.484 14.582,0 26.39,-11.851 26.39,-26.484 l 0,-11.227 z m -39.98,11.227 27.195,0 c 0,7.543 -6.094,13.64 -13.605,13.64 -7.5,0 -13.59,-6.097 -13.59,-13.64" /></g></g></g></g></g></g></svg>