<?xml version="1.0" encoding="UTF-8" standalone="no"?>
<svg
   xmlns:dc="http://purl.org/dc/elements/1.1/"
   xmlns:cc="http://creativecommons.org/ns#"
   xmlns:rdf="http://www.w3.org/1999/02/22-rdf-syntax-ns#"
   xmlns:svg="http://www.w3.org/2000/svg"
   xmlns="http://www.w3.org/2000/svg"
   viewBox="0 0 600 330.00003"
   height="330.00003"
   width="600"
   xml:space="preserve"
   version="1.1"
   id="svg32924"><metadata
     id="metadata32930"><rdf:RDF><cc:Work
         rdf:about=""><dc:format>image/svg+xml</dc:format><dc:type
           rdf:resource="http://purl.org/dc/dcmitype/StillImage" /><dc:title></dc:title></cc:Work></rdf:RDF></metadata><defs
     id="defs32928"><clipPath
       id="clipPath32944"
       clipPathUnits="userSpaceOnUse"><path
         id="path32946"
         d="M 0,1 480,1 480,265 0,265 0,1 Z" /></clipPath><clipPath
       id="clipPath32960"
       clipPathUnits="userSpaceOnUse"><path
         id="path32962"
         d="m 476.938,264 3.062,0 0,-264 -3.062,0 0,264 z" /></clipPath><clipPath
       id="clipPath32970"
       clipPathUnits="userSpaceOnUse"><path
         id="path32972"
         d="m 444,1 36,0 0,264 -36,0 0,-264 z" /></clipPath><clipPath
       id="clipPath32980"
       clipPathUnits="userSpaceOnUse"><path
         id="path32982"
         d="m 444,265 36,0 0,-264 -36,0 0,264 z" /></clipPath><clipPath
       id="clipPath32990"
       clipPathUnits="userSpaceOnUse"><path
         id="path32992"
         d="m 444,0 36,0 0,265 -36,0 0,-265 z" /></clipPath><clipPath
       id="clipPath33012"
       clipPathUnits="userSpaceOnUse"><path
         id="path33014"
         d="M 0,0 480,0 480,265 0,265 0,0 Z" /></clipPath><clipPath
       id="clipPath33024"
       clipPathUnits="userSpaceOnUse"><path
         id="path33026"
         d="M 0,1 480,1 480,265 0,265 0,1 Z" /></clipPath><clipPath
       id="clipPath33034"
       clipPathUnits="userSpaceOnUse"><path
         id="path33036"
         d="M 0.215,265 480,265 480,1 0.215,1 l 0,264 z" /></clipPath><clipPath
       id="clipPath33044"
       clipPathUnits="userSpaceOnUse"><path
         id="path33046"
         d="m 40,63 64,0 0,140 -64,0 0,-140 z" /></clipPath><clipPath
       id="clipPath33058"
       clipPathUnits="userSpaceOnUse"><path
         id="path33060"
         d="M 0,0 480,0 480,265 0,265 0,0 Z" /></clipPath><clipPath
       id="clipPath33070"
       clipPathUnits="userSpaceOnUse"><path
         id="path33072"
         d="M 0,1 480,1 480,265 0,265 0,1 Z" /></clipPath><clipPath
       id="clipPath33080"
       clipPathUnits="userSpaceOnUse"><path
         id="path33082"
         d="M 0.215,265 480,265 480,1 0.215,1 l 0,264 z" /></clipPath><clipPath
       id="clipPath33090"
       clipPathUnits="userSpaceOnUse"><path
         id="path33092"
         d="m 376,63 64,0 0,140 -64,0 0,-140 z" /></clipPath><clipPath
       id="clipPath33104"
       clipPathUnits="userSpaceOnUse"><path
         id="path33106"
         d="M 0,0 480,0 480,265 0,265 0,0 Z" /></clipPath><clipPath
       id="clipPath33116"
       clipPathUnits="userSpaceOnUse"><path
         id="path33118"
         d="M 0,1 480,1 480,265 0,265 0,1 Z" /></clipPath><clipPath
       id="clipPath33126"
       clipPathUnits="userSpaceOnUse"><path
         id="path33128"
         d="M 0.215,265 480,265 480,1 0.215,1 l 0,264 z" /></clipPath><clipPath
       id="clipPath33136"
       clipPathUnits="userSpaceOnUse"><path
         id="path33138"
         d="m 231,71 109,0 0,84 -109,0 0,-84 z" /></clipPath><clipPath
       id="clipPath33150"
       clipPathUnits="userSpaceOnUse"><path
         id="path33152"
         d="M 0,0 480,0 480,265 0,265 0,0 Z" /></clipPath><clipPath
       id="clipPath33162"
       clipPathUnits="userSpaceOnUse"><path
         id="path33164"
         d="M 0,1 480,1 480,265 0,265 0,1 Z" /></clipPath><clipPath
       id="clipPath33172"
       clipPathUnits="userSpaceOnUse"><path
         id="path33174"
         d="M 0.215,265 480,265 480,1 0.215,1 l 0,264 z" /></clipPath><clipPath
       id="clipPath33182"
       clipPathUnits="userSpaceOnUse"><path
         id="path33184"
         d="m 141,70 60,0 0,103 -60,0 0,-103 z" /></clipPath></defs><g
     transform="matrix(1.25,0,0,-1.25,0,330.00004)"
     id="g32932"><g
       id="g32934" /><g
       id="g32936"><g
         transform="translate(0,-0.999969)"
         id="g32938"><g
           id="g32940"><g
             clip-path="url(#clipPath32944)"
             id="g32942"><g
               id="g32948"><path
                 id="path32950"
                 style="fill:#ffffff;fill-opacity:1;fill-rule:nonzero;stroke:none"
                 d="m 31.996,264.758 c -17.512,0 -31.754,-14.254 -31.754,-31.766 l 0,-199.996 C 0.242,15.484 14.484,1.242 31.996,1.242 l 416.008,0 c 17.512,0 31.754,14.242 31.754,31.754 l 0,199.996 c 0,17.512 -14.242,31.766 -31.754,31.766" /><path
                 id="path32952"
                 style="fill:#000000;fill-opacity:1;fill-rule:nonzero;stroke:none"
                 d="M 31.996,1.484 C 14.613,1.484 0.484,15.613 0.484,32.996 l 0,199.996 c 0,17.383 14.129,31.524 31.512,31.524 l 416.008,0 c 17.383,0 31.512,-14.141 31.512,-31.524 l 0,-199.996 c 0,-17.383 -14.129,-31.512 -31.512,-31.512 l -416.008,0 z M 448.004,265 31.996,265 C 14.32,265 0,250.672 0,232.992 L 0,32.996 C 0,15.328 14.32,1 31.996,1 L 448.004,1 C 465.672,1 480,15.328 480,32.996 l 0,199.996 C 480,250.672 465.672,265 448.004,265" /></g></g></g></g><path
         id="path32954"
         style="fill:#000000;fill-opacity:1;fill-rule:nonzero;stroke:none"
         d="m 31.996,19.996 416.008,0 c 6.629,0 12,5.371 12,12 l 0,199.996 c 0,6.629 -5.371,12 -12,12 l -416.008,0 c -6.629,0 -12,-5.371 -12,-12 l 0,-199.996 c 0,-6.629 5.371,-12 12,-12 z m 0,-12 c -13.258,0 -24,10.742 -24,24 l 0,199.996 c 0,13.258 10.742,24 24,24 l 416.008,0 c 13.258,0 24,-10.742 24,-24 l 0,-199.996 c 0,-13.258 -10.742,-24 -24,-24" /></g><g
       id="g32956"><g
         clip-path="url(#clipPath32960)"
         id="g32958"><g
           transform="translate(0,-0.999969)"
           id="g32964"><g
             id="g32966"><g
               clip-path="url(#clipPath32970)"
               id="g32968"><g
                 id="g32974" /><g
                 id="g32976"><g
                   clip-path="url(#clipPath32980)"
                   id="g32978"><g
                     id="g32984"><g
                       id="g32986"><g
                         clip-path="url(#clipPath32990)"
                         id="g32988"><g
                           id="g32994"><path
                             id="path32996"
                             style="fill:none;stroke:#ffffff;stroke-width:0.5;stroke-linecap:butt;stroke-linejoin:miter;stroke-miterlimit:10;stroke-dasharray:none;stroke-opacity:1"
                             d="m 476.801,531.469 0,11.34 m -8.504,-19.844 -11.34,0 m 615.117,8.504 0,11.34 m 8.504,-19.844 11.34,0 m -615.117,-850.395 0,-11.34 m -8.504,19.844 -11.34,0 m 615.117,-8.504 0,-11.34 m 8.504,19.844 11.34,0" /><path
                             id="path32998"
                             style="fill:none;stroke:#000000;stroke-width:0.25;stroke-linecap:butt;stroke-linejoin:miter;stroke-miterlimit:10;stroke-dasharray:none;stroke-opacity:1"
                             d="m 476.801,531.469 0,11.34 m -8.504,-19.844 -11.34,0 m 615.117,8.504 0,11.34 m 8.504,-19.844 11.34,0 m -615.117,-850.395 0,-11.34 m -8.504,19.844 -11.34,0 m 615.117,-8.504 0,-11.34 m 8.504,19.844 11.34,0" /><path
                             id="path33000"
                             style="fill:none;stroke:#ffffff;stroke-width:0.5;stroke-linecap:butt;stroke-linejoin:miter;stroke-miterlimit:10;stroke-dasharray:none;stroke-opacity:1"
                             d="m 750.438,543.469 48,0 m -48,-882.899 48,0 m -342.145,465.45 0,-48 m 636.285,48 0,-48 m -318.14,477.449 0,-24 m 0,-858.899 0,-24 m -330.145,453.45 24.004,0 m 612.281,0 24,0 m -330.14,441.449 6,0 c 0,-3.313 -2.688,-6 -6,-6 -3.317,0 -6,2.687 -6,6 0,3.312 2.683,6 6,6 3.312,0 6,-2.688 6,-6 m -6,-882.899 6,0 c 0,-3.312 -2.688,-6 -6,-6 -3.317,0 -6,2.688 -6,6 0,3.313 2.683,6 6,6 3.312,0 6,-2.687 6,-6 m -324.145,441.45 6,0 c 0,-3.313 -2.684,-6 -6,-6 -3.313,0 -6,2.687 -6,6 0,3.312 2.687,6 6,6 3.316,0 6,-2.688 6,-6 m 630.285,0 6,0 c 0,-3.313 -2.687,-6 -6,-6 -3.312,0 -6,2.687 -6,6 0,3.312 2.688,6 6,6 3.313,0 6,-2.688 6,-6" /><path
                             id="path33002"
                             style="fill:none;stroke:#000000;stroke-width:0.25;stroke-linecap:butt;stroke-linejoin:miter;stroke-miterlimit:10;stroke-dasharray:none;stroke-opacity:1"
                             d="m 750.438,543.469 48,0 m -48,-882.899 48,0 m -342.145,465.45 0,-48 m 636.285,48 0,-48 m -318.14,477.449 0,-24 m 0,-858.899 0,-24 m -330.145,453.45 24.004,0 m 612.281,0 24,0 m -330.14,441.449 6,0 c 0,-3.313 -2.688,-6 -6,-6 -3.317,0 -6,2.687 -6,6 0,3.312 2.683,6 6,6 3.312,0 6,-2.688 6,-6 m -6,-882.899 6,0 c 0,-3.312 -2.688,-6 -6,-6 -3.317,0 -6,2.688 -6,6 0,3.313 2.683,6 6,6 3.312,0 6,-2.687 6,-6 m -324.145,441.45 6,0 c 0,-3.313 -2.684,-6 -6,-6 -3.313,0 -6,2.687 -6,6 0,3.312 2.687,6 6,6 3.316,0 6,-2.688 6,-6 m 630.285,0 6,0 c 0,-3.313 -2.687,-6 -6,-6 -3.312,0 -6,2.687 -6,6 0,3.312 2.688,6 6,6 3.313,0 6,-2.688 6,-6" /></g></g></g></g></g></g></g></g></g></g></g><g
       id="g33004"><g
         transform="translate(0,-0.999969)"
         id="g33006"><g
           id="g33008"><g
             clip-path="url(#clipPath33012)"
             id="g33010"><g
               id="g33016"><g
                 id="g33018"><g
                   id="g33020"><g
                     clip-path="url(#clipPath33024)"
                     id="g33022"><g
                       id="g33028" /><g
                       id="g33030"><g
                         clip-path="url(#clipPath33034)"
                         id="g33032"><g
                           id="g33038"><g
                             id="g33040"><g
                               clip-path="url(#clipPath33044)"
                               id="g33042"><g
                                 id="g33048"><path
                                   id="path33050"
                                   style="fill:#231f20;fill-opacity:1;fill-rule:nonzero;stroke:none"
                                   d="m 71.723,203 31.492,-31.496 0,-22.5 -22.504,22.5 0,-108.504 -17.992,0 0,108.504 -22.5,-22.5 0,22.5" /></g></g></g></g></g></g></g></g></g></g></g></g></g><g
         transform="translate(0,-0.999969)"
         id="g33052"><g
           id="g33054"><g
             clip-path="url(#clipPath33058)"
             id="g33056"><g
               id="g33062"><g
                 id="g33064"><g
                   id="g33066"><g
                     clip-path="url(#clipPath33070)"
                     id="g33068"><g
                       id="g33074" /><g
                       id="g33076"><g
                         clip-path="url(#clipPath33080)"
                         id="g33078"><g
                           id="g33084"><g
                             id="g33086"><g
                               clip-path="url(#clipPath33090)"
                               id="g33088"><g
                                 id="g33094"><path
                                   id="path33096"
                                   style="fill:#231f20;fill-opacity:1;fill-rule:nonzero;stroke:none"
                                   d="m 408.289,203 31.492,-31.496 0,-22.5 -22.5,22.5 0,-108.504 -17.992,0 0,108.504 -22.504,-22.5 0,22.5" /></g></g></g></g></g></g></g></g></g></g></g></g></g><g
         transform="translate(0,-0.999969)"
         id="g33098"><g
           id="g33100"><g
             clip-path="url(#clipPath33104)"
             id="g33102"><g
               id="g33108"><g
                 id="g33110"><g
                   id="g33112"><g
                     clip-path="url(#clipPath33116)"
                     id="g33114"><g
                       id="g33120" /><g
                       id="g33122"><g
                         clip-path="url(#clipPath33126)"
                         id="g33124"><g
                           id="g33130"><g
                             id="g33132"><g
                               clip-path="url(#clipPath33136)"
                               id="g33134"><g
                                 id="g33140"><path
                                   id="path33142"
                                   style="fill:#231f20;fill-opacity:1;fill-rule:nonzero;stroke:none"
                                   d="m 279.102,71 0,60 12.011,0 0,-5.996 c 3.313,6.215 11.035,8.566 17.239,5.25 1.992,-1.063 3.664,-2.637 4.847,-4.551 4.528,6.434 13.422,7.977 19.863,3.445 3.786,-2.668 6.04,-7.011 6.04,-11.648 l 0,-46.5 -11.989,0 0,42.746 c 0,3.316 -2.691,6.008 -6.008,6.008 -3.312,0 -5.992,-2.692 -5.992,-6.008 l 0,-42.746 -12.011,0 0,42.746 c 0,3.316 -2.68,6.008 -5.997,6.008 -3.312,0 -5.992,-2.692 -5.992,-6.008 l 0,-42.746 -12.011,0 z m -47.989,0 0,84 12,0 0,-50.246 14.996,26.246 12,0 -14.254,-24 17.25,-36 -13.496,0 -10.504,25.496 -5.992,-9.004 0,-16.492 -12,0 z" /></g></g></g></g></g></g></g></g></g></g></g></g></g><g
         transform="translate(0,-0.999969)"
         id="g33144"><g
           id="g33146"><g
             clip-path="url(#clipPath33150)"
             id="g33148"><g
               id="g33154"><g
                 id="g33156"><g
                   id="g33158"><g
                     clip-path="url(#clipPath33162)"
                     id="g33160"><g
                       id="g33166" /><g
                       id="g33168"><g
                         clip-path="url(#clipPath33172)"
                         id="g33170"><g
                           id="g33176"><g
                             id="g33178"><g
                               clip-path="url(#clipPath33182)"
                               id="g33180"><g
                                 id="g33186"><path
                                   id="path33188"
                                   style="fill:#231f20;fill-opacity:1;fill-rule:nonzero;stroke:none"
                                   d="m 141.324,96.203 14.617,0 c 1.989,-8.219 10.25,-13.258 18.465,-11.269 6.867,1.664 11.703,7.8 11.703,14.867 l 0,1.804 c 0,8.446 -6.847,15.293 -15.304,15.293 l -6.301,0 0,12.602 6.301,0 c 7.953,0 14.398,6.441 14.398,14.406 0,7.953 -6.445,14.395 -14.398,14.395 -6.914,0 -12.852,-4.91 -14.145,-11.703 l -14.523,0 c 1.484,15.84 15.531,27.468 31.371,25.98 14.789,-1.402 26.101,-13.816 26.101,-28.672 0,-8.203 -3.992,-15.883 -10.699,-20.609 7.242,-4.844 11.594,-12.985 11.594,-21.692 l 0,-1.804 c 0,-16.399 -13.289,-29.699 -29.699,-29.699 -15.008,0 -27.664,11.199 -29.481,26.101" /></g></g></g></g></g></g></g></g></g></g></g></g></g></g></g></svg>