<?xml version="1.0" encoding="UTF-8" standalone="no"?>
<svg
   xmlns:dc="http://purl.org/dc/elements/1.1/"
   xmlns:cc="http://creativecommons.org/ns#"
   xmlns:rdf="http://www.w3.org/1999/02/22-rdf-syntax-ns#"
   xmlns:svg="http://www.w3.org/2000/svg"
   xmlns="http://www.w3.org/2000/svg"
   viewBox="0 0 600 450.00348"
   height="450.00348"
   width="600"
   xml:space="preserve"
   version="1.1"
   id="svg6561"><metadata
     id="metadata6567"><rdf:RDF><cc:Work
         rdf:about=""><dc:format>image/svg+xml</dc:format><dc:type
           rdf:resource="http://purl.org/dc/dcmitype/StillImage" /><dc:title></dc:title></cc:Work></rdf:RDF></metadata><defs
     id="defs6565"><clipPath
       id="clipPath6581"
       clipPathUnits="userSpaceOnUse"><path
         id="path6583"
         d="M 0,0 480,0 480,361 0,361 0,0 Z" /></clipPath></defs><g
     transform="matrix(1.25,0,0,-1.25,0,450.00347)"
     id="g6569"><g
       id="g6571" /><g
       id="g6573"><g
         transform="translate(0,-0.997223)"
         id="g6575"><g
           id="g6577"><g
             clip-path="url(#clipPath6581)"
             id="g6579"><g
               id="g6585"><path
                 id="path6587"
                 style="fill:#ffffff;fill-opacity:1;fill-rule:nonzero;stroke:none"
                 d="m 31.996,360.77 c -17.504,0 -31.754,-14.25 -31.754,-31.758 l 0,-296.004 C 0.242,15.488 14.492,1.25 31.996,1.25 l 416.008,0 c 17.516,0 31.766,14.238 31.766,31.758 l 0,296.004 c 0,17.508 -14.25,31.758 -31.766,31.758" /><path
                 id="path6589"
                 style="fill:#000000;fill-opacity:1;fill-rule:nonzero;stroke:none"
                 d="M 31.996,1.48 C 14.613,1.48 0.473,15.621 0.473,33.008 l 0,295.996 c 0,17.383 14.14,31.535 31.523,31.535 l 416.008,0 c 17.383,0 31.523,-14.152 31.523,-31.535 l 0,-295.996 c 0,-17.387 -14.14,-31.528 -31.523,-31.528 l -416.008,0 z m 416.008,359.532 -416.008,0 C 14.328,361.012 0,346.684 0,329.004 L 0,33.008 C 0,15.324 14.328,0.996 31.996,0.996 l 416.008,0 C 465.672,0.996 480,15.324 480,33.008 l 0,295.996 c 0,17.68 -14.328,32.008 -31.996,32.008" /></g></g></g></g><path
         id="path6591"
         style="fill:#000000;fill-opacity:1;fill-rule:nonzero;stroke:none"
         d="m 31.996,8.007 c -13.25,0 -23.992,10.754 -23.992,24.004 l 0,296.003 c 0,13.25 10.742,23.997 23.992,23.997 l 416.008,0 c 13.25,0 24.004,-10.747 24.004,-23.997 l 0,-296.003 c 0,-13.25 -10.754,-24.004 -24.004,-24.004" /><path
         id="path6593"
         style="fill:#ffffff;fill-opacity:1;fill-rule:nonzero;stroke:none"
         d="M 31.996,20.014 C 25.379,20.014 20,25.378 20,32.011 l 0,296.003 c 0,6.633 5.379,12 11.996,12 l 416.008,0 c 6.629,0 12.004,-5.367 12.004,-12 l 0,-296.003 c 0,-6.633 -5.375,-11.997 -12.004,-11.997" /><path
         id="path6595"
         style="fill:#000000;fill-opacity:1;fill-rule:nonzero;stroke:none"
         d="m 95.355,241.612 0,61.598 26.403,0 0,-8.246 -17.606,0 0,-18.703 15.395,0 0,-8.25 -15.395,0 0,-26.399" /><path
         id="path6597"
         style="fill:#000000;fill-opacity:1;fill-rule:nonzero;stroke:none"
         d="m 134.953,254.268 c 0,-2.429 1.965,-4.41 4.399,-4.41 2.429,0 4.398,1.981 4.398,4.41 l 0,18.692 c 0,2.429 -1.969,4.398 -4.398,4.398 -2.434,0 -4.399,-1.969 -4.399,-4.398 l 0,-18.692 z m -8.797,0 0,18.692 c 0,7.289 5.903,13.207 13.196,13.207 7.289,0 13.203,-5.918 13.203,-13.207 l 0,-18.692 c 0,-7.293 -5.914,-13.207 -13.203,-13.207 -7.293,0 -13.196,5.914 -13.196,13.207" /><path
         id="path6599"
         style="fill:#000000;fill-opacity:1;fill-rule:nonzero;stroke:none"
         d="m 161.352,241.612 0,44.004 8.796,0 0,-4.969 c 2.829,3.485 7.071,5.52 11.559,5.52 l 0,-9.246 c -4.621,1.515 -9.602,-0.992 -11.117,-5.61 -0.285,-0.89 -0.442,-1.816 -0.442,-2.75 l 0,-26.949" /><path
         id="path6601"
         style="fill:#000000;fill-opacity:1;fill-rule:nonzero;stroke:none"
         d="m 185.004,254.268 8.246,0 c 0,-2.738 2.223,-4.961 4.949,-4.961 2.739,0 4.961,2.223 4.961,4.961 0,1.957 -1.168,3.727 -2.949,4.52 l -7.137,2.605 c -6.386,2.836 -9.269,10.301 -6.441,16.692 2.836,6.387 10.301,9.281 16.691,6.441 4.574,-2.023 7.531,-6.562 7.531,-11.566 l -8.257,0 c 0,2.429 -1.969,4.398 -4.399,4.398 -2.429,0 -4.398,-1.969 -4.398,-4.398 0,-1.738 1.023,-3.321 2.617,-4.024 l 7.137,-2.605 c 6.664,-2.949 9.664,-10.754 6.718,-17.418 -2.957,-6.664 -10.753,-9.676 -17.418,-6.719 -4.773,2.11 -7.851,6.852 -7.851,12.074" /><path
         id="path6603"
         style="fill:#000000;fill-opacity:1;fill-rule:nonzero;stroke:none"
         d="m 233.398,241.612 -4.398,0 c -5.465,0 -9.898,4.43 -9.898,9.895 l 0,26.949 -4.399,0 0,7.16 4.399,0 0,13.195 8.796,0 0,-13.195 5.5,0 0,-7.16 -5.5,0 0,-25.84 c 0,-1.516 1.231,-2.758 2.75,-2.758 l 2.75,0" /><path
         id="path6605"
         style="fill:#000000;fill-opacity:1;fill-rule:nonzero;stroke:none"
         d="m 248.254,241.612 -10.449,44.004 9.347,0 5.5,-27.5 4.946,27.5 6.609,0 4.949,-27.5 5.496,27.5 9.348,0 -10.445,-44.004 -7.7,0 -4.945,26.399 -4.961,-26.399" /><path
         id="path6607"
         style="fill:#000000;fill-opacity:1;fill-rule:nonzero;stroke:none"
         d="m 298.305,294.413 -8.797,0 0,8.797 8.797,0 0,-8.797 z m -8.797,-52.801 0,44.004 8.797,0 0,-44.004" /><path
         id="path6609"
         style="fill:#000000;fill-opacity:1;fill-rule:nonzero;stroke:none"
         d="m 307.102,241.612 0,44.004 8.796,0 0,-4.969 c 2.825,3.485 7.071,5.52 11.559,5.52 l 0,-9.246 c -4.621,1.515 -9.602,-0.992 -11.109,-5.61 -0.293,-0.89 -0.45,-1.816 -0.45,-2.75 l 0,-26.949" /><path
         id="path6611"
         style="fill:#000000;fill-opacity:1;fill-rule:nonzero;stroke:none"
         d="m 350.559,241.612 -4.411,0 c -5.453,0 -9.898,4.43 -9.898,9.895 l 0,26.949 -4.398,0 0,7.16 4.398,0 0,13.195 8.809,0 0,-13.195 5.5,0 0,-7.16 -5.5,0 0,-25.84 c 0,-1.516 1.234,-2.758 2.75,-2.758 l 2.75,0" /><path
         id="path6613"
         style="fill:#000000;fill-opacity:1;fill-rule:nonzero;stroke:none"
         d="m 358.262,270.218 26.391,0 0,-8.797 -26.391,0 0,8.797 z" /><path
         id="path6615"
         style="fill:#000000;fill-opacity:1;fill-rule:nonzero;stroke:none"
         d="m 70.879,161.858 8.246,0 c 0,-2.726 2.223,-4.949 4.949,-4.949 2.738,0 4.949,2.223 4.949,4.949 0,1.969 -1.156,3.739 -2.937,4.531 l -7.137,2.606 c -6.387,2.836 -9.269,10.305 -6.441,16.691 2.836,6.391 10.301,9.27 16.691,6.446 4.574,-2.024 7.531,-6.567 7.531,-11.571 l -8.257,0 c 0,2.43 -1.969,4.399 -4.399,4.399 -2.429,0 -4.398,-1.969 -4.398,-4.399 0,-1.734 1.023,-3.32 2.617,-4.023 l 7.125,-2.606 c 6.676,-2.957 9.676,-10.753 6.73,-17.418 -2.957,-6.664 -10.753,-9.675 -17.418,-6.718 -4.773,2.113 -7.851,6.84 -7.851,12.062" /><path
         id="path6617"
         style="fill:#000000;fill-opacity:1;fill-rule:nonzero;stroke:none"
         d="m 129.18,162.409 0,-0.547 c 0,-7.289 -5.918,-13.195 -13.207,-13.195 -7.289,0 -13.196,5.906 -13.196,13.195 l 0,18.703 c 0,7.293 5.907,13.196 13.196,13.196 7.289,0 13.207,-5.903 13.207,-13.196 l 0,-0.547 -8.797,0 0,0.547 c 0,2.43 -1.981,4.399 -4.41,4.399 -2.43,0 -4.399,-1.969 -4.399,-4.399 l 0,-18.703 c 0,-2.43 1.969,-4.398 4.399,-4.398 2.429,0 4.41,1.968 4.41,4.398 l 0,0.547" /><path
         id="path6619"
         style="fill:#000000;fill-opacity:1;fill-rule:nonzero;stroke:none"
         d="m 134.676,149.214 0,61.597 8.797,0 0,-22.004 c 2.429,4.567 8.093,6.282 12.656,3.852 3.047,-1.617 4.949,-4.797 4.949,-8.25 l 0,-35.195 -8.797,0 0,31.347 c 0,2.43 -1.98,4.399 -4.41,4.399 -2.43,0 -4.398,-1.969 -4.398,-4.399 l 0,-31.347" /><path
         id="path6621"
         style="fill:#000000;fill-opacity:1;fill-rule:nonzero;stroke:none"
         d="m 186.379,168.468 -4.399,0 c -2.429,0 -4.398,-1.969 -4.398,-4.411 l 0,-2.199 c 0,-2.429 1.969,-4.398 4.398,-4.398 2.43,0 4.399,1.969 4.399,4.398 l 0,6.61 z m 8.797,-19.254 -8.797,0 0,4.398 c -2.43,-4.551 -8.094,-6.281 -12.656,-3.859 -3.047,1.636 -4.95,4.804 -4.95,8.258 l 0,6.597 c 0,6.078 4.926,11.004 10.997,11.004 l 6.609,0 0,4.949 c 0,2.43 -1.969,4.399 -4.399,4.399 -2.429,0 -4.398,-1.969 -4.398,-4.399 l -8.809,0 c 0,7.293 5.918,13.196 13.207,13.196 7.29,0 13.196,-5.903 13.196,-13.196" /><path
         id="path6623"
         style="fill:#000000;fill-opacity:1;fill-rule:nonzero;stroke:none"
         d="m 205.07,149.214 0,36.847 -4.398,0 0,7.145 4.398,0 0,6.609 c 0,6.071 4.926,10.996 11.008,10.996 l 4.399,0 0,-8.246 -3.848,0 c -1.52,0 -2.75,-1.23 -2.75,-2.75 l 0,-6.609 6.598,0 0,-7.145 -6.598,0 0,-36.847" /><path
         id="path6625"
         style="fill:#000000;fill-opacity:1;fill-rule:nonzero;stroke:none"
         d="m 243.578,149.214 -4.398,0 c -5.477,0 -9.907,4.429 -9.907,9.894 l 0,26.953 -4.398,0 0,7.145 4.398,0 0,13.207 8.809,0 0,-13.207 5.496,0 0,-7.145 -5.496,0 0,-25.851 c 0,-1.516 1.23,-2.75 2.75,-2.75 l 2.746,0" /><path
         id="path6627"
         style="fill:#000000;fill-opacity:1;fill-rule:nonzero;stroke:none"
         d="m 263.383,149.214 -3.301,0 c -5.473,0 -9.906,4.429 -9.906,9.894 l 0,51.703 8.808,0 0,-50.601 c 0,-1.516 1.231,-2.75 2.739,-2.75 l 1.66,0" /><path
         id="path6629"
         style="fill:#000000;fill-opacity:1;fill-rule:nonzero;stroke:none"
         d="m 279.875,202.014 -8.797,0 0,8.797 8.797,0 0,-8.797 z m -8.797,-52.8 0,43.992 8.797,0 0,-43.992" /><path
         id="path6631"
         style="fill:#000000;fill-opacity:1;fill-rule:nonzero;stroke:none"
         d="m 315.086,162.409 0,-0.547 c 0,-7.289 -5.918,-13.195 -13.207,-13.195 -7.301,0 -13.195,5.906 -13.195,13.195 l 0,18.703 c 0,7.293 5.894,13.196 13.195,13.196 7.289,0 13.207,-5.903 13.207,-13.196 l 0,-0.547 -8.809,0 0,0.547 c 0,2.43 -1.968,4.399 -4.398,4.399 -2.43,0 -4.399,-1.969 -4.399,-4.399 l 0,-18.703 c 0,-2.43 1.969,-4.398 4.399,-4.398 2.43,0 4.398,1.968 4.398,4.398 l 0,0.547" /><path
         id="path6633"
         style="fill:#000000;fill-opacity:1;fill-rule:nonzero;stroke:none"
         d="m 320.582,149.214 0,61.597 8.797,0 0,-22.004 c 2.43,4.567 8.094,6.282 12.644,3.852 3.059,-1.617 4.961,-4.797 4.961,-8.25 l 0,-35.195 -8.808,0 0,31.347 c 0,2.43 -1.969,4.399 -4.399,4.399 -2.429,0 -4.398,-1.969 -4.398,-4.399 l 0,-31.347" /><path
         id="path6635"
         style="fill:#000000;fill-opacity:1;fill-rule:nonzero;stroke:none"
         d="m 363.477,175.065 8.808,0 0,5.496 c 0,2.43 -1.98,4.399 -4.398,4.399 -2.43,0 -4.41,-1.969 -4.41,-4.399 l 0,-5.496 z m 17.605,-13.207 c 0,-7.289 -5.914,-13.195 -13.195,-13.195 -7.301,0 -13.207,5.906 -13.207,13.195 l 0,18.703 c 0,7.293 5.906,13.196 13.207,13.196 7.281,0 13.195,-5.903 13.195,-13.196 l 0,-12.644 -17.605,0 0,-6.059 c 0,-2.429 1.98,-4.398 4.41,-4.398 2.418,0 4.398,1.969 4.398,4.398" /><path
         id="path6637"
         style="fill:#000000;fill-opacity:1;fill-rule:nonzero;stroke:none"
         d="m 388.777,149.214 0,43.992 8.809,0 0,-4.957 c 2.816,3.484 7.059,5.508 11.547,5.508 l 0,-9.235 c -4.617,1.516 -9.59,-0.992 -11.106,-5.609 -0.297,-0.891 -0.441,-1.813 -0.441,-2.75 l 0,-26.949" /><path
         id="path6639"
         style="fill:#000000;fill-opacity:1;fill-rule:nonzero;stroke:none"
         d="m 79.125,56.815 -12.656,61.598 9.359,0 7.145,-42.906 7.148,42.906 9.359,0 -12.656,-61.598" /><path
         id="path6641"
         style="fill:#000000;fill-opacity:1;fill-rule:nonzero;stroke:none"
         d="m 110.477,82.655 8.804,0 0,5.5 c 0,2.442 -1.976,4.41 -4.406,4.41 -2.434,0 -4.398,-1.968 -4.398,-4.41 l 0,-5.5 z M 128.078,69.46 c 0,-7.289 -5.914,-13.203 -13.203,-13.203 -7.293,0 -13.195,5.914 -13.195,13.203 l 0,18.695 c 0,7.301 5.902,13.203 13.195,13.203 7.289,0 13.203,-5.902 13.203,-13.203 l 0,-12.648 -17.601,0 0,-6.047 c 0,-2.43 1.964,-4.41 4.398,-4.41 2.43,0 4.406,1.98 4.406,4.41" /><path
         id="path6643"
         style="fill:#000000;fill-opacity:1;fill-rule:nonzero;stroke:none"
         d="m 135.777,56.815 0,43.996 8.797,0 0,-4.961 c 2.824,3.477 7.071,5.508 11.555,5.508 l 0,-9.234 c -4.617,1.515 -9.586,-1 -11.117,-5.61 -0.285,-0.89 -0.438,-1.824 -0.438,-2.757 l 0,-26.942" /><path
         id="path6645"
         style="fill:#000000;fill-opacity:1;fill-rule:nonzero;stroke:none"
         d="m 161.629,56.815 0,61.598 8.797,0 0,-36.856 11.004,19.254 8.797,0 -10.457,-17.593 12.656,-26.403 -9.895,0 -7.699,18.692 -4.406,-6.598 0,-12.094" /><path
         id="path6647"
         style="fill:#000000;fill-opacity:1;fill-rule:nonzero;stroke:none"
         d="m 204.531,82.655 8.797,0 0,5.5 c 0,2.442 -1.965,4.41 -4.398,4.41 -2.43,0 -4.399,-1.968 -4.399,-4.41 l 0,-5.5 z M 222.125,69.46 c 0,-7.289 -5.914,-13.203 -13.195,-13.203 -7.289,0 -13.203,5.914 -13.203,13.203 l 0,18.695 c 0,7.301 5.914,13.203 13.203,13.203 7.281,0 13.195,-5.902 13.195,-13.203 l 0,-12.648 -17.594,0 0,-6.047 c 0,-2.43 1.969,-4.41 4.399,-4.41 2.433,0 4.398,1.98 4.398,4.41" /><path
         id="path6649"
         style="fill:#000000;fill-opacity:1;fill-rule:nonzero;stroke:none"
         d="m 229.836,56.815 0,61.598 8.797,0 0,-22 c 2.429,4.551 8.082,6.277 12.644,3.848 3.043,-1.629 4.946,-4.805 4.946,-8.247 l 0,-35.199 -8.797,0 0,31.34 c 0,2.442 -1.965,4.41 -4.395,4.41 -2.433,0 -4.398,-1.968 -4.398,-4.41 l 0,-31.34" /><path
         id="path6651"
         style="fill:#000000;fill-opacity:1;fill-rule:nonzero;stroke:none"
         d="m 265.02,56.815 0,43.996 8.808,0 0,-4.961 c 2.828,3.477 7.059,5.508 11.559,5.508 l 0,-9.234 c -4.629,1.515 -9.602,-1 -11.117,-5.61 -0.286,-0.89 -0.442,-1.824 -0.442,-2.757 l 0,-26.942" /><path
         id="path6653"
         style="fill:#000000;fill-opacity:1;fill-rule:nonzero;stroke:none"
         d="m 324.98,56.815 0,36.836 -4.398,0 0,7.16 4.398,0 0,6.598 c 0,6.078 4.926,11.004 10.997,11.004 l 4.41,0 0,-8.258 -3.86,0 c -1.519,0 -2.75,-1.23 -2.75,-2.746 l 0,-6.598 6.61,0 0,-7.16 -6.61,0 0,-36.836" /><path
         id="path6655"
         style="fill:#000000;fill-opacity:1;fill-rule:nonzero;stroke:none"
         d="m 346.984,56.815 0,43.996 8.797,0 0,-4.961 c 2.813,3.477 7.071,5.508 11.543,5.508 l 0,-9.234 c -4.605,1.515 -9.586,-1 -11.105,-5.61 -0.293,-0.89 -0.438,-1.824 -0.438,-2.757 l 0,-26.942" /><path
         id="path6657"
         style="fill:#000000;fill-opacity:1;fill-rule:nonzero;stroke:none"
         d="m 379.422,82.655 8.808,0 0,5.5 c 0,2.442 -1.968,4.41 -4.398,4.41 -2.43,0 -4.41,-1.968 -4.41,-4.41 l 0,-5.5 z M 397.027,69.46 c 0,-7.289 -5.906,-13.203 -13.195,-13.203 -7.293,0 -13.207,5.914 -13.207,13.203 l 0,18.695 c 0,7.301 5.914,13.203 13.207,13.203 7.289,0 13.195,-5.902 13.195,-13.203 l 0,-12.648 -17.605,0 0,-6.047 c 0,-2.43 1.98,-4.41 4.41,-4.41 2.43,0 4.398,1.98 4.398,4.41" /><path
         id="path6659"
         style="fill:#000000;fill-opacity:1;fill-rule:nonzero;stroke:none"
         d="m 413.531,109.608 -8.808,0 0,8.805 8.808,0 0,-8.805 z m -8.808,-52.793 0,43.996 8.808,0 0,-43.996" /></g></g></svg>