<?xml version="1.0" encoding="UTF-8" standalone="no"?>
<svg
   xmlns:dc="http://purl.org/dc/elements/1.1/"
   xmlns:cc="http://creativecommons.org/ns#"
   xmlns:rdf="http://www.w3.org/1999/02/22-rdf-syntax-ns#"
   xmlns:svg="http://www.w3.org/2000/svg"
   xmlns="http://www.w3.org/2000/svg"
   viewBox="0 0 600 450.00339"
   height="450.00339"
   width="600"
   xml:space="preserve"
   version="1.1"
   id="svg5826"><metadata
     id="metadata5832"><rdf:RDF><cc:Work
         rdf:about=""><dc:format>image/svg+xml</dc:format><dc:type
           rdf:resource="http://purl.org/dc/dcmitype/StillImage" /><dc:title></dc:title></cc:Work></rdf:RDF></metadata><defs
     id="defs5830" /><g
     transform="matrix(1.25,0,0,-1.25,0,450.00339)"
     id="g5834"><g
       id="g5836"><path
         id="path5838"
         style="fill:#000000;fill-opacity:1;fill-rule:nonzero;stroke:none"
         d="M 31.996,0.468 C 14.613,0.468 0.477,14.612 0.477,31.999 l 0,296.008 c 0,17.382 14.136,31.523 31.519,31.523 l 416.008,0 c 17.383,0 31.519,-14.141 31.519,-31.523 l 0,-296.008 c 0,-17.387 -14.136,-31.531 -31.519,-31.531 l -416.008,0 z m 416.008,359.535 -416.008,0 C 14.328,360.003 0,345.675 0,328.007 L 0,31.999 c 0,-17.672 14.328,-32 31.996,-32 l 416.008,0 c 17.668,0 31.996,14.328 31.996,32 l 0,296.008 c 0,17.668 -14.328,31.996 -31.996,31.996" /><path
         id="path5840"
         style="fill:#000000;fill-opacity:1;fill-rule:nonzero;stroke:none"
         d="m 31.996,352.011 c -13.25,0 -23.992,-10.747 -23.992,-24.004 l 0,-296.008 c 0,-13.25 10.742,-24.004 23.992,-24.004 l 416.008,0 c 13.25,0 24.004,10.754 24.004,24.004 l 0,296.008 c 0,13.257 -10.754,24.004 -24.004,24.004 l -416.008,0 z m 0,-12.008 416.008,0 c 6.629,0 12.004,-5.367 12.004,-11.996 l 0,-296.008 c 0,-6.633 -5.375,-11.996 -12.004,-11.996 l -416.008,0 C 25.379,20.003 20,25.366 20,31.999 l 0,296.008 c 0,6.629 5.379,11.996 11.996,11.996 z" /><path
         id="path5842"
         style="fill:#000000;fill-opacity:1;fill-rule:nonzero;stroke:none"
         d="m 332.984,109.577 -171.183,0 22.304,-21.734 -20.277,0 -29.543,29.558 29.832,30.137 18.828,0 -21.722,-22.602 172.339,0 -0.578,-15.359 z" /><path
         id="path5844"
         style="fill:#000000;fill-opacity:1;fill-rule:nonzero;stroke:none"
         d="m 147.027,59.155 171.184,0 -22.301,-21.73 20.274,0 29.546,29.554 -29.835,30.137 -18.829,0 21.727,-22.602 -172.344,0 0.578,-15.359 z" /><path
         id="path5846"
         style="fill:#000000;fill-opacity:1;fill-rule:nonzero;stroke:none"
         d="m 202.867,322.581 c -8.933,0 -16.836,-5.813 -19.48,-14.356 l -14.809,-47.808 c -23.754,4.816 -47.605,-7.766 -57.062,-30.09 -10.961,-25.926 1.16,-55.828 27.074,-66.801 25.926,-10.984 55.828,1.133 66.801,27.059 10.972,25.926 -1.149,55.828 -27.075,66.801 l 4.059,13.082 60.25,-66.832 c 1.941,-2.145 4.68,-3.383 7.578,-3.383 l 21.414,0 c 0.391,-1.895 0.891,-3.762 1.481,-5.594 8.734,-26.762 37.496,-41.391 64.257,-32.648 26.762,8.718 41.383,37.476 32.653,64.238 -8.719,26.762 -37.477,41.39 -64.238,32.668 l -14.793,33.086 3.832,10.195 11.464,0 0,10.191 -43.332,0 c -1.171,0 -2.207,-0.8 -2.472,-1.949 -0.336,-1.363 0.508,-2.746 1.879,-3.066 l 21.57,-5.176 -3.832,-10.195 -91.055,0 4.094,13.207 c 1.328,4.273 5.27,7.179 9.742,7.179 l 16.762,0 0,10.192 -16.762,0 z m -16.988,-40.77 90.391,0 -26.571,-70.808 -63.82,70.808 z m 100.008,-3.398 10.558,-23.606 C 280.469,245.764 270.59,228.8 270.59,210.448 l -10.192,0 25.489,67.965 z m -127.188,-27.18 c 2.266,-0.015 4.555,-0.219 6.848,-0.625 l -11.953,-38.644 c -0.824,-2.688 0.664,-5.543 3.363,-6.379 2.688,-0.824 5.531,0.676 6.359,3.363 l 11.969,38.645 c 20.516,-9.301 29.617,-33.454 20.317,-53.961 -9.29,-20.516 -33.461,-29.614 -53.977,-20.313 -20.508,9.285 -29.617,33.457 -20.316,53.977 6.73,14.84 21.511,24.043 37.39,23.937 z m 159.371,-0.137 c 18.887,1.637 36.969,-10.14 42.582,-29.027 6.41,-21.59 -5.89,-44.301 -27.476,-50.703 -21.59,-6.41 -44.293,5.887 -50.703,27.477 -0.133,0.468 -0.278,0.933 -0.399,1.41 l 42.039,0 c 2.825,0 5.09,2.297 5.09,5.105 0,0.715 -0.144,1.426 -0.437,2.074 l -18.817,42.114 c 2.699,0.797 5.422,1.316 8.121,1.55 z m -17.441,-5.648 15.609,-35 -35.457,0 c 0,14.34 7.535,27.629 19.848,35 z" /></g></g></svg>