<?xml version="1.0" encoding="UTF-8" standalone="no"?>
<svg
   xmlns:dc="http://purl.org/dc/elements/1.1/"
   xmlns:cc="http://creativecommons.org/ns#"
   xmlns:rdf="http://www.w3.org/1999/02/22-rdf-syntax-ns#"
   xmlns:svg="http://www.w3.org/2000/svg"
   xmlns="http://www.w3.org/2000/svg"
   viewBox="0 0 421.00125 232.0025"
   height="232.0025"
   width="421.00125"
   xml:space="preserve"
   version="1.1"
   id="svg5159"><metadata
     id="metadata5165"><rdf:RDF><cc:Work
         rdf:about=""><dc:format>image/svg+xml</dc:format><dc:type
           rdf:resource="http://purl.org/dc/dcmitype/StillImage" /><dc:title></dc:title></cc:Work></rdf:RDF></metadata><defs
     id="defs5163" /><g
     transform="matrix(1.25,0,0,-1.25,0,232.00251)"
     id="g5167"><g
       id="g5169"><path
         id="path5171"
         style="fill:#ffffff;fill-opacity:1;fill-rule:nonzero;stroke:none"
         d="m 22.652,185.204 c -12.273,0 -22.254,-9.954 -22.254,-22.184 l 0,-140.445 c 0,-12.227 9.981,-22.172 22.254,-22.172 l 291.496,0 c 12.274,0 22.25,9.945 22.25,22.172 l 0,140.445 c 0,12.23 -9.976,22.184 -22.25,22.184 l -291.496,0 z" /><path
         id="path5173"
         style="fill:#000000;fill-opacity:1;fill-rule:nonzero;stroke:none"
         d="M 22.652,185.602 C 10.164,185.602 0,175.465 0,163.02 L 0,22.575 C 0,10.129 10.164,0 22.652,0 l 291.496,0 c 12.489,0 22.653,10.129 22.653,22.575 l 0,140.445 c 0,12.445 -10.164,22.582 -22.653,22.582 l -291.496,0 z m 0,-0.398 291.496,0 c 12.274,0 22.25,-9.954 22.25,-22.184 l 0,-140.445 c 0,-12.227 -9.976,-22.172 -22.25,-22.172 l -291.496,0 c -12.273,0 -22.254,9.945 -22.254,22.172 l 0,140.445 c 0,12.23 9.981,22.184 22.254,22.184 z" /><path
         id="path5175"
         style="fill:#000000;fill-opacity:1;fill-rule:nonzero;stroke:none"
         d="m 22.645,14.118 291.496,0 c 4.644,0 8.41,3.75 8.41,8.379 l 0,140.605 c 0,4.629 -3.766,8.379 -8.41,8.379 l -291.496,0 c -4.649,0 -8.411,-3.75 -8.411,-8.379 l 0,-140.605 c 0,-4.629 3.762,-8.379 8.411,-8.379 z m 0.398,-7.981 c -9.289,0 -16.816,7.5 -16.816,16.758 l 0,139.805 c 0,9.257 7.527,16.757 16.816,16.757 l 290.777,0 c 9.289,0 16.817,-7.5 16.817,-16.757 l 0,-139.805 c 0,-9.258 -7.528,-16.758 -16.817,-16.758" /><path
         id="path5177"
         style="fill:#000000;fill-opacity:1;fill-rule:nonzero;stroke:none"
         d="m 261.625,49.051 -8.75,0 c -8.699,0 -15.754,7.051 -15.754,15.75 l 0,42.879 -6.996,0 0,11.371 6.996,0 0,21.004 14,0 0,-21.004 10.504,0 0,-11.371 -10.504,0 0,-41.125 c 0,-2.414 1.957,-4.375 4.379,-4.375 l 6.125,0 0,-13.129 z m -99.398,36.403 0,42 42,0 0,-11.196 -31.5,0 0,-17.691 c 8.789,6.961 21.554,5.476 28.515,-3.313 2.84,-3.586 4.387,-8.027 4.387,-12.597 l 0,-11.907 c 0,-12.367 -10.031,-22.398 -22.406,-22.398 -11.555,0 -21.219,8.793 -22.297,20.301 l 11.301,0 c 1.156,-6.074 7.023,-10.063 13.093,-8.899 5.285,1.004 9.106,5.621 9.106,10.996 l 0,9.801 c 0,6.188 -5.016,11.203 -11.203,11.203 -4.289,0 -8.192,-2.449 -10.071,-6.3 l -10.925,0 z m -31.059,-46.903 0,24.504 14.008,0 0,-14.004 -14.008,-10.5 z m -48.996,10.5 33.254,84.004 -26.258,0 0,-14.004 -13.996,0 0,28.004 55.996,0 0,-13.125 -33.246,-84.879" /></g></g></svg>