<?xml version="1.0" standalone="no"?>
<!DOCTYPE svg PUBLIC "-//W3C//DTD SVG 20010904//EN"
 "http://www.w3.org/TR/2001/REC-SVG-20010904/DTD/svg10.dtd">
<svg version="1.0" xmlns="http://www.w3.org/2000/svg"
 width="640.000000pt" height="1280.000000pt" viewBox="0 0 640.000000 1280.000000"
 preserveAspectRatio="xMidYMid meet">
<g transform="translate(0.000000,1280.000000) scale(0.100000,-0.100000)"
fill="#000000" stroke="none">
<path d="M2968 12795 c-2 -3 -49 -16 -104 -30 -260 -65 -425 -212 -441 -394
-4 -44 -10 -61 -20 -61 -9 0 -52 11 -97 25 -107 32 -264 61 -404 75 -203 21
-395 -15 -516 -95 -142 -94 -206 -219 -206 -404 0 -53 7 -120 15 -150 8 -30
12 -57 10 -61 -2 -4 -46 -10 -97 -14 -165 -11 -327 -51 -440 -106 -172 -85
-286 -219 -303 -355 -13 -101 31 -248 117 -391 44 -74 152 -217 187 -248 29
-26 26 -43 -11 -74 -149 -121 -311 -309 -374 -433 -156 -311 -13 -531 436
-673 119 -38 276 -73 371 -83 36 -3 63 -11 66 -19 3 -7 -4 -66 -16 -131 -56
-323 -53 -550 8 -689 43 -97 98 -131 266 -170 62 -14 115 -18 240 -16 88 1
175 3 194 4 l35 3 61 -150 c106 -260 210 -439 314 -538 89 -85 120 -97 248
-97 125 0 229 23 324 70 34 16 65 30 70 30 5 0 25 -33 45 -72 20 -40 58 -105
84 -143 26 -39 50 -79 53 -90 12 -41 76 -511 96 -710 6 -55 15 -145 21 -200
19 -184 45 -512 64 -810 21 -327 24 -460 9 -460 -6 0 -122 107 -257 238 -135
131 -246 236 -246 232 0 -4 117 -155 259 -337 l259 -330 7 -132 c5 -72 8 -437
7 -811 0 -949 -27 -1441 -98 -1795 -52 -263 -148 -559 -275 -852 -150 -348
-401 -810 -596 -1100 -41 -61 -73 -112 -71 -113 2 -2 46 14 98 36 448 187 700
208 740 59 9 -34 -1 -100 -26 -164 -4 -11 33 11 90 54 117 86 240 153 320 174
122 32 273 -18 494 -163 50 -33 92 -59 92 -57 0 2 -20 46 -45 98 -25 51 -50
118 -57 149 -10 50 -10 60 6 84 53 81 166 66 408 -56 54 -27 131 -69 172 -94
41 -25 77 -45 80 -45 3 0 -30 46 -73 103 -251 328 -489 764 -616 1127 -79 228
-137 504 -149 720 -8 135 -33 964 -41 1365 l-7 310 115 166 c63 91 120 177
127 190 7 13 -39 -27 -102 -88 -62 -62 -119 -113 -125 -113 -6 0 -14 19 -17
43 -7 58 -27 1428 -26 1814 l0 311 210 156 c198 147 253 193 178 149 -139 -82
-377 -213 -387 -213 -14 0 -14 43 -1 180 5 58 16 195 25 305 15 201 32 372 40
410 3 13 19 26 42 34 58 21 189 85 277 136 44 25 85 45 92 45 7 0 47 -14 89
-31 134 -53 240 -71 400 -67 120 4 151 8 219 32 153 52 296 159 360 268 87
148 104 370 47 588 -11 42 -16 79 -11 84 4 4 41 19 82 33 124 42 264 121 342
194 132 124 172 227 163 414 -10 201 -74 340 -221 478 -47 44 -50 48 -32 60
10 6 53 34 95 61 112 72 212 179 260 279 22 45 45 110 52 145 15 79 6 273 -16
357 -26 97 -81 199 -140 263 -30 33 -55 64 -55 69 0 5 29 33 64 61 202 162
310 406 276 627 -38 248 -157 365 -372 365 l-68 0 -33 47 c-136 197 -349 433
-451 500 -91 60 -148 76 -271 76 -90 -1 -126 -5 -200 -28 -136 -41 -133 -41
-165 35 -44 106 -98 188 -178 272 -59 62 -92 87 -156 119 -223 109 -454 86
-640 -66 -31 -25 -58 -45 -61 -45 -3 0 -29 19 -58 43 -104 84 -219 141 -403
198 -32 9 -137 13 -146 4z"/>
<path d="M4162 6680 c-44 -27 -72 -76 -72 -127 0 -24 3 -43 6 -43 17 0 72 42
93 71 28 38 42 119 20 119 -8 0 -29 -9 -47 -20z"/>
<path d="M4040 6289 c-33 -20 -33 -22 -15 -36 33 -23 124 -45 160 -39 43 8 62
30 44 52 -39 47 -131 58 -189 23z"/>
<path d="M2725 6014 c-23 -35 -31 -131 -15 -180 15 -49 78 -144 95 -144 23 0
50 90 49 161 0 76 -32 142 -82 171 -29 18 -30 18 -47 -8z"/>
<path d="M2460 5858 c0 -47 85 -94 135 -74 35 13 -36 77 -102 91 -30 6 -33 4
-33 -17z"/>
<path d="M2470 5617 c-24 -13 -45 -28 -47 -34 -6 -18 56 -55 101 -60 53 -6
118 11 152 41 33 28 27 40 -33 60 -65 22 -122 20 -173 -7z"/>
<path d="M4180 4504 c-37 -31 -60 -73 -60 -109 0 -33 15 -32 72 4 48 30 78 73
78 111 0 30 -51 27 -90 -6z"/>
<path d="M3956 4338 c-17 -24 -22 -83 -7 -92 14 -9 32 20 38 62 6 47 -9 62
-31 30z"/>
<path d="M4134 4260 c-28 -11 -86 -79 -78 -92 8 -13 67 -5 116 15 39 16 74 59
63 77 -7 12 -71 12 -101 0z"/>
</g>
</svg>
