<?xml version="1.0" encoding="UTF-8" standalone="no"?>
<svg
   xmlns:dc="http://purl.org/dc/elements/1.1/"
   xmlns:cc="http://creativecommons.org/ns#"
   xmlns:rdf="http://www.w3.org/1999/02/22-rdf-syntax-ns#"
   xmlns:svg="http://www.w3.org/2000/svg"
   xmlns="http://www.w3.org/2000/svg"
   viewBox="0 0 2251.998 601"
   height="601"
   width="2251.998"
   xml:space="preserve"
   version="1.1"
   id="svg12917"><metadata
     id="metadata12923"><rdf:RDF><cc:Work
         rdf:about=""><dc:format>image/svg+xml</dc:format><dc:type
           rdf:resource="http://purl.org/dc/dcmitype/StillImage" /><dc:title></dc:title></cc:Work></rdf:RDF></metadata><defs
     id="defs12921" /><g
     transform="matrix(1.25,0,0,-1.25,0,600.99998)"
     id="g12925"><g
       id="g12927"><path
         id="path12929"
         style="fill:#ffffff;fill-opacity:1;fill-rule:evenodd;stroke:none"
         d="m 60.398,480.402 c -33.136,0 -60,-26.864 -60,-60 l 0,-360.004 c 0,-33.137 26.864,-59.996 60,-59.996 l 1334.961,0 c 30.321,0 59.973,7.906 86.223,23.082 l 290.387,167.675 c 17.523,10.188 28.429,28.977 28.429,49.106 0,20.351 -10.906,39.207 -28.429,49.34 L 1481.582,457.23 c -26.25,15.16 -56.121,23.172 -86.223,23.172 l -1334.961,0 z" /><path
         id="path12931"
         style="fill:#000000;fill-opacity:1;fill-rule:evenodd;stroke:none"
         d="m 68.375,460.8 c -26.512,0 -47.973,-21.488 -47.973,-47.996 l 0,-344.406 c 0,-26.508 21.461,-47.996 47.969,-47.996 l 1327.074,0 c 26.969,0 46.864,4.144 70.325,17.515 l 292.32,168.301 c 29.816,17.242 29.816,50.961 0,68.285 l -292.32,168.762 c -23.457,13.508 -43.356,17.535 -70.325,17.535 l -1327.07,0 z" /><path
         id="path12933"
         style="fill:#ffffff;fill-opacity:1;fill-rule:evenodd;stroke:none"
         d="m 72.398,432.804 c -13.238,0 -23.972,-10.723 -24,-23.953 l 0,-336.449 c 0,-13.258 10.747,-24 24,-24 l 1321.145,0 c 23.023,0 39.605,2.472 59.562,14.097 l 278.434,160.696 c 19.035,11.031 20.914,11.207 20.914,17.054 0,5.848 -1.922,6.25 -20.914,17.289 l -278.434,160.727 c -19.957,11.449 -36.539,14.539 -59.562,14.539 l -1321.145,0 z" /><path
         id="path12935"
         style="fill:#000000;fill-opacity:1;fill-rule:nonzero;stroke:none"
         d="m 493.098,171.546 58.496,0 c 5.199,0 10.14,0.91 14.82,2.731 4.68,1.816 8.774,4.484 12.281,7.992 3.641,3.511 6.438,7.668 8.387,12.48 2.078,4.938 3.117,10.332 3.117,16.184 0,7.539 -1.949,14.297 -5.847,20.277 -3.899,6.11 -9.489,10.012 -16.77,11.699 l 0,0.391 c 7.539,3.379 12.805,7.605 15.793,12.676 3.121,5.066 4.68,10.789 4.68,17.156 0,11.309 -3.575,20.344 -10.723,27.105 -7.148,6.758 -17.289,10.137 -30.418,10.137 l -53.816,0 0,-138.828 z m 53.425,61.613 c 7.411,0 13,-2.015 16.77,-6.043 3.898,-3.898 5.848,-8.839 5.848,-14.82 0,-5.848 -1.95,-10.789 -5.848,-14.816 -3.77,-4.032 -9.359,-6.047 -16.77,-6.047 l -32.367,0 0,41.726 32.367,0 z m -1.949,58.496 c 7.281,0 12.805,-1.882 16.574,-5.652 3.899,-3.769 5.848,-8.516 5.848,-14.234 0,-5.719 -1.949,-10.465 -5.848,-14.235 -3.769,-3.769 -9.293,-5.656 -16.574,-5.656 l -30.418,0 0,39.777 30.418,0 z" /><path
         id="path12937"
         style="fill:#000000;fill-opacity:1;fill-rule:nonzero;stroke:none"
         d="m 671.629,171.546 19.887,0 0,67.465 c 0,11.566 -3.637,19.887 -10.918,24.957 -7.149,5.07 -17.223,7.605 -30.223,7.605 -7.668,0 -14.234,-1.171 -19.691,-3.511 -5.461,-2.207 -10.012,-5.848 -13.653,-10.918 l 15.602,-11.895 c 1.82,2.86 4.094,4.809 6.824,5.852 2.731,1.168 6.695,1.754 11.895,1.754 7.277,0 12.476,-0.977 15.597,-2.926 3.121,-1.82 4.68,-5.07 4.68,-9.75 l 0,-10.332 -27.492,0 c -10.141,0 -18.071,-2.797 -23.789,-8.387 -5.59,-5.59 -8.383,-12.543 -8.383,-20.863 0,-8.84 3.117,-16.117 9.359,-21.836 6.239,-5.59 14.754,-8.387 25.543,-8.387 6.629,0 11.828,0.781 15.598,2.34 3.769,1.563 6.695,4.094 8.773,7.606 l 0.391,0 0,-8.774 z m 0,34.707 c 0,-7.41 -1.496,-12.156 -4.484,-14.234 -2.989,-1.949 -8.907,-2.926 -17.743,-2.926 -6.371,0 -11.117,1.172 -14.234,3.512 -2.992,2.34 -4.484,5.328 -4.484,8.968 0,3.77 1.429,6.696 4.289,8.774 2.859,2.082 7.148,3.121 12.867,3.121 l 23.789,0 0,-7.215 z" /><path
         id="path12939"
         style="fill:#000000;fill-opacity:1;fill-rule:nonzero;stroke:none"
         d="m 720.852,171.546 19.89,0 0,58.883 c 0,6.633 1.821,11.832 5.461,15.601 3.77,3.77 8.512,5.653 14.231,5.653 5.722,0 10.402,-1.883 14.039,-5.653 3.64,-3.769 5.461,-8.968 5.461,-15.601 l 0,-58.883 19.89,0 0,65.711 c 0,5.457 -0.976,10.332 -2.926,14.621 -1.82,4.289 -4.355,7.867 -7.605,10.727 -3.25,2.988 -6.824,5.199 -10.723,6.629 -3.902,1.558 -7.8,2.339 -11.699,2.339 -10.922,0 -19.5,-3.898 -25.738,-11.699 l -0.391,0 0,50.5 -19.89,0 0,-138.828 z" /><path
         id="path12941"
         style="fill:#000000;fill-opacity:1;fill-rule:nonzero;stroke:none"
         d="m 829.156,171.546 19.891,0 0,58.883 c 0,6.633 1.82,11.832 5.461,15.601 3.769,3.77 8.512,5.653 14.23,5.653 5.723,0 10.403,-1.883 14.039,-5.653 3.641,-3.769 5.461,-8.968 5.461,-15.601 l 0,-58.883 19.891,0 0,65.711 c 0,5.457 -0.977,10.332 -2.926,14.621 -1.82,4.289 -4.355,7.867 -7.605,10.727 -3.25,2.988 -6.825,5.199 -10.723,6.629 -3.902,1.558 -7.801,2.339 -11.699,2.339 -10.922,0 -19.5,-3.898 -25.738,-11.699 l -0.391,0 0,10.528 -19.891,0 0,-98.856 z" /><path
         id="path12943"
         style="fill:#000000;fill-opacity:1;fill-rule:nonzero;stroke:none"
         d="m 937.461,171.546 19.891,0 0,58.883 c 0,6.633 1.82,11.832 5.461,15.601 3.769,3.77 8.511,5.653 14.23,5.653 5.723,0 10.402,-1.883 14.039,-5.653 3.641,-3.769 5.461,-8.968 5.461,-15.601 l 0,-58.883 19.891,0 0,65.711 c 0,5.457 -0.977,10.332 -2.926,14.621 -1.82,4.289 -4.356,7.867 -7.606,10.727 -3.25,2.988 -6.824,5.199 -10.722,6.629 -3.903,1.558 -7.801,2.339 -11.7,2.339 -10.921,0 -19.5,-3.898 -25.738,-11.699 l -0.39,0 0,50.5 -19.891,0 0,-138.828 z" /><path
         id="path12945"
         style="fill:#000000;fill-opacity:1;fill-rule:nonzero;stroke:none"
         d="m 1045.766,221.07 c 0,-10.399 0.781,-18.262 2.339,-23.59 1.692,-5.203 4.489,-10.012 8.387,-14.43 3.25,-3.641 7.278,-6.695 12.09,-9.164 4.938,-2.34 10.918,-3.512 17.938,-3.512 7.019,0 12.933,1.172 17.742,3.512 4.941,2.469 9.035,5.523 12.285,9.164 3.898,4.418 6.629,9.227 8.191,14.43 1.688,5.328 2.535,13.191 2.535,23.59 0,10.269 -0.847,18.003 -2.535,23.207 -1.562,5.328 -4.293,10.203 -8.191,14.621 -3.25,3.64 -7.344,6.629 -12.285,8.968 -4.809,2.473 -10.723,3.707 -17.742,3.707 -7.02,0 -13,-1.234 -17.938,-3.707 -4.812,-2.339 -8.84,-5.328 -12.09,-8.968 -3.898,-4.418 -6.695,-9.293 -8.387,-14.621 -1.558,-5.204 -2.339,-12.938 -2.339,-23.207 z m 61.617,-0.192 c 0,-6.891 -0.324,-11.832 -0.977,-14.82 -0.648,-2.988 -1.949,-5.852 -3.898,-8.578 -1.559,-2.082 -3.77,-3.836 -6.629,-5.266 -2.859,-1.301 -5.981,-1.949 -9.359,-1.949 -3.25,0 -6.372,0.648 -9.36,1.949 -2.859,1.43 -5.07,3.184 -6.629,5.266 -1.949,2.726 -3.25,5.59 -3.898,8.578 -0.653,2.988 -0.977,7.992 -0.977,15.012 0,6.89 0.324,11.832 0.977,14.82 0.648,2.992 1.949,5.851 3.898,8.578 1.559,2.082 3.77,3.769 6.629,5.07 2.988,1.43 6.11,2.145 9.36,2.145 3.378,0 6.5,-0.715 9.359,-2.145 2.859,-1.301 5.07,-2.988 6.629,-5.07 1.949,-2.727 3.25,-5.586 3.898,-8.578 0.653,-2.988 0.977,-7.992 0.977,-15.012 z" /><path
         id="path12947"
         style="fill:#000000;fill-opacity:1;fill-rule:nonzero;stroke:none"
         d="m 1157.656,171.546 19.887,0 0,83.649 19.891,0 0,15.207 -19.891,0 0,13.066 c 0,2.988 0.586,5.07 1.754,6.238 1.301,1.301 3.578,1.949 6.824,1.949 l 11.313,0 0,18.719 -12.871,0 c -8.059,0 -14.559,-2.273 -19.497,-6.824 -4.941,-4.551 -7.41,-11.242 -7.41,-20.082 l 0,-13.066 -9.945,0 0,-15.207 9.945,0 0,-83.649 z" /><path
         id="path12949"
         style="fill:#000000;fill-opacity:1;fill-rule:evenodd;stroke:none"
         d="M 60.398,480.8 C 27.047,480.8 0,453.753 0,420.402 L 0,60.398 C 0,27.046 27.047,-0.001 60.398,-0.001 l 1334.961,0 c 30.391,0 60.114,7.926 86.422,23.137 l 290.387,167.68 c 17.648,10.257 28.629,29.175 28.629,49.449 0,20.492 -10.981,39.484 -28.633,49.687 l -290.383,167.625 c -26.308,15.196 -56.25,23.223 -86.422,23.223 l -1334.961,0 z m 0,-0.398 1334.961,0 c 30.102,0 59.973,-8.012 86.223,-23.172 l 290.387,-167.625 c 17.523,-10.133 28.429,-28.989 28.429,-49.34 0,-20.129 -10.906,-38.918 -28.429,-49.106 L 1481.582,23.484 C 1455.332,8.308 1425.68,0.402 1395.359,0.402 l -1334.961,0 c -33.136,0 -60,26.859 -60,59.996 l 0,360.004 c 0,33.136 26.864,60 60,60 z" /></g></g></svg>