<?xml version="1.0" encoding="UTF-8" standalone="no"?>
<svg
   xmlns:dc="http://purl.org/dc/elements/1.1/"
   xmlns:cc="http://creativecommons.org/ns#"
   xmlns:rdf="http://www.w3.org/1999/02/22-rdf-syntax-ns#"
   xmlns:svg="http://www.w3.org/2000/svg"
   xmlns="http://www.w3.org/2000/svg"
   viewBox="0 0 731.59644 613.42297"
   height="613.42297"
   width="731.59644"
   xml:space="preserve"
   id="svg4480"
   version="1.1"><metadata
     id="metadata4486"><rdf:RDF><cc:Work
         rdf:about=""><dc:format>image/svg+xml</dc:format><dc:type
           rdf:resource="http://purl.org/dc/dcmitype/StillImage" /><dc:title></dc:title></cc:Work></rdf:RDF></metadata><defs
     id="defs4484" /><g
     transform="matrix(1.3333333,0,0,-1.3333333,0,613.42297)"
     id="g4488"><g
       id="g4490"><path
         id="path4492"
         style="fill:#ffffff;fill-opacity:1;fill-rule:nonzero;stroke:none"
         d="M 21.926,0.45 C 10.063,0.45 0.461,10.063 0.461,21.927 v 416.214 c 0,11.864 9.602,21.477 21.465,21.477 h 504.847 c 11.848,0 21.461,-9.613 21.461,-21.477 V 21.927 c 0,-11.864 -9.613,-21.477 -21.461,-21.477" /><path
         id="path4494"
         style="fill:#000000;fill-opacity:1;fill-rule:nonzero;stroke:none"
         d="m 0.914,21.927 v 416.214 c 0,11.586 9.422,21.016 21.012,21.016 h 504.847 c 11.586,0 21,-9.43 21,-21.016 V 21.927 c 0,-11.579 -9.414,-21.016 -21,-21.016 H 21.926 c -11.59,0 -21.012,9.437 -21.012,21.016 z m 21.012,438.14 C 9.836,460.067 0,450.231 0,438.141 V 21.927 C 0,9.837 9.836,0.001 21.926,0.001 h 504.847 c 12.082,0 21.922,9.836 21.922,21.926 v 416.214 c 0,12.09 -9.84,21.926 -21.922,21.926" /><path
         id="path4496"
         style="fill:#154889;fill-opacity:1;fill-rule:nonzero;stroke:none"
         d="m 21.926,9.399 c -6.918,0 -12.528,5.61 -12.528,12.528 v 416.214 c 0,6.918 5.61,12.524 12.528,12.524 h 504.847 c 6.918,0 12.508,-5.606 12.508,-12.524 V 21.927 c 0,-6.918 -5.59,-12.528 -12.508,-12.528" /><path
         id="path4498"
         style="fill:#ffffff;fill-opacity:1;fill-rule:nonzero;stroke:none"
         d="m 201.281,73.723 93.539,89.754 -25.586,15.594 c -1.671,1.035 -2.207,3.231 -1.183,4.934 0.523,0.847 1.387,1.433 2.359,1.633 l 72.723,14.543 c 1.937,0.39 3.824,-0.86 4.207,-2.809 0.094,-0.461 0.094,-0.938 0,-1.399 l -14.543,-72.722 c -0.387,-1.938 -2.274,-3.195 -4.207,-2.809 -0.985,0.199 -1.836,0.801 -2.363,1.649 l -15.59,25.57 -89.754,-93.539" /><path
         id="path4500"
         style="fill:#ffffff;fill-opacity:1;fill-rule:nonzero;stroke:none"
         d="m 63.063,343.345 v 62.601 H 72 l 17.879,-40.801 17.891,40.801 h 8.953 v -62.601 h -9.504 v 39.691 l -13.422,-30.75 h -7.824 l -13.41,30.75 v -39.691" /><path
         id="path4502"
         style="fill:#ffffff;fill-opacity:1;fill-rule:nonzero;stroke:none"
         d="m 154.723,362.911 h -12.844 c -3.086,0 -5.594,-2.512 -5.594,-5.594 0,-3.086 2.508,-5.594 5.594,-5.594 h 7.254 c 3.094,0 5.59,2.508 5.59,5.594 z m 8.941,-19.566 h -8.941 v 4.609 c -1.571,-2.848 -4.571,-4.609 -7.825,-4.609 h -5.593 c -7.403,0 -13.41,6.007 -13.41,13.41 0,7.418 6.007,13.422 13.41,13.422 h 13.418 v 4.468 c 0,2.446 -1.758,4.532 -4.157,4.957 -3.168,0.551 -6.402,0.551 -9.562,0 -1.574,-0.273 -2.934,-1.285 -3.645,-2.718 l -7.07,5.589 c 2.125,3.137 5.434,5.282 9.168,5.946 4.184,0.719 8.461,0.719 12.645,0 6.679,-1.176 11.562,-6.981 11.562,-13.774" /><path
         id="path4504"
         style="fill:#ffffff;fill-opacity:1;fill-rule:nonzero;stroke:none"
         d="m 186.023,397.005 h -8.937 v 8.941 h 8.937 z m -8.937,-53.66 v 44.722 h 8.937 v -44.722" /><path
         id="path4506"
         style="fill:#ffffff;fill-opacity:1;fill-rule:nonzero;stroke:none"
         d="m 199.445,343.345 v 44.722 h 8.938 v -5.058 c 5.246,6.48 14.746,7.504 21.238,2.25 3.535,-2.86 5.594,-7.168 5.594,-11.739 v -30.175 h -8.942 v 27.394 c 0,4.93 -4.003,8.938 -8.949,8.938 -4.933,0 -8.941,-4.008 -8.941,-8.938 v -27.394" /><path
         id="path4508"
         style="fill:#ffffff;fill-opacity:1;fill-rule:nonzero;stroke:none"
         d="m 245.277,343.345 v 7.269 l 22.36,29.625 h -21.235 v 7.828 h 32.411 v -6.715 l -22.348,-29.629 h 22.348 v -8.378" /><path
         id="path4510"
         style="fill:#ffffff;fill-opacity:1;fill-rule:nonzero;stroke:none"
         d="m 78.719,244.966 -15.656,62.609 h 10.062 l 10.051,-44.719 12.308,44.719 h 6.704 l 12.296,-44.719 10.063,44.719 h 10.055 l -15.645,-62.609 h -8.391 L 98.828,290.247 87.094,244.966" /><path
         id="path4512"
         style="fill:#ffffff;fill-opacity:1;fill-rule:nonzero;stroke:none"
         d="m 151.367,298.626 h -8.941 v 8.949 h 8.941 z m -8.941,-53.66 v 44.722 h 8.941 v -44.722" /><path
         id="path4514"
         style="fill:#ffffff;fill-opacity:1;fill-rule:nonzero;stroke:none"
         d="m 172.617,271.794 h 19 c 0,5.246 -4.258,9.504 -9.5,9.504 -5.258,0 -9.5,-4.258 -9.5,-9.504 z m 27.938,-7.824 h -27.938 v -1.114 c 0,-3.883 2.36,-7.379 5.965,-8.828 4.969,-1.984 10.664,-0.597 14.148,3.473 l 6.79,-5.828 c -5.981,-6.957 -15.731,-9.356 -24.258,-5.946 -7.004,2.809 -11.598,9.586 -11.598,17.129 v 8.938 c 0,10.187 8.266,18.453 18.453,18.453 10.188,0 18.438,-8.266 18.438,-18.453" /><path
         id="path4516"
         style="fill:#ffffff;fill-opacity:1;fill-rule:nonzero;stroke:none"
         d="m 209.508,252.134 6.305,6.339 c 5.218,-5.195 12.96,-6.851 19.863,-4.281 2.308,0.875 3.484,3.446 2.609,5.754 -0.609,1.66 -2.16,2.785 -3.906,2.899 l -9.5,0.601 c -7.395,0.461 -13.012,6.824 -12.551,14.219 0.363,5.879 4.52,10.836 10.25,12.211 8.344,1.996 17.117,0.047 23.824,-5.309 l -5.582,-6.98 c -4.547,3.621 -10.5,4.945 -16.152,3.586 -2.398,-0.575 -3.871,-2.985 -3.297,-5.383 0.461,-1.922 2.109,-3.305 4.07,-3.422 l 9.489,-0.598 c 7.402,-0.461 13.019,-6.828 12.57,-14.222 -0.336,-5.282 -3.73,-9.871 -8.691,-11.723 -10.161,-3.809 -21.61,-1.348 -29.301,6.309" /><path
         id="path4518"
         style="fill:#ffffff;fill-opacity:1;fill-rule:nonzero;stroke:none"
         d="m 267.637,262.294 c 0,-4.93 4.008,-8.938 8.941,-8.938 4.93,0 8.938,4.008 8.938,8.938 v 10.066 c 0,4.942 -4.008,8.938 -8.938,8.938 -4.933,0 -8.941,-3.996 -8.941,-8.938 z m -8.949,-17.328 v 62.609 h 8.949 V 284.63 c 5.246,6.492 14.746,7.504 21.211,2.261 3.558,-2.863 5.621,-7.179 5.621,-11.738 v -15.656 c 0,-8.328 -6.754,-15.082 -15.082,-15.082 -4.571,0 -8.879,2.051 -11.75,5.609 v -5.058" /><path
         id="path4520"
         style="fill:#ffffff;fill-opacity:1;fill-rule:nonzero;stroke:none"
         d="M 331.363,264.528 H 318.5 c -3.082,0 -5.59,-2.496 -5.59,-5.59 0,-3.086 2.508,-5.582 5.59,-5.582 h 7.266 c 3.097,0 5.597,2.496 5.597,5.582 z m 8.938,-19.562 h -8.938 v 4.617 c -1.586,-2.844 -4.57,-4.617 -7.832,-4.617 h -5.59 c -7.406,0 -13.41,6.007 -13.41,13.422 0,7.402 6.004,13.406 13.41,13.406 h 13.422 v 4.484 c 0,2.434 -1.761,4.52 -4.16,4.942 -3.172,0.562 -6.418,0.562 -9.578,0 -1.57,-0.274 -2.918,-1.286 -3.633,-2.707 l -7.078,5.578 c 2.133,3.148 5.445,5.297 9.176,5.945 4.172,0.727 8.469,0.727 12.637,0 6.703,-1.172 11.574,-6.98 11.574,-13.758" /><path
         id="path4522"
         style="fill:#ffffff;fill-opacity:1;fill-rule:nonzero;stroke:none"
         d="m 379.43,262.294 v 10.066 c 0,4.942 -4.008,8.938 -8.942,8.938 -4.945,0 -8.949,-3.996 -8.949,-8.938 v -10.066 c 0,-4.93 4.004,-8.938 8.949,-8.938 4.934,0 8.942,4.008 8.942,8.938 z m 8.937,-17.328 h -8.937 v 5.058 c -5.231,-6.492 -14.746,-7.492 -21.227,-2.261 -3.547,2.871 -5.605,7.179 -5.605,11.734 v 15.656 c 0,8.328 6.754,15.094 15.093,15.094 4.559,0 8.875,-2.059 11.739,-5.617 v 22.945 h 8.937" /><path
         id="path4524"
         style="fill:#ffffff;fill-opacity:1;fill-rule:nonzero;stroke:none"
         d="m 409.613,271.794 h 19.004 c 0,5.246 -4.258,9.504 -9.5,9.504 -5.242,0 -9.504,-4.258 -9.504,-9.504 z m 27.957,-7.824 h -27.957 v -1.114 c 0,-3.883 2.364,-7.379 5.969,-8.828 4.973,-1.984 10.664,-0.597 14.16,3.473 l 6.778,-5.828 c -5.981,-6.957 -15.727,-9.356 -24.258,-5.946 -7.004,2.809 -11.586,9.586 -11.586,17.129 v 8.938 c 0,10.187 8.254,18.453 18.441,18.453 10.188,0 18.453,-8.266 18.453,-18.453" /><path
         id="path4526"
         style="fill:#ffffff;fill-opacity:1;fill-rule:nonzero;stroke:none"
         d="m 449.855,244.966 v 44.722 h 8.954 v -5.058 c 5.23,6.492 14.742,7.504 21.218,2.261 3.551,-2.863 5.598,-7.179 5.598,-11.738 v -30.187 h -8.93 v 27.394 c 0,4.942 -4.019,8.938 -8.949,8.938 -4.945,0 -8.937,-3.996 -8.937,-8.938 v -27.394" /></g></g></svg>