<?xml version="1.0" encoding="UTF-8" standalone="no"?>
<svg
   xmlns:dc="http://purl.org/dc/elements/1.1/"
   xmlns:cc="http://creativecommons.org/ns#"
   xmlns:rdf="http://www.w3.org/1999/02/22-rdf-syntax-ns#"
   xmlns:svg="http://www.w3.org/2000/svg"
   xmlns="http://www.w3.org/2000/svg"
   viewBox="0 0 1500.0012 1750"
   height="1750"
   width="1500.0012"
   xml:space="preserve"
   version="1.1"
   id="svg4478"><metadata
     id="metadata4484"><rdf:RDF><cc:Work
         rdf:about=""><dc:format>image/svg+xml</dc:format><dc:type
           rdf:resource="http://purl.org/dc/dcmitype/StillImage" /><dc:title></dc:title></cc:Work></rdf:RDF></metadata><defs
     id="defs4482" /><g
     transform="matrix(1.25,0,0,-1.25,0,1750)"
     id="g4486"><g
       id="g4488"><path
         id="path4490"
         style="fill:#f0c900;fill-opacity:1;fill-rule:evenodd;stroke:none"
         d="M 59.551,1400 C 28.621,1400 0,1374.926 0,1344 L 0,56 C 0,25.965 23.645,1.457 53.336,0.066 l 0,-0.066 1093.328,0 0,0.066 C 1176.355,1.457 1200,25.965 1200,56 l 0,1288 c 0,30.926 -28.621,56 -59.551,56 l -1080.898,0 z" /><path
         id="path4492"
         style="fill:#000000;fill-opacity:1;fill-rule:evenodd;stroke:none"
         d="m 58.668,1384 c -22.094,0 -42.535,-17.91 -42.535,-40 L 16,56 C 16,33.91 33.91,16 56,16 l 1088.129,0 c 22.09,0 40,17.91 40,40 l -0.133,1288 c 0,22.09 -20.445,40 -42.535,40 l -1082.793,0 z" /><path
         id="path4494"
         style="fill:#f0c900;fill-opacity:1;fill-rule:evenodd;stroke:none"
         d="M 56.133,1360 C 47.293,1360 40,1352.836 40,1344 L 40,56 c 0,-8.836 7.164,-16 16,-16 l 1087.996,0 c 8.836,0 16,7.164 16,16 l 0,1288 c 0,8.836 -7.293,16 -16.133,16 l -1087.73,0 z" /><path
         id="path4496"
         style="fill:#000000;fill-opacity:1;fill-rule:evenodd;stroke:none"
         d="m 227.348,118.43 0,765.621 -50.332,-13.082 c -7.25,-1.848 -14.5,2.418 -16.493,9.664 -0.851,3.699 -0.316,7.68 1.848,10.808 l 98.527,147.008 98.536,-147.008 c 4.121,-6.113 2.418,-14.5 -3.696,-18.625 -3.269,-2.132 -7.109,-2.843 -10.804,-1.847 l -50.477,13.078 0,-416.43 282.231,0 -13.086,50.465 c -1.848,7.109 2.414,14.512 9.675,16.359 3.696,0.997 7.676,0.317 10.801,-1.847 L 730.949,434.059 584.078,335.676 c -6.113,-4.266 -14.496,-2.559 -18.629,3.554 -2.133,3.27 -2.844,7.25 -1.847,10.946 l 13.086,50.336 -282.231,0 0,-282.086" /><path
         id="path4498"
         style="fill:#000000;fill-opacity:1;fill-rule:evenodd;stroke:none"
         d="m 489.129,616.297 0,140.215 90.051,0 0,-20.067 -68.844,0 0,-40.004 58.949,0 0,-18.804 -58.949,0 0,-41.27 68.844,0 0,-20.07 -90.051,0 z m 112.523,0 0,100.074 20.078,0 0,-11.305 c 11.735,14.559 32.934,16.817 47.493,5.09 l -14.137,-17.527 c -8.336,7.348 -20.918,6.644 -28.406,-1.695 -3.254,-3.684 -4.95,-8.348 -4.95,-13.293 l 0,-61.344 -20.078,0 z m 157.758,0 -20.074,0 0,11.305 c -11.734,-14.559 -32.934,-16.829 -47.492,-5.086 -7.914,6.359 -12.586,16.113 -12.586,26.285 l 0,35.054 c 0,18.665 15.133,33.79 33.789,33.79 10.316,0 19.926,-4.524 26.289,-12.579 l 0,51.446 20.074,0 0,-140.215 z m -20.074,38.723 0,22.617 c 0,11.023 -8.902,20.078 -19.93,20.078 -11.168,0 -20.07,-9.055 -20.07,-20.078 l 0,-22.617 c 0,-11.02 8.902,-19.926 20.07,-19.926 11.028,0 19.93,8.906 19.93,19.926 z m 52.586,-38.723 0,100.074 20.078,0 0,-100.074 -20.078,0 z m 0,120.148 0,20.067 20.078,0 0,-20.067 -20.078,0 z m 50.183,-120.148 0,100.074 19.938,0 0,-11.305 c 11.73,14.559 33.074,16.817 47.629,5.09 7.918,-6.359 12.59,-16.113 12.59,-26.297 l 0,-67.562 -20.078,0 0,61.344 c 0,11.023 -9.047,20.078 -20.071,20.078 -11.023,0 -20.07,-9.055 -20.07,-20.078 l 0,-61.344 -19.938,0 z m 187.723,100.074 0,-101.348 c 0,-15.132 -8.476,-29.125 -22.047,-35.906 -19.222,-9.472 -42.41,-4.523 -55.84,12.153 l 15.407,12.582 c 7.636,-9.332 20.644,-12.157 31.386,-6.786 6.786,3.391 11.168,10.317 11.168,17.957 l 0,12.579 c -11.73,-14.559 -33.086,-16.829 -47.64,-5.086 -7.914,6.359 -12.578,16.113 -12.578,26.285 l 0,35.054 c 0,18.665 15.261,33.79 33.925,33.79 10.18,0 19.789,-4.524 26.293,-12.579 l 0,11.305 19.926,0 z m -19.926,-61.351 0,22.617 c 0,11.023 -9.047,20.078 -20.074,20.078 -11.023,0 -20.078,-9.055 -20.078,-20.078 l 0,-22.617 c 0,-11.02 9.055,-19.926 20.078,-19.926 11.027,0 20.074,8.906 20.074,19.926" /><path
         id="path4500"
         style="fill:#000000;fill-opacity:1;fill-rule:evenodd;stroke:none"
         d="m 160.137,1119.031 0,138.289 19.793,0 39.593,-90.054 39.45,90.054 19.8,0 0,-138.289 -21.058,0 0,87.68 -29.551,-67.887 -17.281,0 -29.695,67.887 0,-87.68 -21.051,0 z m 227.23,0 -19.66,0 0,11.149 c -11.566,-14.356 -32.617,-16.582 -46.98,-5.016 -7.805,6.41 -12.407,15.887 -12.407,25.922 l 0,66.773 19.801,0 0,-60.5 c 0,-11.011 8.922,-19.793 19.793,-19.793 10.871,0 19.793,8.782 19.793,19.793 l 0,60.5 19.66,0 0,-98.828 z m -69.148,118.485 0,19.804 19.801,0 0,-19.804 -19.801,0 z m 39.594,0 0,19.804 19.789,0 0,-19.804 -19.789,0 z m 59.246,-118.485 0,98.832 19.793,0 0,-11.152 c 11.574,14.219 32.484,16.449 46.839,4.879 7.805,-6.274 12.407,-15.75 12.407,-25.922 l 0,-66.637 -19.793,0 0,60.504 c 0,10.871 -8.782,19.789 -19.789,19.789 -10.875,0 -19.664,-8.918 -19.664,-19.789 l 0,-60.504 -19.793,0 z m 182.199,14.774 c -15.469,-18.817 -43.496,-21.465 -62.453,-5.715 -10.172,8.363 -16.028,20.91 -16.028,34.152 l 0,12.41 c 0,24.532 19.934,44.465 44.473,44.465 13.242,0 25.785,-5.996 34.008,-16.168 l -15.051,-12.543 c -8.644,10.453 -24.262,11.848 -34.715,3.203 -5.715,-4.738 -8.922,-11.707 -8.922,-18.953 l 0,-12.414 c 0,-13.66 11.012,-24.672 24.68,-24.672 7.387,0 14.355,3.207 18.957,8.922 l 15.051,-12.687 z m 19.797,-14.774 0,138.289 19.797,0 0,-50.609 c 11.57,14.219 32.476,16.449 46.843,4.879 7.805,-6.274 12.407,-15.75 12.407,-25.922 l 0,-66.637 -19.801,0 0,60.504 c 0,10.871 -8.785,19.789 -19.797,19.789 -10.871,0 -19.652,-8.918 -19.652,-19.789 l 0,-60.504 -19.797,0 z m 187.64,41.957 -61.617,0 0,-2.371 c 0,-8.64 5.16,-16.304 13.106,-19.512 11.011,-4.46 23.554,-1.394 31.218,7.665 l 15.063,-12.961 c -13.25,-15.336 -34.711,-20.629 -53.531,-13.102 -15.481,6.27 -25.657,21.184 -25.657,37.91 l 0,19.66 c 0,22.582 18.27,40.84 40.711,40.84 22.582,0 40.707,-18.258 40.707,-40.84 l 0,-17.289 z m -61.617,17.289 41.957,0 c 0,11.567 -9.48,21.047 -21.047,21.047 -11.57,0 -20.91,-9.48 -20.91,-21.047 z m 88.797,-59.246 0,98.832 19.797,0 0,-11.152 c 11.574,14.219 32.621,16.449 46.84,4.879 7.945,-6.274 12.406,-15.75 12.406,-25.922 l 0,-66.637 -19.656,0 0,60.504 c 0,10.871 -8.918,19.789 -19.793,19.789 -10.871,0 -19.797,-8.918 -19.797,-19.789 l 0,-60.504" /></g></g></svg>