<?xml version="1.0" encoding="UTF-8" standalone="no"?>
<svg
   xmlns:dc="http://purl.org/dc/elements/1.1/"
   xmlns:cc="http://creativecommons.org/ns#"
   xmlns:rdf="http://www.w3.org/1999/02/22-rdf-syntax-ns#"
   xmlns:svg="http://www.w3.org/2000/svg"
   xmlns="http://www.w3.org/2000/svg"
   viewBox="0 0 601.00134 601.00159"
   height="601.00159"
   width="601.00134"
   xml:space="preserve"
   id="svg4941"
   version="1.1"><metadata
     id="metadata4947"><rdf:RDF><cc:Work
         rdf:about=""><dc:format>image/svg+xml</dc:format><dc:type
           rdf:resource="http://purl.org/dc/dcmitype/StillImage" /><dc:title></dc:title></cc:Work></rdf:RDF></metadata><defs
     id="defs4945" /><g
     transform="matrix(1.3333333,0,0,-1.3333333,0,601.00159)"
     id="g4949"><g
       id="g4951"><path
         id="path4953"
         style="fill:#ffffff;fill-opacity:1;fill-rule:nonzero;stroke:none"
         d="m 27.375,450.376 c -27.059,0.016 -27,-27.004 -27,-27.004 V 27.376 c 0,0 -0.059,-27.023 27,-27 h 396 c 27.234,-0.027 27,27 27,27 v 395.996 c 0,0 0.223,27.094 -27,27.004 z" /><path
         id="path4955"
         style="fill:#154889;fill-opacity:1;fill-rule:nonzero;stroke:none"
         d="m 27.375,441.376 c -9.937,0 -18,-8.058 -18,-18 v -396 c 0,-9.949 8.063,-18 18,-18 h 396 c 9.941,0 18,8.051 18,18 v 396 c 0,9.942 -8.059,18 -18,18 z" /><path
         id="path4957"
         style="fill:#000000;fill-opacity:1;fill-rule:nonzero;stroke:none"
         d="M 27.375,450.751 C 13.719,450.759 6.805,443.892 3.391,437.048 -0.023,430.204 0,423.368 0,423.368 V 27.376 C 0,27.376 -0.02,20.54 3.391,13.7 6.805,6.857 13.719,-0.011 27.375,0.001 h 396 c 13.742,-0.015 20.66,6.856 24.051,13.699 3.387,6.84 3.324,13.672 3.324,13.676 v 395.996 c 0,0.004 0.059,6.852 -3.332,13.7 -3.391,6.851 -10.309,13.722 -24.043,13.679 z m 0,-0.375 h 396 c 27.223,0.09 27,-27.004 27,-27.004 V 27.376 c 0,0 0.234,-27.027 -27,-27 h -396 c -27.059,-0.023 -27,27 -27,27 v 395.996 c 0,0 -0.059,27.02 27,27.004 z" /><path
         id="path4959"
         style="fill:#ffffff;fill-opacity:1;fill-rule:nonzero;stroke:none"
         d="m 119.738,360.603 c -8.414,0 -16.023,-4.989 -19.375,-12.703 L 66.934,271.087 c -2.364,-5.43 -5.348,-10.555 -8.903,-15.289 l -5.066,-6.758 c -3.297,-4.394 -5.067,-9.734 -5.067,-15.218 v -54.93 c 0,-11.676 9.461,-21.137 21.125,-21.137 h 312.715 c 11.664,0 21.114,9.461 21.114,21.137 v 54.93 c 0,5.484 -1.77,10.824 -5.051,15.218 l -5.09,6.758 c -3.535,4.734 -6.52,9.859 -8.883,15.289 L 350.402,347.9 c -3.351,7.714 -10.961,12.703 -19.379,12.703 z m 5.102,-21.129 h 201.074 c 3.371,0 6.406,-2 7.746,-5.09 l 29.055,-66.75 H 88.039 l 29.051,66.75 c 1.344,3.09 4.387,5.09 7.75,5.09 z M 94.375,246.493 c 14.004,0 25.363,-11.343 25.363,-25.347 0,-14.004 -11.359,-25.352 -25.363,-25.352 -13.992,0 -25.352,11.348 -25.352,25.352 0,14.004 11.36,25.347 25.352,25.347 z m 262,0 c 14.004,0 25.363,-11.343 25.363,-25.347 0,-14.004 -11.359,-25.352 -25.363,-25.352 -14.004,0 -25.352,11.348 -25.352,25.352 0,14.004 11.348,25.347 25.352,25.347 z M 69.023,149.302 v -46.488 c 0,-6.996 5.68,-12.664 12.676,-12.664 h 25.352 c 7.008,0 12.687,5.668 12.687,12.664 v 46.488 z m 262,0 v -46.488 c 0,-6.996 5.68,-12.664 12.676,-12.664 h 25.352 c 7.008,0 12.687,5.668 12.687,12.664 v 46.488 z" /><path
         id="path4961"
         style="fill:#af151b;fill-opacity:1;fill-rule:nonzero;stroke:none"
         d="M 410.473,441.376 9.375,40.282 V 27.376 c 0,-9.949 8.059,-18 18,-18 h 14.723 l 399.277,399.278 v 14.722 c 0,9.938 -8.059,18 -18,18 z" /></g></g></svg>