<?xml version="1.0" encoding="UTF-8" standalone="no"?>
<svg
   xmlns:dc="http://purl.org/dc/elements/1.1/"
   xmlns:cc="http://creativecommons.org/ns#"
   xmlns:rdf="http://www.w3.org/1999/02/22-rdf-syntax-ns#"
   xmlns:svg="http://www.w3.org/2000/svg"
   xmlns="http://www.w3.org/2000/svg"
   id="svg9640"
   version="1.1"
   xml:space="preserve"
   width="847.15851"
   height="743.62268"
   viewBox="0 0 847.15851 743.62268"><metadata
     id="metadata9646"><rdf:RDF><cc:Work
         rdf:about=""><dc:format>image/svg+xml</dc:format><dc:type
           rdf:resource="http://purl.org/dc/dcmitype/StillImage" /><dc:title></dc:title></cc:Work></rdf:RDF></metadata><defs
     id="defs9644"><clipPath
       id="clipPath5301"
       clipPathUnits="userSpaceOnUse"><path
         id="path5303"
         d="M 0,0 639,0 639,561 0,561 0,0 Z" /></clipPath><clipPath
       id="clipPath4917"
       clipPathUnits="userSpaceOnUse"><path
         id="path4919"
         d="M 0,0 639,0 639,561 0,561 0,0 Z" /></clipPath></defs><g
     transform="matrix(-1,0,0,1,847.15851,0)"
     id="g3846"><g
       id="g3571"
       transform="matrix(-1,0,0,1,847.15851,0)"><g
         id="g9648"
         transform="matrix(1.25,0,0,-1.25,0,743.62267)"><g
           id="g9650"><path
             d="m 338.859,594.5 c 7.512,0 15.028,-2.867 20.758,-8.598 1.879,-1.879 3.445,-3.953 4.707,-6.152 l 15.246,-26.157 0.071,0 293.101,-508.039 c 0.055,-0.097 0.098,-0.195 0.153,-0.293 1.488,-2.394 2.656,-5.043 3.425,-7.91 4.196,-15.656 -5.097,-31.754 -20.758,-35.949 -2.585,-0.695 -5.183,-1.012 -7.738,-1 l -618.066,0 c -16.215,0 -29.356,13.141 -29.356,29.356 0,5.304 1.414,10.281 3.879,14.578 0.02,0.031 0.035,0.062 0.051,0.097 l 304.367,528.41 c 3.863,6.665 5.653,9.305 9.406,13.059 5.731,5.731 13.243,8.598 20.754,8.598 z"
             style="fill:#ffffff;fill-opacity:1;fill-rule:nonzero;stroke:none"
             id="path9652" /><path
             d="m 338.859,587.144 c 7.125,0.051 14.95,-3.59 18.782,-10.406 L 666.934,40.847 c 1.785,-3.648 2.535,-6.82 2.558,-10.449 0,-6.496 -2.875,-12.66 -7.847,-16.84 -4.383,-3.394 -8.536,-5.16 -14.122,-5.16 l -617.906,0 C 25.848,8.363 22.07,9.269 18.641,11.531 12.188,15.429 8.238,22.414 8.23,29.957 c 0.184,3.894 1.145,8 2.879,10.89 l 309.114,535.981 c 0.027,0.047 0.058,0.094 0.089,0.14 0.032,0.047 0.063,0.094 0.094,0.145 1.098,1.754 2.473,3.305 4.039,4.633 3.59,3.109 8.086,4.976 12.825,5.316 0.531,0.047 1.062,0.078 1.589,0.082 z M 647.523,8.398 l 1.524,0 -1.555,0 0.031,0 z M 339.18,480.933 103.477,72.398 l 471.738,0 -236.035,408.535 z"
             style="fill:#c1121c;fill-opacity:1;fill-rule:nonzero;stroke:none"
             id="path9656" /><path
             d="m 338.859,594.898 c 7.618,0 15.231,-2.906 21.039,-8.715 1.907,-1.902 3.493,-4.008 4.774,-6.234 l 15.129,-25.957 0.07,0 293.215,-508.238 c 0.066,-0.118 0.113,-0.219 0.16,-0.301 1.504,-2.422 2.684,-5.102 3.461,-7.996 C 680.957,21.586 671.535,5.269 655.668,1.015 653.047,0.312 650.41,-0.008 647.824,0 L 29.758,0 C 13.328,0 0,13.328 0,29.758 c 0,5.375 1.438,10.417 3.934,14.773 0.011,0.019 0.027,0.051 0.05,0.098 l 304.364,528.414 c 3.871,6.668 5.695,9.363 9.468,13.14 5.809,5.809 13.426,8.715 21.039,8.715 l 0.004,0 z m 0,-0.398 c -7.511,0 -15.023,-2.867 -20.754,-8.598 -3.753,-3.754 -5.543,-6.394 -9.406,-13.059 L 4.336,44.433 C 4.316,44.398 4.301,44.367 4.281,44.336 1.816,40.039 0.402,35.062 0.402,29.758 0.402,13.543 13.543,0.402 29.758,0.402 l 618.066,0 c 2.555,-0.012 5.153,0.305 7.738,1 15.661,4.195 24.954,20.293 20.758,35.949 -0.765,2.867 -1.937,5.516 -3.425,7.91 -0.055,0.098 -0.098,0.196 -0.153,0.293 l -293.101,508.039 -0.071,0 -15.246,26.157 c -1.262,2.199 -2.828,4.273 -4.707,6.152 -5.73,5.731 -13.242,8.598 -20.758,8.598 z"
             style="fill:#000000;fill-opacity:1;fill-rule:nonzero;stroke:none"
             id="path9658" /></g></g><g
         transform="matrix(1.3258361,0,0,-1.3258361,-0.73583904,744.37356)"
         id="g5289"><g
           id="g5291" /><g
           id="g5293"><g
             transform="translate(0,-0.128784)"
             id="g5295"><g
               id="g5297"><g
                 clip-path="url(#clipPath5301)"
                 id="g5299"><g
                   id="g5305" /></g></g></g></g></g></g><g
       id="g4907"
       transform="matrix(1.3258361,0,0,-1.3258361,1.700791,744.39478)"><g
         id="g4909"><g
           id="g4911"
           transform="translate(0,-0.128784)"><g
             id="g4913"><g
               id="g4915"
               clip-path="url(#clipPath4917)"><g
                 id="g4921" /></g></g></g><path
           d="m 343.148,153.695 8.614,14.27 c 6.445,-3.125 14.215,-0.422 17.34,6.039 0.015,0.016 0.031,0.027 0.031,0.059 l 5.179,10.793 -42.863,-11.68 -1.426,5.25 C 305,168.125 278.219,162.817 251.156,162.774 246.211,147.031 234.062,134.578 218.449,129.223 l -14.738,-5.063 c -8.031,-2.734 -15.027,-7.902 -20.047,-14.738 l -10.883,-14.84 c -5.105,-7 -12.293,-12.207 -20.527,-14.914 l 2.605,15.672 c 4.305,-0.539 8.496,1.641 10.504,5.484 l 16.758,32.094 10.461,7.375 c 12.773,6.637 19.352,21.168 15.902,35.137 l -1.382,5.644 c -1.106,4.465 0.859,9.121 4.832,11.434 l 12.875,7.555 c 2.125,1.234 4.379,2.222 6.734,2.937 l 70.387,21.301 c 13.445,4.058 23.933,14.633 27.863,28.137 l 9.473,32.398 c -6.883,0 -13.328,3.418 -17.2,9.094 l 21.082,1.293 -26.421,15.101 c -7.668,4.383 -12.582,12.356 -13.063,21.172 -0.047,1.004 0.727,1.848 1.731,1.906 0.859,0.043 1.644,-0.527 1.847,-1.371 l 0.336,-1.25 c 1.481,-5.789 5.383,-10.648 10.707,-13.355 l 1.496,-0.77 c 0.774,-0.394 1.703,-0.074 2.098,0.684 0.172,0.332 0.219,0.711 0.129,1.074 l -2.457,10.215 c -0.192,0.828 0.32,1.672 1.164,1.875 0.699,0.176 1.426,-0.172 1.746,-0.812 l 8.465,-16.981 c 0.742,-1.496 1.949,-2.703 3.449,-3.461 l 3.566,-1.82 c 0.77,-0.391 1.715,-0.086 2.11,0.683 0.16,0.321 0.219,0.7 0.113,1.063 l -3.723,15.555 c -0.203,0.843 0.305,1.687 1.149,1.875 0.699,0.175 1.441,-0.161 1.762,-0.813 l 9.238,-18.551 c 2.226,-4.468 6.199,-7.828 10.969,-9.281 l 30.32,-9.227 0,-9.078 -27.266,-7.812 -8.058,-61.192 c -0.801,-6.226 -3.477,-12.031 -7.668,-16.718 l 39.793,6.461 c 2.109,0.32 4.117,-1.106 4.465,-3.231 0.132,-0.871 -0.028,-1.73 -0.438,-2.515 L 376.289,168.43 c -4.074,-7.391 -11.508,-12.363 -19.914,-13.297"
           style="fill:#000000;fill-opacity:1;fill-rule:nonzero;stroke:none"
           id="path4929" /></g></g></g></svg>