<?xml version="1.0" encoding="UTF-8" standalone="no"?>
<svg
   xmlns:dc="http://purl.org/dc/elements/1.1/"
   xmlns:cc="http://creativecommons.org/ns#"
   xmlns:rdf="http://www.w3.org/1999/02/22-rdf-syntax-ns#"
   xmlns:svg="http://www.w3.org/2000/svg"
   xmlns="http://www.w3.org/2000/svg"
   id="svg6600"
   version="1.1"
   xml:space="preserve"
   width="901"
   height="901"
   viewBox="0 0 901 901"><metadata
     id="metadata6606"><rdf:RDF><cc:Work
         rdf:about=""><dc:format>image/svg+xml</dc:format><dc:type
           rdf:resource="http://purl.org/dc/dcmitype/StillImage" /><dc:title></dc:title></cc:Work></rdf:RDF></metadata><defs
     id="defs6604" /><g
     id="g6608"
     transform="matrix(1.25,0,0,-1.25,0,900.99999)"><g
       id="g6610"><path
         d="m 226.184,0.402 c -9.543,0 -18.704,3.804 -25.465,10.554 L 10.926,200.999 C 4.18,207.753 0.398,216.913 0.398,226.484 l 0,268.75 c 0,9.554 3.782,18.726 10.528,25.484 l 189.793,190.043 c 6.761,6.75 15.922,9.641 25.465,9.641 l 268.433,0 c 9.547,0 18.707,-2.891 25.449,-9.641 L 709.875,520.718 c 6.742,-6.758 10.523,-15.93 10.523,-25.484 l 0,-268.75 c 0,-9.571 -3.781,-18.731 -10.523,-25.485 L 520.066,10.956 C 513.324,4.206 504.164,0.402 494.617,0.402 l -268.433,0 z"
         style="fill:#ffffff;fill-opacity:1;fill-rule:nonzero;stroke:none"
         id="path6612" /><path
         d="m 689.793,496.566 -192.953,193.191 -272.879,0 -192.953,-193.191 0,-273.211 192.953,-193.192 272.879,0 192.953,193.192 0,273.211 z"
         style="fill:#c1121c;fill-opacity:1;fill-rule:nonzero;stroke:none"
         id="path6614" /><path
         d="m 544.375,445.968 0,-76.664 21.258,0 c 0,0 21.465,0.004 21.465,21.34 l 0,34.086 c 0,0 -0.102,21.238 -21.465,21.238 l -21.258,0 z m -34.039,-204.375 0,238.496 55.297,0 c 55.586,0 55.293,-55.359 55.293,-55.359 l 0,-34.086 c 0,0 0.293,-55.36 -55.293,-55.36 l -21.258,0 0,-93.691 -34.039,0 z m -114.832,55.359 c 0,-12.937 10.484,-23.429 23.402,-23.429 12.922,0 23.387,10.492 23.387,23.429 l 0,127.778 c 0,12.933 -10.465,23.414 -23.387,23.414 -12.918,0 -23.402,-10.481 -23.402,-23.414 l 0,-127.778 z m -34.059,0 0,127.778 c 0,31.738 25.727,57.496 57.461,57.496 31.703,0 57.41,-25.758 57.41,-57.496 l 0,-127.778 c 0,-31.742 -25.707,-57.476 -57.41,-57.476 -31.734,0 -57.461,25.734 -57.461,57.476 z m -91.441,-55.359 0,204.375 -40.399,0 0,34.121 114.833,0 0,-34.121 -40.415,0 0,-204.375 -34.019,0 z m -170.129,68.125 34.023,0 0,-12.766 c 0,-12.937 10.485,-23.429 23.383,-23.429 l 2.133,0 c 12.922,0 23.387,10.492 23.387,23.429 l 0,25.551 c 0,9.547 -5.774,18.129 -14.606,21.711 l -30.328,12.301 c -21.683,8.808 -35.859,29.883 -35.859,53.297 l 0,14.918 c 0,31.738 25.707,57.496 57.406,57.496 31.723,0 57.426,-25.758 57.426,-57.496 l 0,-12.785 -34.039,0 0,12.785 c 0,12.933 -10.465,23.414 -23.387,23.414 -12.922,0 -23.383,-10.481 -23.383,-23.414 l 0,-14.918 c 0,-9.532 5.77,-18.114 14.602,-21.692 L 180.98,375.8 c 21.684,-8.793 35.86,-29.867 35.86,-53.297 l 0,-25.551 c 0,-31.742 -25.703,-57.476 -57.426,-57.476 l -2.133,0 c -31.699,0 -57.406,25.734 -57.406,57.476"
         style="fill:#ffffff;fill-opacity:1;fill-rule:nonzero;stroke:none"
         id="path6616" /><path
         d="m 226.184,720.8 c -9.622,0 -18.899,-2.918 -25.746,-9.758 L 10.641,520.999 C 3.824,514.167 0,504.894 0,495.234 l 0,-268.75 c 0,-9.676 3.824,-18.938 10.641,-25.766 L 200.438,10.675 c 6.835,-6.828 16.097,-10.676 25.746,-10.676 l 268.433,0 c 9.653,0 18.914,3.848 25.735,10.676 l 189.804,190.043 c 6.821,6.828 10.645,16.09 10.645,25.766 l 0,268.75 c 0,9.66 -3.824,18.933 -10.645,25.765 L 520.352,711.042 c -6.832,6.84 -16.11,9.758 -25.735,9.758 l -268.433,0 z m 0,-0.398 268.433,0 c 9.547,0 18.707,-2.887 25.453,-9.641 L 709.875,520.718 c 6.742,-6.758 10.523,-15.93 10.523,-25.484 l 0,-268.75 c 0,-9.571 -3.781,-18.731 -10.523,-25.485 L 520.07,10.956 C 513.324,4.206 504.164,0.402 494.617,0.402 l -268.433,0 c -9.543,0 -18.704,3.804 -25.465,10.554 L 10.926,200.999 C 4.18,207.753 0.398,216.913 0.398,226.484 l 0,268.75 c 0,9.554 3.782,18.726 10.528,25.484 l 189.793,190.043 c 6.761,6.754 15.922,9.641 25.465,9.641 z"
         style="fill:#000000;fill-opacity:1;fill-rule:nonzero;stroke:none"
         id="path6618" /></g></g></svg>