<?xml version="1.0" encoding="UTF-8" standalone="no"?>
<svg
   xmlns:dc="http://purl.org/dc/elements/1.1/"
   xmlns:cc="http://creativecommons.org/ns#"
   xmlns:rdf="http://www.w3.org/1999/02/22-rdf-syntax-ns#"
   xmlns:svg="http://www.w3.org/2000/svg"
   xmlns="http://www.w3.org/2000/svg"
   viewBox="0 0 600 450.00339"
   height="450.00339"
   width="600"
   xml:space="preserve"
   version="1.1"
   id="svg5163"><metadata
     id="metadata5169"><rdf:RDF><cc:Work
         rdf:about=""><dc:format>image/svg+xml</dc:format><dc:type
           rdf:resource="http://purl.org/dc/dcmitype/StillImage" /><dc:title></dc:title></cc:Work></rdf:RDF></metadata><defs
     id="defs5167" /><g
     transform="matrix(1.25,0,0,-1.25,0,450.00339)"
     id="g5171"><g
       id="g5173"><path
         id="path5175"
         style="fill:#ffffff;fill-opacity:1;fill-rule:nonzero;stroke:none"
         d="m 31.996,359.761 c -17.504,0 -31.754,-14.25 -31.754,-31.754 l 0,-296.008 c 0,-17.516 14.25,-31.758 31.754,-31.758 l 416.008,0 c 17.516,0 31.766,14.242 31.766,31.758 l 0,296.008 c 0,17.504 -14.25,31.754 -31.766,31.754" /><path
         id="path5177"
         style="fill:#000000;fill-opacity:1;fill-rule:nonzero;stroke:none"
         d="M 31.996,0.471 C 14.613,0.471 0.473,14.612 0.473,31.999 l 0,295.996 c 0,17.383 14.14,31.523 31.523,31.523 l 416.008,0 c 17.383,0 31.523,-14.14 31.523,-31.523 l 0,-295.996 c 0,-17.387 -14.14,-31.528 -31.523,-31.528 l -416.008,0 z m 416.008,359.532 -416.008,0 C 14.328,360.003 0,345.675 0,327.995 L 0,31.999 c 0,-17.684 14.328,-32 31.996,-32 l 416.008,0 c 17.668,0 31.996,14.316 31.996,32 l 0,295.996 c 0,17.68 -14.328,32.008 -31.996,32.008" /><path
         id="path5179"
         style="fill:#000000;fill-opacity:1;fill-rule:nonzero;stroke:none"
         d="m 31.996,7.995 c -13.25,0 -23.992,10.754 -23.992,24.004 l 0,296.008 c 0,13.25 10.742,23.992 23.992,23.992 l 416.008,0 c 13.25,0 24.004,-10.742 24.004,-23.992 l 0,-296.008 c 0,-13.25 -10.754,-24.004 -24.004,-24.004" /><path
         id="path5181"
         style="fill:#ffffff;fill-opacity:1;fill-rule:nonzero;stroke:none"
         d="M 31.996,20.003 C 25.379,20.003 20,25.366 20,31.999 l 0,296.008 c 0,6.629 5.379,11.996 11.996,11.996 l 416.008,0 c 6.629,0 12.004,-5.367 12.004,-11.996 l 0,-296.008 c 0,-6.633 -5.375,-11.996 -12.004,-11.996" /><path
         id="path5183"
         style="fill:#000000;fill-opacity:1;fill-rule:nonzero;stroke:none"
         d="m 307.199,116.007 -9.597,0 0,9.597 9.597,0 0,-9.597 z m 0,-57.61 -9.597,0 0,48 9.597,0 0,-48 z m -52.801,28.801 20.399,0 c 0,5.641 -4.563,10.203 -10.195,10.203 -5.641,0 -10.204,-4.562 -10.204,-10.203 z m 29.997,-8.402 -29.997,0 0,-1.2 c 0,-4.168 2.54,-7.914 6.411,-9.464 5.343,-2.133 11.449,-0.641 15.187,3.714 l 7.277,-6.246 c -6.41,-7.476 -16.878,-10.05 -26.027,-6.386 -7.519,3.011 -12.445,10.289 -12.445,18.382 l 0,9.602 c 0,10.941 8.863,19.801 19.801,19.801 10.929,0 19.793,-8.86 19.793,-19.801 l 0,-8.402 z m -76.793,-20.399 0,48 9.597,0 0,-5.422 c 5.621,6.969 15.824,8.047 22.785,2.43 0,-0.008 0.008,-0.019 0.016,-0.019 l -6.828,-8.411 c -3.957,3.532 -10.027,3.176 -13.547,-0.793 -1.563,-1.757 -2.43,-4.035 -2.43,-6.375 l 0,-29.402 -9.597,0 0.004,-0.008 z m -29.997,0 0,40.203 -4.804,0 0,7.797 4.804,0 0,7.199 c 0,6.633 5.364,12.008 11.997,12.008 l 7.203,0 0,-9.004 -6.61,0 c -1.648,0 -2.992,-1.343 -2.992,-3.004 l 0,-7.199 9.602,0 0,-7.797 -9.602,0 0,-40.203" /><path
         id="path5185"
         style="fill:#000000;fill-opacity:1;fill-rule:nonzero;stroke:none"
         d="m 408.484,260.546 0,-9.907 -6.609,0 22.43,-44.851 c 0.465,-0.926 0.707,-1.938 0.707,-2.961 l 0,-21.563 c 0,-7.3 -5.918,-13.214 -13.219,-13.214 l -343.574,0 C 60.918,168.05 55,173.964 55,181.264 l 0,21.563 c 0,1.023 0.23,2.035 0.691,2.961 l 22.434,44.851 -6.609,0 0,9.907 59.464,0 3.301,3.308 27.082,0 -39.64,26.426 45.601,30.402 45.598,-30.402 -39.652,-26.426 27.085,0 3.309,-3.308" /><path
         id="path5187"
         style="fill:#ffffff;fill-opacity:1;fill-rule:nonzero;stroke:none"
         d="m 382.051,250.639 13.918,0 14.758,-29.515 c 2.859,-5.715 0.539,-12.664 -5.168,-15.512 -1.606,-0.805 -3.375,-1.223 -5.168,-1.223 l -18.34,0" /><path
         id="path5189"
         style="fill:#ffffff;fill-opacity:1;fill-rule:nonzero;stroke:none"
         d="m 368.844,250.639 c 3.648,0 6.609,-2.957 6.609,-6.609 l 0,-62.766 c 0,-3.648 -2.961,-6.605 -6.609,-6.605 l -26.434,0 c -3.652,0 -6.609,2.957 -6.609,6.605 l 0,62.766 c 0,3.652 2.957,6.609 6.609,6.609" /><path
         id="path5191"
         style="fill:#ffffff;fill-opacity:1;fill-rule:nonzero;stroke:none"
         d="m 322.586,250.639 c 3.648,0 6.617,-2.957 6.617,-6.609 l 0,-33.031 c 0,-3.653 -2.969,-6.61 -6.617,-6.61 l -46.25,0 c -3.652,0 -6.609,2.957 -6.609,6.61 l 0,33.031 c 0,3.652 2.957,6.609 6.609,6.609" /><path
         id="path5193"
         style="fill:#ffffff;fill-opacity:1;fill-rule:nonzero;stroke:none"
         d="m 256.52,250.639 c 3.652,0 6.609,-2.957 6.609,-6.609 l 0,-33.031 c 0,-3.653 -2.957,-6.61 -6.609,-6.61 l -46.258,0 c -3.641,0 -6.598,2.957 -6.598,6.61 l 0,33.031 c 0,3.652 2.957,6.609 6.598,6.609" /><path
         id="path5195"
         style="fill:#ffffff;fill-opacity:1;fill-rule:nonzero;stroke:none"
         d="m 190.449,250.639 c 3.649,0 6.606,-2.957 6.606,-6.609 l 0,-33.031 c 0,-3.653 -2.957,-6.61 -6.606,-6.61 l -46.25,0 c -3.652,0 -6.609,2.957 -6.609,6.61 l 0,33.031 c 0,3.652 2.957,6.609 6.609,6.609" /><path
         id="path5197"
         style="fill:#ffffff;fill-opacity:1;fill-rule:nonzero;stroke:none"
         d="m 124.375,250.639 c 3.648,0 6.605,-2.957 6.605,-6.609 l 0,-62.766 c 0,-3.648 -2.957,-6.605 -6.605,-6.605 l -13.219,0 c -3.648,0 -6.609,2.957 -6.609,6.605 l 0,62.766 c 0,3.652 2.961,6.609 6.609,6.609" /><path
         id="path5199"
         style="fill:#ffffff;fill-opacity:1;fill-rule:nonzero;stroke:none"
         d="m 97.941,250.639 0,-46.25 -18.32,0 c -6.391,0 -11.566,5.168 -11.566,11.559 0,1.801 0.418,3.563 1.218,5.176 l 14.758,29.515" /><path
         id="path5201"
         style="fill:#000000;fill-opacity:1;fill-rule:nonzero;stroke:none"
         d="m 190.449,161.44 c 0,-9.125 -7.402,-16.515 -16.515,-16.515 -9.129,0 -16.52,7.39 -16.52,16.515 l 33.035,0 z m -39.64,0 c 0,-3.429 0.757,-6.816 2.218,-9.906 l -27.578,0 c 1.465,3.09 2.223,6.477 2.223,9.906 l 23.137,0 z m -29.735,0 c 0,-9.125 -7.398,-16.515 -16.527,-16.515 -9.113,0 -16.516,7.39 -16.516,16.515" /><path
         id="path5203"
         style="fill:#000000;fill-opacity:1;fill-rule:nonzero;stroke:none"
         d="m 391.969,161.44 -33.031,0 c 0,-9.125 7.386,-16.515 16.515,-16.515 9.113,0 16.516,7.39 16.516,16.515 z m -39.653,0 c 0,-3.429 0.77,-6.816 2.243,-9.906 l -27.586,0 c 1.461,3.09 2.23,6.477 2.23,9.906 l 23.113,0 z m -29.73,0 c 0,-9.125 -7.391,-16.515 -16.52,-16.515 -9.113,0 -16.515,7.39 -16.515,16.515" /><path
         id="path5205"
         style="fill:#ffffff;fill-opacity:1;fill-rule:nonzero;stroke:none"
         d="m 167.324,263.854 -39.652,26.426 39.652,26.434 39.641,-26.434" /></g></g></svg>