<?xml version="1.0" encoding="UTF-8" standalone="no"?>
<svg
   xmlns:dc="http://purl.org/dc/elements/1.1/"
   xmlns:cc="http://creativecommons.org/ns#"
   xmlns:rdf="http://www.w3.org/1999/02/22-rdf-syntax-ns#"
   xmlns:svg="http://www.w3.org/2000/svg"
   xmlns="http://www.w3.org/2000/svg"
   viewBox="0 0 601 450.99997"
   height="450.99997"
   width="601"
   xml:space="preserve"
   version="1.1"
   id="svg12265"><metadata
     id="metadata12271"><rdf:RDF><cc:Work
         rdf:about=""><dc:format>image/svg+xml</dc:format><dc:type
           rdf:resource="http://purl.org/dc/dcmitype/StillImage" /><dc:title></dc:title></cc:Work></rdf:RDF></metadata><defs
     id="defs12269" /><g
     transform="matrix(1.25,0,0,-1.25,0,450.99998)"
     id="g12273"><g
       id="g12275"><path
         id="path12277"
         style="fill:#ffffff;fill-opacity:1;fill-rule:nonzero;stroke:none"
         d="m 32.184,360.402 c -17.52,0 -31.786,-14.266 -31.786,-31.797 l 0,-296.414 C 0.398,14.663 14.664,0.402 32.184,0.402 l 416.418,0 c 17.535,0 31.796,14.261 31.796,31.789 l 0,296.414 c 0,17.531 -14.261,31.797 -31.796,31.797 l -416.418,0 z" /><path
         id="path12279"
         style="fill:#000000;fill-opacity:1;fill-rule:nonzero;stroke:none"
         d="m 32.184,352.632 c -13.262,0 -24.016,-10.758 -24.016,-24.027 l 0,-296.414 C 8.168,18.925 18.922,8.163 32.184,8.163 l 416.418,0 c 13.265,0 24.027,10.762 24.027,24.028 l 0,296.414 c 0,13.269 -10.762,24.027 -24.027,24.027 l -416.418,0 z m 0,-12.02 416.418,0 c 6.636,0 12.015,-5.375 12.015,-12.007 l 0,-296.414 c 0,-6.641 -5.379,-12.008 -12.015,-12.008 l -416.418,0 c -6.621,0 -12.008,5.367 -12.008,12.008 l 0,296.414 c 0,6.632 5.387,12.007 12.008,12.007 z" /><path
         id="path12281"
         style="fill:#000000;fill-opacity:1;fill-rule:nonzero;stroke:none"
         d="M 32.184,360.8 C 14.445,360.8 0,346.355 0,328.605 L 0,32.191 C 0,14.448 14.445,-0.001 32.184,-0.001 l 416.418,0 c 17.75,0 32.199,14.449 32.199,32.192 l 0,296.414 c 0,17.75 -14.449,32.195 -32.199,32.195 l -416.418,0 z m 0,-0.398 416.418,0 c 17.535,0 31.796,-14.266 31.796,-31.797 l 0,-296.414 c 0,-17.524 -14.261,-31.789 -31.796,-31.789 l -416.418,0 c -17.52,0 -31.786,14.265 -31.786,31.789 l 0,296.414 c 0,17.531 14.266,31.797 31.786,31.797 z" /><path
         id="path12283"
         style="fill:#000000;fill-opacity:1;fill-rule:nonzero;stroke:none"
         d="m 133.09,80.722 c -17.836,0 -32.305,14.461 -32.305,32.297 l 0,0.394 0.637,52.782 c 0.035,2.593 0.297,5.191 0.801,7.75 l 3.312,16.914 c 0.516,2.671 1.297,5.289 2.309,7.804 l 15.679,38.992 c 1.649,4.079 5.598,6.75 9.997,6.75 l 47.203,0 c -2.891,11.008 -11.844,19.387 -23.012,21.543 l -14.242,0 c -1.781,0 -3.231,1.45 -3.231,3.231 0,1.785 1.45,3.234 3.231,3.234 l 86.164,0 c 1.781,0 3.222,-1.449 3.222,-3.234 0,-1.781 -1.441,-3.231 -3.222,-3.231 l -14.238,0 c -11.172,-2.156 -20.125,-10.535 -23.028,-21.543 l 26.488,0 c 10.504,0 20.047,-6.101 24.458,-15.632 l 5.101,-11.075 c 23.563,-51.066 71.988,-86.207 127.848,-92.761 l 0.812,-0.086 c 1.891,-0.231 3.321,-1.836 3.321,-3.75 l 0,-35 c 0,-2.969 -2.407,-5.379 -5.375,-5.379 l -241.93,0 z m -32.692,-32.317 0,16.157 21.532,0 0,10.773 32.316,0 0,-10.773 48.457,0 0,10.773 177.695,0 0,-10.773 c -57.808,0 -110.125,-6.336 -133.25,-16.157" /><path
         id="path12285"
         style="fill:#ffffff;fill-opacity:1;fill-rule:nonzero;stroke:none"
         d="m 173.445,265.948 c 6.223,-4.574 10.821,-11.019 13.106,-18.394 2.289,7.375 6.875,13.82 13.109,18.394 l -26.215,0 z m 192.953,-145.3 c 2.86,-0.438 5.743,-0.825 8.622,-1.121 l 0,-19.243 c -2.879,0.211 -5.75,0.442 -8.622,0.727 l 0,19.637 z m -16.152,3.211 c 3.563,-0.868 7.16,-1.637 10.766,-2.309 l 0,-19.957 c -3.598,0.406 -7.192,0.902 -10.766,1.453 l 0,20.813 z m -19.387,5.882 c 4.258,-1.55 8.555,-2.945 12.922,-4.175 l 0,-21.442 c -4.332,0.77 -8.644,1.637 -12.922,2.606 l 0,23.011 z m -22.617,10.008 c 4.903,-2.586 9.942,-4.937 15.074,-7.07 l 0,-24.137 c -5.078,1.297 -10.105,2.738 -15.074,4.313 l 0,26.894 z m -25.84,16.571 c 5.489,-4.235 11.239,-8.149 17.231,-11.731 l 0,-28.855 c -5.86,2.078 -11.613,4.343 -17.231,6.785 l 0,33.801 z m -29.086,28.425 c 5.864,-7.281 12.352,-14.097 19.387,-20.386 l 0,-37.375 c -5.805,2.824 -11.457,5.847 -16.945,9.058 l -2.442,48.703 z m -126.242,42.793 c 1,2.387 3.356,3.949 5.949,3.949 l 83.36,0 c 2.594,0 4.949,-1.562 5.949,-3.949 l 12.492,-30.16 c 1.383,-3.289 -0.156,-7.082 -3.441,-8.457 -0.805,-0.34 -1.653,-0.516 -2.508,-0.516 l -108.344,0 c -3.562,0 -6.453,2.903 -6.453,6.465 0,0.867 0.176,1.715 0.504,2.508 l 12.492,30.16 z m 97.172,-92.98 c 0,-5.938 -4.828,-10.762 -10.777,-10.762 -5.938,0 -10.766,4.824 -10.766,10.762 0,5.949 4.828,10.777 10.766,10.777 5.949,0 10.777,-4.828 10.777,-10.777 z m -86.152,0 c 0,-5.938 -4.828,-10.762 -10.778,-10.762 -5.949,0 -10.765,4.824 -10.765,10.762 0,5.949 4.816,10.777 10.765,10.777 5.95,0 10.778,-4.828 10.778,-10.777" /></g></g></svg>