<?xml version="1.0" encoding="UTF-8" standalone="no"?>
<svg
   xmlns:dc="http://purl.org/dc/elements/1.1/"
   xmlns:cc="http://creativecommons.org/ns#"
   xmlns:rdf="http://www.w3.org/1999/02/22-rdf-syntax-ns#"
   xmlns:svg="http://www.w3.org/2000/svg"
   xmlns="http://www.w3.org/2000/svg"
   viewBox="0 0 600 450.005"
   height="450.005"
   width="600"
   xml:space="preserve"
   version="1.1"
   id="svg3609"><metadata
     id="metadata3615"><rdf:RDF><cc:Work
         rdf:about=""><dc:format>image/svg+xml</dc:format><dc:type
           rdf:resource="http://purl.org/dc/dcmitype/StillImage" /><dc:title></dc:title></cc:Work></rdf:RDF></metadata><defs
     id="defs3613" /><g
     transform="matrix(1.25,0,0,-1.25,0,450.005)"
     id="g3617"><g
       id="g3619"><path
         id="path3621"
         style="fill:#ffffff;fill-opacity:1;fill-rule:nonzero;stroke:none"
         d="m 31.996,359.762 c -17.504,0 -31.754,-14.238 -31.754,-31.754 L 0.242,32 c 0,-17.508 14.25,-31.758 31.754,-31.758 l 416.008,0 c 17.516,0 31.766,14.25 31.766,31.758 l 0,296.008 c 0,17.516 -14.25,31.754 -31.766,31.754" /><path
         id="path3623"
         style="fill:#000000;fill-opacity:1;fill-rule:nonzero;stroke:none"
         d="M 31.996,0.473 C 14.613,0.473 0.473,14.613 0.473,32 l 0,296.008 c 0,17.383 14.14,31.512 31.523,31.512 l 416.008,0 c 17.383,0 31.523,-14.129 31.523,-31.512 l 0,-296.008 c 0,-17.387 -14.14,-31.527 -31.523,-31.527 l -416.008,0 z m 416.008,359.531 -416.008,0 C 14.328,360.004 0,345.676 0,328.008 L 0,32 C 0,14.328 14.328,0 31.996,0 L 448.004,0 C 465.672,0 480,14.328 480,32 l 0,296.008 c 0,17.668 -14.328,31.996 -31.996,31.996" /><path
         id="path3625"
         style="fill:#000000;fill-opacity:1;fill-rule:nonzero;stroke:none"
         d="m 31.996,352.012 c -13.25,0 -23.992,-10.746 -23.992,-24.004 L 8.004,32 C 8.004,18.75 18.746,7.996 31.996,7.996 l 416.008,0 c 13.25,0 24.004,10.754 24.004,24.004 l 0,296.008 c 0,13.258 -10.754,24.004 -24.004,24.004 l -416.008,0 z m 0,-12.008 416.008,0 c 6.629,0 12.004,-5.367 12.004,-11.996 l 0,-296.008 c 0,-6.633 -5.375,-11.996 -12.004,-11.996 l -416.008,0 C 25.379,20.004 20,25.367 20,32 l 0,296.008 c 0,6.629 5.379,11.996 11.996,11.996 z" /><path
         id="path3627"
         style="fill:#000000;fill-opacity:1;fill-rule:nonzero;stroke:none"
         d="m 317.469,127.774 -10.719,0 0,10.722 10.719,0 0,-10.722 z m 0,-64.36 -10.719,0 0,53.633 10.719,0 0,-53.633 z m -60.586,32.176 22.805,0 c 0,6.289 -5.102,11.387 -11.403,11.387 -6.305,0 -11.402,-5.098 -11.402,-11.387 z m 33.523,-9.387 -33.523,0 0,-1.34 c 0,-4.656 2.851,-8.843 7.176,-10.574 5.957,-2.383 12.777,-0.707 16.953,4.164 l 8.144,-7.004 c -7.176,-8.34 -18.871,-11.203 -29.09,-7.109 -8.386,3.351 -13.902,11.484 -13.902,20.523 l 0,10.727 c 0,12.219 9.91,22.121 22.121,22.121 12.207,0 22.121,-9.902 22.121,-22.121 l 0,-9.387 z m -89,-22.789 0,53.633 10.723,0 0,-6.051 c 6.289,7.77 17.676,8.988 25.453,2.699 l 0.02,0 -7.618,-9.41 c -4.433,3.93 -11.203,3.535 -15.144,-0.875 -1.742,-1.976 -2.715,-4.508 -2.715,-7.148 l 0,-32.832 -10.723,0 0.004,-0.016 z m -33.511,0 0,44.914 -5.364,0 0,8.719 5.364,0 0,8.047 c 0,7.398 6.007,13.402 13.402,13.402 l 8.047,0 0,-10.058 -7.371,0 c -1.852,0 -3.356,-1.5 -3.356,-3.344 l 0,-8.047 10.727,0 0,-8.719 -10.727,0 0,-44.914" /><path
         id="path3629"
         style="fill:#008754;fill-opacity:1;fill-rule:nonzero;stroke:none"
         d="m 364.008,239.496 c 0,-31.812 -25.789,-57.601 -57.602,-57.601 -31.812,0 -57.597,25.789 -57.597,57.601 0,31.813 25.785,57.602 57.597,57.602 31.813,0 57.602,-25.789 57.602,-57.602 z" /><path
         id="path3631"
         style="fill:#000000;fill-opacity:1;fill-rule:nonzero;stroke:none"
         d="m 306.406,299.496 c -33.136,0 -60,-26.863 -60,-60 0,-33.137 26.864,-60 60,-60 33.137,0 60,26.863 60,60 0,33.137 -26.863,60 -60,60 z m 0,-2.398 c 31.813,0 57.602,-25.789 57.602,-57.602 0,-31.812 -25.789,-57.601 -57.602,-57.601 -31.812,0 -57.601,25.789 -57.601,57.601 0,31.813 25.789,57.602 57.601,57.602 z" /><path
         id="path3633"
         style="fill:#ffffff;fill-opacity:1;fill-rule:nonzero;stroke:none"
         d="m 262.406,234.938 88,0 0,-28 -88,0 0,28 z" /><path
         id="path3635"
         style="fill:#f7ba0b;fill-opacity:1;fill-rule:nonzero;stroke:none"
         d="m 231.207,239.496 c 0,-31.812 -25.789,-57.601 -57.602,-57.601 -31.812,0 -57.597,25.789 -57.597,57.601 0,31.813 25.785,57.602 57.597,57.602 31.813,0 57.602,-25.789 57.602,-57.602 z" /><path
         id="path3637"
         style="fill:#000000;fill-opacity:1;fill-rule:nonzero;stroke:none"
         d="m 173.605,299.496 c -33.136,0 -60,-26.863 -60,-60 0,-33.137 26.864,-60 60,-60 33.137,0 60,26.863 60,60 0,33.137 -26.863,60 -60,60 z m 0,-2.398 c 31.813,0 57.602,-25.789 57.602,-57.602 0,-31.812 -25.789,-57.601 -57.602,-57.601 -31.812,0 -57.601,25.789 -57.601,57.601 0,31.813 25.789,57.602 57.601,57.602 z" /><path
         id="path3639"
         style="fill:#ffffff;fill-opacity:1;fill-rule:nonzero;stroke:none"
         d="m 129.605,234.938 88,0 0,-28 -88,0 0,28 z" /></g></g></svg>