<?xml version="1.0" encoding="UTF-8" standalone="no"?>
<svg
   xmlns:dc="http://purl.org/dc/elements/1.1/"
   xmlns:cc="http://creativecommons.org/ns#"
   xmlns:rdf="http://www.w3.org/1999/02/22-rdf-syntax-ns#"
   xmlns:svg="http://www.w3.org/2000/svg"
   xmlns="http://www.w3.org/2000/svg"
   viewBox="0 0 600.6261 450.4025"
   height="450.4025"
   width="600.6261"
   xml:space="preserve"
   version="1.1"
   id="svg8119"><metadata
     id="metadata8125"><rdf:RDF><cc:Work
         rdf:about=""><dc:format>image/svg+xml</dc:format><dc:type
           rdf:resource="http://purl.org/dc/dcmitype/StillImage" /><dc:title></dc:title></cc:Work></rdf:RDF></metadata><defs
     id="defs8123" /><g
     transform="matrix(1.25,0,0,-1.25,0,450.40249)"
     id="g8127"><g
       id="g8129"><path
         id="path8131"
         style="fill:#ffffff;fill-opacity:1;fill-rule:nonzero;stroke:none"
         d="m 32.043,360.322 c -17.527,0 -31.801,-14.273 -31.801,-31.813 l 0,-296.46 C 0.242,14.513 14.516,0.244 32.043,0.244 l 416.645,0 c 17.542,0 31.812,14.269 31.812,31.805 l 0,296.46 c 0,17.54 -14.27,31.813 -31.812,31.813" /><path
         id="path8133"
         style="fill:#000000;fill-opacity:1;fill-rule:nonzero;stroke:none"
         d="M 31.996,0.47 C 14.613,0.47 0.477,14.611 0.477,32.002 l 0,296.007 c 0,17.383 14.136,31.524 31.519,31.524 l 416.008,0 c 17.383,0 31.519,-14.141 31.519,-31.524 l 0,-296.007 C 479.523,14.611 465.387,0.47 448.004,0.47 l -416.008,0 z m 416.008,359.536 -416.008,0 C 14.328,360.006 0,345.677 0,328.009 L 0,32.002 c 0,-17.672 14.328,-32 31.996,-32 l 416.008,0 c 17.668,0 31.996,14.328 31.996,32 l 0,296.007 c 0,17.668 -14.328,31.997 -31.996,31.997" /><path
         id="path8135"
         style="fill:#000000;fill-opacity:1;fill-rule:nonzero;stroke:none"
         d="m 31.996,352.013 c -13.25,0 -23.992,-10.746 -23.992,-24.004 l 0,-296.007 c 0,-13.25 10.742,-24.004 23.992,-24.004 l 416.008,0 c 13.25,0 24.004,10.754 24.004,24.004 l 0,296.007 c 0,13.258 -10.754,24.004 -24.004,24.004 l -416.008,0 z m 0,-12.007 416.008,0 c 6.629,0 12.004,-5.368 12.004,-11.997 l 0,-296.007 c 0,-6.633 -5.375,-11.996 -12.004,-11.996 l -416.008,0 C 25.379,20.006 20,25.369 20,32.002 l 0,296.007 c 0,6.629 5.379,11.997 11.996,11.997 z" /><path
         id="path8137"
         style="fill:#000000;fill-opacity:1;fill-rule:nonzero;stroke:none"
         d="m 307.582,111.482 -9.594,0 0,9.598 9.594,0 0,-9.598 z m 0,-57.617 -9.594,0 0,48.012 9.594,0 0,-48.012 z m -52.812,28.809 20.418,0 c 0,5.636 -4.575,10.199 -10.211,10.199 -5.633,0 -10.207,-4.563 -10.207,-10.199 z m 30.011,-8.403 -30.011,0 0,-1.203 c 0,-4.168 2.55,-7.922 6.421,-9.476 5.329,-2.133 11.434,-0.633 15.176,3.73 l 7.289,-6.258 c -6.414,-7.484 -16.883,-10.043 -26.031,-6.39 -7.516,3.011 -12.449,10.296 -12.449,18.394 l 0,9.606 c 0,10.929 8.859,19.804 19.801,19.804 10.941,0 19.804,-8.875 19.804,-19.804 l 0,-8.403 z m -76.816,-20.406 0,48.012 9.605,0 0,-5.418 c 5.621,6.961 15.821,8.043 22.789,2.418 0,-0.008 0.012,-0.008 0.012,-0.02 l -6.816,-8.414 c -3.961,3.524 -10.032,3.172 -13.555,-0.789 -1.566,-1.762 -2.43,-4.027 -2.43,-6.391 l 0,-29.398 -9.605,0 z m -30.004,0 0,40.211 -4.801,0 0,7.801 4.801,0 0,7.199 c 0,6.629 5.371,12.004 12.004,12.004 l 7.199,0 0,-9.008 -6.598,0 c -1.664,0 -3.007,-1.344 -3.007,-2.996 l 0,-7.199 9.605,0 0,-7.801 -9.605,0 0,-40.211" /><path
         id="path8139"
         style="fill:#000000;fill-opacity:1;fill-rule:nonzero;stroke:none"
         d="m 197.504,306.314 c -9.336,0 -17.727,-5.664 -21.207,-14.32 L 158.453,247.65 c -22.289,5.535 -45.539,-4.379 -56.984,-24.281 -14.157,-24.629 -5.676,-56.074 18.953,-70.235 24.629,-14.167 56.074,-5.675 70.234,18.942 14.168,24.629 5.688,56.074 -18.941,70.242 l 7.351,18.285 38.067,-54.707 c 8.547,-12.277 22.558,-19.605 37.527,-19.605 l 29.871,0 c 4.922,-21.633 23.184,-37.672 45.274,-39.774 28.285,-2.691 53.394,18.051 56.086,46.336 2.691,28.285 -18.063,53.395 -46.336,56.086 -28.285,2.68 -53.395,-18.066 -56.086,-46.347 l -33.512,-1.981 c -1.828,-0.109 -3.668,0.078 -5.449,0.559 -9.149,2.449 -14.574,11.847 -12.125,20.996 l 1.883,7.035 c 0.875,3.258 0.261,6.73 -1.653,9.488 l -17.801,25.578 c -2.144,3.075 -5.644,4.903 -9.386,4.903 l -22.91,0 7.031,17.496 c 1.312,3.238 4.453,5.371 7.957,5.371 l 22.867,0 0,14.277 -22.867,0 z M 334.75,234.881 c 1.867,-0.008 3.758,-0.153 5.656,-0.45 20.278,-3.16 34.137,-22.156 30.989,-42.429 -3.176,-20.278 -22.168,-34.149 -42.442,-30.989 -13.851,2.168 -25.308,11.938 -29.617,25.278 l 46.773,0 0,20.008 -48.14,-2.844 c 2.875,18.375 18.742,31.48 36.781,31.426 z m -188.648,-0.004 c 2.304,0 4.628,-0.219 6.945,-0.664 l -13.609,-33.821 c -1.477,-3.664 0.304,-7.824 3.96,-9.3 3.664,-1.465 7.825,0.308 9.29,3.96 l 13.621,33.832 c 17.199,-11.183 22.093,-34.191 10.91,-51.39 -11.172,-17.211 -34.184,-22.106 -51.391,-10.922 -17.211,11.172 -22.094,34.18 -10.922,51.391 6.942,10.683 18.762,16.933 31.196,16.914 z" /><path
         id="path8141"
         style="fill:#000000;fill-opacity:1;fill-rule:nonzero;stroke:none"
         d="m 374.688,269.17 0,-14.289 -40.012,0 c -11.731,0 -23.176,-3.61 -32.781,-10.329 l -21.926,14.223 c -2.594,1.805 -3.219,5.371 -1.414,7.953 1.074,1.531 2.812,2.442 4.683,2.442" /></g></g></svg>