<?xml version="1.0" encoding="UTF-8" standalone="no"?>
<svg
   xmlns:dc="http://purl.org/dc/elements/1.1/"
   xmlns:cc="http://creativecommons.org/ns#"
   xmlns:rdf="http://www.w3.org/1999/02/22-rdf-syntax-ns#"
   xmlns:svg="http://www.w3.org/2000/svg"
   xmlns="http://www.w3.org/2000/svg"
   viewBox="0 0 600 450.00351"
   height="450.00351"
   width="600"
   xml:space="preserve"
   version="1.1"
   id="svg3591"><metadata
     id="metadata3597"><rdf:RDF><cc:Work
         rdf:about=""><dc:format>image/svg+xml</dc:format><dc:type
           rdf:resource="http://purl.org/dc/dcmitype/StillImage" /><dc:title></dc:title></cc:Work></rdf:RDF></metadata><defs
     id="defs3595"><clipPath
       id="clipPath3607"
       clipPathUnits="userSpaceOnUse"><path
         id="path3609"
         d="M 0,0 480,0 480,361 0,361 0,0 Z" /></clipPath></defs><g
     transform="matrix(1.25,0,0,-1.25,0,450.00351)"
     id="g3599"><g
       id="g3601"><g
         transform="translate(0,-0.997192)"
         id="g3603"><g
           id="g3605" /><g
           id="g3611"><g
             id="g3613"
             clip-path="url(#clipPath3607)"><g
               id="g3615"><path
                 id="path3617"
                 style="fill:#ffffff;fill-opacity:1;fill-rule:nonzero;stroke:none"
                 d="m 31.996,360.758 c -17.504,0 -31.754,-14.25 -31.754,-31.754 l 0,-296.008 C 0.242,15.48 14.492,1.238 31.996,1.238 l 416.008,0 c 17.516,0 31.766,14.242 31.766,31.758 l 0,296.008 c 0,17.504 -14.25,31.754 -31.766,31.754" /><path
                 id="path3619"
                 style="fill:#000000;fill-opacity:1;fill-rule:nonzero;stroke:none"
                 d="m 31.996,1.469 c -17.383,0 -31.519,14.14 -31.519,31.527 l 0,295.996 c 0,17.383 14.136,31.531 31.519,31.531 l 416.008,0 c 17.383,0 31.519,-14.148 31.519,-31.531 l 0,-295.996 c 0,-17.387 -14.136,-31.527 -31.519,-31.527 l -416.008,0 z M 448.004,361 31.996,361 C 14.328,361 0,346.672 0,328.992 L 0,32.996 c 0,-17.683 14.328,-32 31.996,-32 l 416.008,0 c 17.668,0 31.996,14.317 31.996,32 l 0,295.996 C 480,346.672 465.672,361 448.004,361" /></g></g></g></g></g><g
       id="g3621"><path
         id="path3623"
         style="fill:#000000;fill-opacity:1;fill-rule:nonzero;stroke:none"
         d="m 31.996,7.995 c -13.25,0 -23.992,10.754 -23.992,24.004 l 0,296.008 c 0,13.246 10.742,23.992 23.992,23.992 l 416.008,0 c 13.25,0 24.004,-10.746 24.004,-23.992 l 0,-296.008 c 0,-13.25 -10.754,-24.004 -24.004,-24.004" /><path
         id="path3625"
         style="fill:#ffffff;fill-opacity:1;fill-rule:nonzero;stroke:none"
         d="m 31.996,19.999 c -6.617,0 -11.996,5.367 -11.996,12 l 0,296.008 c 0,6.629 5.379,11.992 11.996,11.992 l 416.008,0 c 6.629,0 12.004,-5.363 12.004,-11.992 l 0,-296.008 c 0,-6.633 -5.375,-12 -12.004,-12" /><g
         transform="matrix(1,0,0,-1,0,360.00281)"
         id="g3627"><path
           id="path3629"
           style="fill:none;stroke:#000000;stroke-width:11.4031229;stroke-linecap:butt;stroke-linejoin:miter;stroke-miterlimit:4;stroke-dasharray:none;stroke-opacity:1"
           d="m 203.941,146.691 c 0,25.348 -20.546,45.899 -45.898,45.899 -25.348,0 -45.895,-20.551 -45.895,-45.899 0,-25.347 20.547,-45.898 45.895,-45.898 25.352,0 45.898,20.551 45.898,45.898 z" /></g><g
         transform="matrix(1,0,0,-1,0,360.00281)"
         id="g3631"><path
           id="path3633"
           style="fill:none;stroke:#000000;stroke-width:11.4031229;stroke-linecap:butt;stroke-linejoin:miter;stroke-miterlimit:4;stroke-dasharray:none;stroke-opacity:1"
           d="m 367.863,145.836 c 0,25.348 -20.55,45.898 -45.898,45.898 -25.348,0 -45.899,-20.55 -45.899,-45.898 0,-25.348 20.551,-45.898 45.899,-45.898 25.348,0 45.898,20.55 45.898,45.898 z" /></g><path
         id="path3635"
         style="fill:#000000;fill-opacity:1;fill-rule:evenodd;stroke:none"
         d="m 219.188,325.499 c -37.79,-0.367 -31.383,3.906 -51.715,-61.438 -16.563,-52.211 -14.758,-46.519 -14.844,-50.179 -0.063,-2.844 2.234,-5.102 5.121,-5.293 6,0.605 3.477,-0.653 24.285,63.968 76.035,-80.21 47.508,-67.203 88.426,-68.832 53.777,0.516 58.148,-2.8 58.789,5.082 -0.074,2.676 -1.328,4.274 -38.234,86.415 l 3.535,9.722 12.156,0.223 -0.441,10.164 -45.305,0 c -4.004,-5.473 1.617,-5.449 21.879,-9.945 l -3.539,-9.946 -90.391,-0.218 c 6.09,21.265 2.653,19.937 30.059,19.89 l 0.219,10.387 z m -32.887,-41.176 88.449,0.156 -25.562,-68.691 -62.887,68.535 z m 99.113,-4.078 -25.094,-65.867 54.891,-0.156 -29.797,66.023 z" /><path
         id="path3637"
         style="fill:#000000;fill-opacity:1;fill-rule:nonzero;stroke:none"
         d="m 187.133,141.511 -0.36,-81.614 25.36,27.192 0,-18.977 -32.895,-33.613 -33.652,32.375 0,18.344 26.672,-25.36 -1.074,81.332 15.949,0.321 z" /><path
         id="path3639"
         style="fill:#000000;fill-opacity:1;fill-rule:nonzero;stroke:none"
         d="m 312.621,39.917 -0.359,81.609 25.355,-27.191 0,18.98 -32.894,33.61 -33.649,-32.375 0,-18.34 26.672,25.355 -1.074,-81.332 15.949,-0.316 z" /></g></g></svg>