<?xml version="1.0" encoding="UTF-8" standalone="no"?>
<svg
   xmlns:dc="http://purl.org/dc/elements/1.1/"
   xmlns:cc="http://creativecommons.org/ns#"
   xmlns:rdf="http://www.w3.org/1999/02/22-rdf-syntax-ns#"
   xmlns:svg="http://www.w3.org/2000/svg"
   xmlns="http://www.w3.org/2000/svg"
   viewBox="0 0 601 450.99997"
   height="450.99997"
   width="601"
   xml:space="preserve"
   version="1.1"
   id="svg13206"><metadata
     id="metadata13212"><rdf:RDF><cc:Work
         rdf:about=""><dc:format>image/svg+xml</dc:format><dc:type
           rdf:resource="http://purl.org/dc/dcmitype/StillImage" /><dc:title></dc:title></cc:Work></rdf:RDF></metadata><defs
     id="defs13210"><clipPath
       id="clipPath13228"
       clipPathUnits="userSpaceOnUse"><path
         id="path13230"
         d="m 61,50 358,0 0,262 -358,0 0,-262 z" /></clipPath></defs><g
     transform="matrix(1.25,0,0,-1.25,0,450.99998)"
     id="g13214"><g
       id="g13216"><path
         id="path13218"
         style="fill:#ffffff;fill-opacity:1;fill-rule:nonzero;stroke:none"
         d="m 32.184,360.402 c -17.52,0 -31.786,-14.266 -31.786,-31.797 l 0,-296.414 C 0.398,14.663 14.664,0.402 32.184,0.402 l 416.418,0 c 17.535,0 31.796,14.261 31.796,31.789 l 0,296.414 c 0,17.531 -14.261,31.797 -31.796,31.797 l -416.418,0 z" /><path
         id="path13220"
         style="fill:#000000;fill-opacity:1;fill-rule:nonzero;stroke:none"
         d="m 32.184,352.632 c -13.262,0 -24.016,-10.758 -24.016,-24.027 l 0,-296.414 C 8.168,18.925 18.922,8.163 32.184,8.163 l 416.418,0 c 13.265,0 24.027,10.762 24.027,24.028 l 0,296.414 c 0,13.269 -10.762,24.027 -24.027,24.027 l -416.418,0 z m 0,-12.02 416.418,0 c 6.636,0 12.015,-5.375 12.015,-12.007 l 0,-296.414 c 0,-6.641 -5.379,-12.008 -12.015,-12.008 l -416.418,0 c -6.622,0 -12.008,5.367 -12.008,12.008 l 0,296.414 c 0,6.632 5.386,12.007 12.008,12.007 z" /><g
         transform="translate(0,-0.200012)"
         id="g13222"><g
           id="g13224"><g
             clip-path="url(#clipPath13228)"
             id="g13226"><g
               id="g13232"><path
                 id="path13234"
                 style="fill:#000000;fill-opacity:1;fill-rule:nonzero;stroke:none"
                 d="m 61.984,243.621 0,67.41 15.614,0 c 8.64,0 15.629,-7.004 15.629,-15.644 l 0,-5.414 c 0,-4.614 -2.641,-8.828 -6.789,-10.836 4.148,-2.012 6.789,-6.227 6.789,-10.84 l 0,-9.031 c 0,-8.641 -6.989,-15.645 -15.629,-15.645 l -15.614,0 z m 9.606,9.621 6.008,0 c 3.656,0 6.617,2.969 6.617,6.629 l 0,8.426 c 0,3.66 -2.961,6.625 -6.617,6.625 l -6.008,0 0,-21.68 z m 0,30.106 6.008,0 c 3.656,0 6.617,2.964 6.617,6.625 l 0,5.414 c 0,3.66 -2.961,6.613 -6.617,6.613 l -6.008,0 0,-18.652 z" /><path
                 id="path13236"
                 style="fill:#000000;fill-opacity:1;fill-rule:nonzero;stroke:none"
                 d="m 129.27,243.621 -9.622,0 0,4.817 c -2.64,-4.993 -8.839,-6.872 -13.808,-4.211 -3.336,1.781 -5.414,5.238 -5.414,9.015 l 0,7.238 c 0,6.641 5.386,12.04 12.015,12.04 l 7.207,0 0,5.414 c 0,2.664 -2.152,4.82 -4.793,4.82 -2.66,0 -4.812,-2.156 -4.812,-4.82 l -9.617,0 c 0,7.972 6.457,14.445 14.429,14.445 7.957,0 14.415,-6.473 14.415,-14.445 l 0,-34.313 z m -9.622,21.07 -4.793,0 c -2.66,0 -4.812,-2.156 -4.812,-4.82 l 0,-2.402 c 0,-2.66 2.152,-4.821 4.812,-4.821 2.641,0 4.793,2.161 4.793,4.821 l 0,7.222 z" /><path
                 id="path13238"
                 style="fill:#000000;fill-opacity:1;fill-rule:nonzero;stroke:none"
                 d="m 167.715,243.621 -9.606,0 0,4.817 c -2.656,-4.993 -8.851,-6.872 -13.82,-4.211 -3.34,1.781 -5.418,5.238 -5.418,9.015 l 0,38.528 9.621,0 0,-34.301 c 0,-2.66 2.153,-4.821 4.809,-4.821 2.644,0 4.808,2.161 4.808,4.821 l 0,34.301 9.606,0 0,-48.149 z" /><path
                 id="path13240"
                 style="fill:#000000;fill-opacity:1;fill-rule:nonzero;stroke:none"
                 d="m 174.922,257.465 9.016,0 c 0,-2.996 2.425,-5.414 5.398,-5.414 2.992,0 5.418,2.418 5.418,5.414 0,2.14 -1.27,4.082 -3.223,4.949 l -7.785,2.863 c -6.973,3.086 -10.125,11.278 -7.031,18.266 3.09,6.992 11.25,10.145 18.226,7.047 4.997,-2.215 8.219,-7.176 8.219,-12.66 l -9.012,0 c 0,2.66 -2.152,4.816 -4.812,4.816 -2.641,0 -4.809,-2.156 -4.809,-4.816 0,-1.899 1.129,-3.633 2.875,-4.403 l 7.786,-2.851 c 7.281,-3.227 10.558,-11.766 7.335,-19.059 -3.218,-7.293 -11.742,-10.594 -19.019,-7.351 -5.215,2.3 -8.582,7.48 -8.582,13.199" /><path
                 id="path13242"
                 style="fill:#000000;fill-opacity:1;fill-rule:nonzero;stroke:none"
                 d="m 227.789,243.621 -4.812,0 c -5.965,0 -10.801,4.848 -10.801,10.84 l 0,29.492 -4.813,0 0,7.817 4.813,0 0,14.457 9.605,0 0,-14.457 6.008,0 0,-7.817 -6.008,0 0,-28.293 c 0,-1.664 1.34,-3.012 3.004,-3.012 l 3.004,0 0,-9.027 z" /><path
                 id="path13244"
                 style="fill:#000000;fill-opacity:1;fill-rule:nonzero;stroke:none"
                 d="m 262.633,257.465 c 0,-7.977 -6.457,-14.445 -14.418,-14.445 -7.957,0 -14.414,6.468 -14.414,14.445 l 0,20.465 c 0,7.988 6.457,14.441 14.414,14.441 7.961,0 14.418,-6.453 14.418,-14.441 l 0,-13.836 -19.227,0 0,-6.629 c 0,-2.664 2.153,-4.82 4.809,-4.82 2.66,0 4.812,2.156 4.812,4.82 l 9.606,0 z m -19.227,14.441 9.621,0 0,6.024 c 0,2.66 -2.152,4.816 -4.812,4.816 -2.656,0 -4.809,-2.156 -4.809,-4.816 l 0,-6.024 z" /><path
                 id="path13246"
                 style="fill:#000000;fill-opacity:1;fill-rule:nonzero;stroke:none"
                 d="m 285.457,243.621 -3.598,0 c -5.976,0 -10.816,4.848 -10.816,10.84 l 0,56.57 9.605,0 0,-55.371 c 0,-1.664 1.344,-3.012 3.004,-3.012 l 1.805,0 0,-9.027 z m 21.621,0 -3.594,0 c -5.98,0 -10.82,4.848 -10.82,10.84 l 0,56.57 9.621,0 0,-55.371 c 0,-1.664 1.344,-3.012 3.004,-3.012 l 1.789,0 0,-9.027 z" /><path
                 id="path13248"
                 style="fill:#000000;fill-opacity:1;fill-rule:nonzero;stroke:none"
                 d="m 341.93,257.465 c 0,-7.977 -6.457,-14.445 -14.414,-14.445 -7.973,0 -14.43,6.468 -14.43,14.445 l 0,20.465 c 0,7.988 6.457,14.441 14.43,14.441 7.957,0 14.414,-6.453 14.414,-14.441 l 0,-13.836 -19.223,0 0,-6.629 c 0,-2.664 2.148,-4.82 4.809,-4.82 2.64,0 4.793,2.156 4.793,4.82 l 9.621,0 z m -19.223,14.441 9.602,0 0,6.024 c 0,2.66 -2.153,4.816 -4.793,4.816 -2.661,0 -4.809,-2.156 -4.809,-4.816 l 0,-6.024 z" /><path
                 id="path13250"
                 style="fill:#000000;fill-opacity:1;fill-rule:nonzero;stroke:none"
                 d="m 350.34,243.621 0,48.149 9.605,0 0,-4.805 c 2.657,4.976 8.84,6.875 13.821,4.211 3.324,-1.781 5.402,-5.254 5.402,-9.031 l 0,-38.524 -9.606,0 0,34.313 c 0,2.664 -2.152,4.82 -4.808,4.82 -2.656,0 -4.809,-2.156 -4.809,-4.82 l 0,-34.313 -9.605,0 z" /><path
                 id="path13252"
                 style="fill:#000000;fill-opacity:1;fill-rule:nonzero;stroke:none"
                 d="m 389.984,274.926 28.828,0 0,-9.621 -28.828,0 0,9.621 z" /><path
                 id="path13254"
                 style="fill:#000000;fill-opacity:1;fill-rule:nonzero;stroke:none"
                 d="m 92.922,147.312 0,40.333 -4.813,0 0,7.816 4.813,0 0,7.223 c 0,6.656 5.371,12.039 12.016,12.039 l 4.796,0 0,-9.028 -4.203,0 c -1.664,0 -3.008,-1.347 -3.008,-3.011 l 0,-7.223 7.211,0 0,-7.816 -7.211,0 0,-40.333 -9.601,0 z" /><path
                 id="path13256"
                 style="fill:#000000;fill-opacity:1;fill-rule:nonzero;stroke:none"
                 d="m 143.379,147.312 -9.606,0 0,4.821 c -2.656,-4.996 -8.839,-6.875 -13.82,-4.215 -3.324,1.766 -5.402,5.242 -5.402,9.02 l 0,7.234 c 0,6.644 5.371,12.043 12.015,12.043 l 7.207,0 0,5.41 c 0,2.648 -2.152,4.805 -4.808,4.805 -2.656,0 -4.809,-2.157 -4.809,-4.805 l -9.605,0 c 0,7.977 6.453,14.445 14.414,14.445 7.957,0 14.414,-6.468 14.414,-14.445 l 0,-34.313 z m -9.606,21.071 -4.808,0 c -2.656,0 -4.809,-2.156 -4.809,-4.821 l 0,-2.402 c 0,-2.66 2.153,-4.816 4.809,-4.816 2.656,0 4.808,2.156 4.808,4.816 l 0,7.223 z" /><path
                 id="path13258"
                 style="fill:#000000;fill-opacity:1;fill-rule:nonzero;stroke:none"
                 d="m 152.996,147.312 0,67.411 9.602,0 0,-24.067 c 2.66,4.981 8.84,6.86 13.824,4.211 3.336,-1.777 5.402,-5.254 5.402,-9.031 l 0,-38.524 -9.605,0 0,34.313 c 0,2.648 -2.153,4.805 -4.809,4.805 -2.66,0 -4.812,-2.157 -4.812,-4.805 l 0,-34.313 -9.602,0 z" /><path
                 id="path13260"
                 style="fill:#000000;fill-opacity:1;fill-rule:nonzero;stroke:none"
                 d="m 191.438,147.312 0,48.149 9.605,0 0,-5.426 c 3.094,3.82 7.73,6.035 12.625,6.035 l 0,-10.117 c -5.039,1.664 -10.473,-1.086 -12.133,-6.137 -0.316,-0.968 -0.492,-1.98 -0.492,-3.011 l 0,-29.493 -9.605,0 z" /><path
                 id="path13262"
                 style="fill:#000000;fill-opacity:1;fill-rule:nonzero;stroke:none"
                 d="m 217.273,147.312 0,7.829 15.614,31.898 -14.418,0 0,8.422 25.234,0 0,-7.223 -15.613,-31.894 15.613,0 0,-9.032 -26.43,0 z" /><path
                 id="path13264"
                 style="fill:#000000;fill-opacity:1;fill-rule:nonzero;stroke:none"
                 d="m 278.547,161.156 c 0,-7.972 -6.457,-14.441 -14.414,-14.441 -7.973,0 -14.43,6.469 -14.43,14.441 l 0,20.465 c 0,7.977 6.457,14.445 14.43,14.445 7.957,0 14.414,-6.468 14.414,-14.445 l 0,-13.851 -19.223,0 0,-6.614 c 0,-2.66 2.153,-4.816 4.809,-4.816 2.644,0 4.797,2.156 4.797,4.816 l 9.617,0 z m -19.223,14.446 9.606,0 0,6.019 c 0,2.664 -2.153,4.82 -4.797,4.82 -2.656,0 -4.809,-2.156 -4.809,-4.82 l 0,-6.019 z" /><path
                 id="path13266"
                 style="fill:#000000;fill-opacity:1;fill-rule:nonzero;stroke:none"
                 d="m 315.793,147.312 -9.617,0 0,4.821 c -2.645,-4.996 -8.84,-6.875 -13.809,-4.215 -3.336,1.766 -5.418,5.242 -5.418,9.02 l 0,38.523 9.621,0 0,-34.301 c 0,-2.66 2.153,-4.816 4.809,-4.816 2.644,0 4.797,2.156 4.797,4.816 l 0,34.301 9.617,0 0,-48.149 z" /><path
                 id="path13268"
                 style="fill:#000000;fill-opacity:1;fill-rule:nonzero;stroke:none"
                 d="m 335.016,141.895 c 0,-2.665 2.152,-4.821 4.812,-4.821 2.656,0 4.793,2.156 4.793,4.821 l 0,10.23 c -2.641,-4.977 -8.84,-6.871 -13.809,-4.211 -3.32,1.781 -5.402,5.254 -5.402,9.031 l 0,28.887 c 0,5.66 4.567,10.234 10.199,10.234 3.786,0 7.235,-2.086 9.012,-5.414 l 0,4.821 9.621,0 0,-53.578 c 0,-7.973 -6.457,-14.442 -14.414,-14.442 -7.973,0 -14.418,6.469 -14.418,14.442 l 9.606,0 z m 9.605,19.261 0,20.465 c 0,2.664 -2.137,4.82 -4.793,4.82 -2.66,0 -4.812,-2.156 -4.812,-4.82 l 0,-20.465 c 0,-2.66 2.152,-4.816 4.812,-4.816 2.656,0 4.793,2.156 4.793,4.816" /><path
                 id="path13270"
                 style="fill:#000000;fill-opacity:1;fill-rule:nonzero;stroke:none"
                 d="m 392.688,161.156 c 0,-7.972 -6.458,-14.441 -14.415,-14.441 -7.961,0 -14.418,6.469 -14.418,14.441 l 0,20.465 c 0,7.977 6.457,14.445 14.418,14.445 7.957,0 14.415,-6.468 14.415,-14.445 l 0,-13.851 -19.227,0 0,-6.614 c 0,-2.66 2.152,-4.816 4.812,-4.816 2.657,0 4.809,2.156 4.809,4.816 l 9.606,0 z m -19.227,14.446 9.621,0 0,6.019 c 0,2.664 -2.152,4.82 -4.809,4.82 -2.66,0 -4.812,-2.156 -4.812,-4.82 l 0,-6.019 z" /><path
                 id="path13272"
                 style="fill:#000000;fill-opacity:1;fill-rule:nonzero;stroke:none"
                 d="m 177.922,51.004 0,40.336 -4.809,0 0,7.812 4.809,0 0,7.223 c 0,6.656 5.387,12.043 12.019,12.043 l 7.207,0 0,-9.031 -6.601,0 c -1.66,0 -3.02,-1.348 -3.02,-3.012 l 0,-7.223 9.621,0 0,-7.812 -9.621,0 0,-40.336 -9.605,0 z" /><path
                 id="path13274"
                 style="fill:#000000;fill-opacity:1;fill-rule:nonzero;stroke:none"
                 d="m 207.961,51.004 0,48.148 9.605,0 0,-5.425 c 5.633,6.976 15.844,8.062 22.821,2.418 0,0 0.015,0 0.015,-0.016 l -6.832,-8.438 c -3.961,3.547 -10.039,3.184 -13.562,-0.796 -1.578,-1.766 -2.442,-4.036 -2.442,-6.395 l 0,-29.496 -9.605,0 z" /><path
                 id="path13276"
                 style="fill:#000000;fill-opacity:1;fill-rule:nonzero;stroke:none"
                 d="m 284.855,71.469 -30.043,0 0,-1.199 c 0,-4.184 2.54,-7.946 6.426,-9.508 5.344,-2.145 11.453,-0.637 15.196,3.73 l 7.293,-6.265 C 277.301,50.73 266.828,48.156 257.672,51.816 250.145,54.84 245.207,62.137 245.207,70.27 l 0,9.621 c 0,10.972 8.867,19.871 19.816,19.871 10.961,0 19.832,-8.899 19.832,-19.871 l 0,-8.422 z m -30.043,8.422 20.438,0 c 0,5.66 -4.578,10.234 -10.227,10.234 -5.632,0 -10.211,-4.574 -10.211,-10.234" /><path
                 id="path13278"
                 style="fill:#000000;fill-opacity:1;fill-rule:nonzero;stroke:none"
                 d="m 298.078,99.16 9.606,0 0,-48.148 -9.606,0 0,48.148 z m 0,19.262 9.606,0 0,-9.637 -9.606,0 0,9.637 z" /></g></g></g></g><path
         id="path13280"
         style="fill:#000000;fill-opacity:1;fill-rule:nonzero;stroke:none"
         d="M 32.184,360.8 C 14.445,360.8 0,346.355 0,328.605 L 0,32.191 C 0,14.448 14.445,-0.001 32.184,-0.001 l 416.418,0 c 17.75,0 32.199,14.449 32.199,32.192 l 0,296.414 c 0,17.75 -14.449,32.195 -32.199,32.195 l -416.418,0 z m 0,-0.398 416.418,0 c 17.535,0 31.796,-14.266 31.796,-31.797 l 0,-296.414 c 0,-17.524 -14.261,-31.789 -31.796,-31.789 l -416.418,0 c -17.52,0 -31.786,14.265 -31.786,31.789 l 0,296.414 c 0,17.531 14.266,31.797 31.786,31.797 z" /></g></g></svg>